<svg width="30" height="30" viewBox="0 0 30 30" fill="none" xmlns="http://www.w3.org/2000/svg">
<rect width="30" height="30" rx="15" fill="white"/>
<path d="M15.29 8.21189L16.79 9.71189C16.883 9.80562 16.9936 9.88001 17.1154 9.93078C17.2373 9.98155 17.368 10.0077 17.5 10.0077C17.632 10.0077 17.7627 9.98155 17.8846 9.93078C18.0064 9.88001 18.117 9.80562 18.21 9.71189C18.3618 9.5526 18.4567 9.3477 18.4803 9.12894C18.5038 8.91019 18.4545 8.68979 18.34 8.50189H22C22.2652 8.50189 22.5196 8.39654 22.7071 8.209C22.8946 8.02146 23 7.76711 23 7.50189C23 7.23668 22.8946 6.98232 22.7071 6.79479C22.5196 6.60725 22.2652 6.50189 22 6.50189H18.34C18.4545 6.31399 18.5038 6.09359 18.4803 5.87484C18.4567 5.65609 18.3618 5.45119 18.21 5.29189C18.117 5.19816 18.0064 5.12377 17.8846 5.073C17.7627 5.02223 17.632 4.99609 17.5 4.99609C17.368 4.99609 17.2373 5.02223 17.1154 5.073C16.9936 5.12377 16.883 5.19816 16.79 5.29189L15.29 6.79189C15.199 6.887 15.1276 6.99914 15.08 7.12189C14.98 7.36535 14.98 7.63843 15.08 7.88189C15.1276 8.00464 15.199 8.11679 15.29 8.21189ZM25.92 12.1219C25.8724 11.9991 25.801 11.887 25.71 11.7919L24.21 10.2919C24.117 10.1982 24.0064 10.1238 23.8846 10.073C23.7627 10.0222 23.632 9.99609 23.5 9.99609C23.368 9.99609 23.2373 10.0222 23.1154 10.073C22.9936 10.1238 22.883 10.1982 22.79 10.2919C22.6382 10.4512 22.5433 10.6561 22.5197 10.8748C22.4962 11.0936 22.5455 11.314 22.66 11.5019H19C18.7348 11.5019 18.4804 11.6072 18.2929 11.7948C18.1054 11.9823 18 12.2367 18 12.5019C18 12.7671 18.1054 13.0215 18.2929 13.209C18.4804 13.3965 18.7348 13.5019 19 13.5019H22.66C22.5455 13.6898 22.4962 13.9102 22.5197 14.1289C22.5433 14.3477 22.6382 14.5526 22.79 14.7119C22.883 14.8056 22.9936 14.88 23.1154 14.9308C23.2373 14.9816 23.368 15.0077 23.5 15.0077C23.632 15.0077 23.7627 14.9816 23.8846 14.9308C24.0064 14.88 24.117 14.8056 24.21 14.7119L25.71 13.2119C25.801 13.1168 25.8724 13.0046 25.92 12.8819C26.02 12.6384 26.02 12.3654 25.92 12.1219ZM14 13.0019C13.2089 13.0019 12.4355 13.2365 11.7777 13.676C11.1199 14.1155 10.6072 14.7403 10.3045 15.4712C10.0017 16.2021 9.92252 17.0063 10.0769 17.7823C10.2312 18.5582 10.6122 19.2709 11.1716 19.8303C11.731 20.3897 12.4437 20.7707 13.2196 20.925C13.9956 21.0794 14.7998 21.0002 15.5307 20.6974C16.2616 20.3947 16.8864 19.882 17.3259 19.2242C17.7654 18.5664 18 17.793 18 17.0019C18 15.941 17.5786 14.9236 16.8284 14.1735C16.0783 13.4233 15.0609 13.0019 14 13.0019ZM14 19.0019C13.6044 19.0019 13.2178 18.8846 12.8889 18.6648C12.56 18.4451 12.3036 18.1327 12.1522 17.7673C12.0009 17.4018 11.9613 16.9997 12.0384 16.6117C12.1156 16.2237 12.3061 15.8674 12.5858 15.5877C12.8655 15.308 13.2219 15.1175 13.6098 15.0403C13.9978 14.9632 14.3999 15.0028 14.7654 15.1541C15.1308 15.3055 15.4432 15.5619 15.6629 15.8908C15.8827 16.2197 16 16.6063 16 17.0019C16 17.5323 15.7893 18.041 15.4142 18.4161C15.0391 18.7912 14.5304 19.0019 14 19.0019ZM23 16.0019C22.7348 16.0019 22.4804 16.1072 22.2929 16.2948C22.1054 16.4823 22 16.7367 22 17.0019V22.0019C22 22.2671 21.8946 22.5215 21.7071 22.709C21.5196 22.8965 21.2652 23.0019 21 23.0019H7C6.73478 23.0019 6.48043 22.8965 6.29289 22.709C6.10536 22.5215 6 22.2671 6 22.0019V14.0019C6 13.7367 6.10536 13.4823 6.29289 13.2948C6.48043 13.1072 6.73478 13.0019 7 13.0019H9C9.21932 13.0126 9.43607 12.9509 9.6168 12.8262C9.79753 12.7015 9.93219 12.5207 10 12.3119L10.54 10.6919C10.6025 10.4993 10.722 10.3302 10.8827 10.207C11.0434 10.0838 11.2378 10.0123 11.44 10.0019H13C13.2652 10.0019 13.5196 9.89653 13.7071 9.709C13.8946 9.52146 14 9.26711 14 9.00189C14 8.73668 13.8946 8.48232 13.7071 8.29479C13.5196 8.10725 13.2652 8.00189 13 8.00189H11.44C10.8086 8.00167 10.1932 8.20066 9.68152 8.57053C9.16981 8.9404 8.78784 9.46229 8.59 10.0619L8.28 11.0019H7C6.20435 11.0019 5.44129 11.318 4.87868 11.8806C4.31607 12.4432 4 13.2062 4 14.0019V22.0019C4 22.7975 4.31607 23.5606 4.87868 24.1232C5.44129 24.6858 6.20435 25.0019 7 25.0019H21C21.7956 25.0019 22.5587 24.6858 23.1213 24.1232C23.6839 23.5606 24 22.7975 24 22.0019V17.0019C24 16.7367 23.8946 16.4823 23.7071 16.2948C23.5196 16.1072 23.2652 16.0019 23 16.0019Z" fill="#667EEA"/>
</svg>
