<svg width="219" height="214" viewBox="0 0 219 214" fill="none" xmlns="http://www.w3.org/2000/svg">
<g opacity="0.5">
<path d="M14.8359 100.251L135.011 31.2031L14.8359 100.251Z" fill="white"/>
<path d="M14.8359 100.251L135.011 31.2031" stroke="#A9F2A8" stroke-width="29.5536" stroke-linecap="round"/>
</g>
<g opacity="0.5">
<path d="M43.418 145.536L163.593 76.4883L43.418 145.536Z" fill="white"/>
<path d="M43.418 145.536L163.593 76.4883" stroke="#A9F2A8" stroke-width="29.5536" stroke-linecap="round"/>
</g>
<g opacity="0.5">
<path d="M194.375 59.1398L203.741 53.6875L194.375 59.1398Z" fill="white"/>
<path d="M194.375 59.1398L203.741 53.6875" stroke="#A9F2A8" stroke-width="29.5536" stroke-linecap="round"/>
</g>
<g opacity="0.5">
<path d="M85.8203 182.798L177.089 129.488L85.8203 182.798Z" fill="white"/>
<path d="M85.8203 182.798L177.089 129.488" stroke="#A9F2A8" stroke-width="29.5536" stroke-linecap="round"/>
</g>
<path d="M199.434 134.632C200.895 134.785 201.958 136.095 201.806 137.557C201.653 139.019 200.342 140.082 198.881 139.929C197.419 139.776 196.356 138.466 196.509 137.004C196.661 135.542 197.972 134.479 199.434 134.632Z" stroke="#A9F2A8" stroke-width="1.37582"/>
<path d="M44.1092 188.951C46.5129 189.202 48.2607 191.357 48.0097 193.761C47.7588 196.164 45.6034 197.912 43.1998 197.661C40.7961 197.41 39.0482 195.255 39.2992 192.851C39.5501 190.448 41.7055 188.7 44.1092 188.951Z" stroke="#A9F2A8" stroke-width="2.26244"/>
<path d="M105.387 9.42346C107.79 9.67442 109.538 11.8298 109.287 14.2335C109.036 16.6371 106.881 18.385 104.477 18.134C102.073 17.8831 100.326 15.7277 100.577 13.324C100.827 10.9203 102.983 9.17251 105.387 9.42346Z" stroke="#A9F2A8" stroke-width="2.26244"/>
<path d="M4.00052 66.4492C5.10461 66.4492 6.00104 67.3457 6.00104 68.4497C6.00104 69.5538 5.10461 70.4503 4.00052 70.4503C2.89643 70.4503 2 69.5538 2 68.4497C2 67.3457 2.89643 66.4492 4.00052 66.4492Z" stroke="#A9F2A8" stroke-width="1.65375"/>
<path d="M159.379 196.906C160.484 196.906 161.38 197.803 161.38 198.907C161.38 200.011 160.484 200.907 159.379 200.907C158.275 200.907 157.379 200.011 157.379 198.907C157.379 197.803 158.275 196.906 159.379 196.906Z" stroke="#A9F2A8" stroke-width="1.65375"/>
<path d="M182.207 8.80078L184.49 1.1024" stroke="#A9F2A8" stroke-width="0.96356"/>
<path d="M179.625 3.86328L187.323 6.14593" stroke="#A9F2A8" stroke-width="0.96356"/>
<path d="M12.1172 139.883L14.1182 132.106" stroke="#A9F2A8" stroke-width="0.96356"/>
<path d="M9.35938 135.043L17.1357 137.044" stroke="#A9F2A8" stroke-width="0.96356"/>
<path d="M179.031 174.625L180.596 166.749" stroke="#A9F2A8" stroke-width="0.96356"/>
<path d="M176.004 169.945L183.88 171.51" stroke="#A9F2A8" stroke-width="0.96356"/>
<path d="M106.913 43.1211C138.776 43.1211 164.646 68.9914 164.646 100.854C164.646 132.718 138.776 158.588 106.913 158.588C75.05 158.588 49.1797 132.718 49.1797 100.854C49.1797 68.9914 75.05 43.1211 106.913 43.1211Z" fill="#A9F2A8"/>
<path d="M106.871 48.582C135.72 48.582 159.144 72.0056 159.144 100.855C159.144 129.705 135.72 153.128 106.871 153.128C78.0212 153.128 54.5977 129.705 54.5977 100.855C54.5977 72.0056 78.0212 48.582 106.871 48.582Z" fill="#30BE2D"/>
<path d="M83.2695 102.775L97.4017 116.586L130.484 83.5039" stroke="white" stroke-width="5.78136"/>
</svg>
