<svg width="54" height="60" viewBox="0 0 54 60" fill="none" xmlns="http://www.w3.org/2000/svg">
<path d="M12.8076 45.3843C20.518 38.2654 23.9172 31.1605 22.9085 24.2514C21.0845 11.8878 5.7329 4.37731 5.06964 4.05563L5.09728 4.01367C12.1444 7.31437 18.4039 11.1745 23.7099 15.4542C27.9658 18.8668 31.6137 22.5731 34.5569 26.4612C39.5728 33.0766 40.8164 37.9997 40.8302 38.0416V38.0836H40.7887C40.4986 38.0556 40.1808 38.0556 39.8491 38.0556C30.7155 38.0556 12.9873 45.3563 12.8214 45.4402L12.8076 45.3843Z" fill="#667EEA"/>
<path d="M12.8076 45.3843C20.518 38.2654 23.9172 31.1605 22.9085 24.2514C21.0845 11.8878 5.7329 4.37731 5.06964 4.05563L5.09728 4.01367C12.1444 7.31437 18.4039 11.1745 23.7099 15.4542C27.9658 18.8668 31.6137 22.5731 34.5569 26.4612C39.5728 33.0766 40.8164 37.9997 40.8302 38.0416V38.0836H40.7887C40.4986 38.0556 40.1808 38.0556 39.8491 38.0556C30.7155 38.0556 12.9873 45.3563 12.8214 45.4402L12.8076 45.3843Z" fill="#667EEA"/>
<path d="M41.7411 55.9584C42.5739 52.1857 42.7423 48.2938 42.2386 44.4619C41.755 40.6017 40.7877 38.0843 40.7877 38.0563L40.7601 38.0283H40.9812C41.7135 38.0283 45.4029 38.1682 46.8123 40.9374C48.3737 43.9864 46.6741 49.0493 41.7964 56.0003L41.7411 55.9584Z" fill="#4F62B6"/>
<path d="M41.7411 55.9584C43.9105 46.364 40.8153 38.1402 40.7877 38.0563L40.7601 38.0283H40.9812C41.7135 38.0283 45.4029 38.1682 46.8123 40.9374C48.3737 43.9864 46.6741 49.0493 41.7964 56.0003L41.7411 55.9584Z" fill="#4F62B6"/>
<path d="M41.7409 55.944C46.6186 49.021 48.3043 43.972 46.7705 40.951C45.3749 38.2098 41.6994 38.0699 40.9809 38.0699H40.7874V38.042C40.7874 38 39.53 33.0909 34.5141 26.4895C29.8852 20.3916 21.0279 11.5524 5.06832 4.05594H5.0545V4C18.8723 7.65035 29.6226 12.2098 37.0013 17.5524C43.1365 22 47.0193 27.021 48.5392 32.4895C50.3632 39.0489 48.4287 45.0909 46.4804 48.993C45.2342 51.5285 43.6538 53.881 41.7823 55.986L41.7409 55.944Z" fill="#667EEA"/>
</svg>
