<svg width="217" height="90" viewBox="0 0 217 90" fill="none" xmlns="http://www.w3.org/2000/svg">
<g filter="url(#filter0_d_3080_7403)">
<rect x="5.02941" y="1.02941" width="79.9412" height="79.9412" rx="8.73529" fill="white" stroke="#FCFBFB" stroke-width="1.94118"/>
<path d="M25.8076 56.3843C33.5179 49.2654 36.9171 42.1605 35.9084 35.2514C34.0845 22.8878 18.7328 15.3773 18.0696 15.0556L18.0972 15.0137C25.1443 18.3144 31.4038 22.1745 36.7098 26.4542C40.9657 29.8668 44.6136 33.5731 47.5568 37.4612C52.5727 44.0766 53.8163 48.9997 53.8301 49.0416V49.0836H53.7887C53.4985 49.0556 53.1807 49.0556 52.8491 49.0556C43.7155 49.0556 25.9872 56.3563 25.8214 56.4402L25.8076 56.3843Z" fill="#667EEA"/>
<path d="M25.8076 56.3843C33.5179 49.2654 36.9171 42.1605 35.9084 35.2514C34.0845 22.8878 18.7328 15.3773 18.0696 15.0556L18.0972 15.0137C25.1443 18.3144 31.4038 22.1745 36.7098 26.4542C40.9657 29.8668 44.6136 33.5731 47.5568 37.4612C52.5727 44.0766 53.8163 48.9997 53.8301 49.0416V49.0836H53.7887C53.4985 49.0556 53.1807 49.0556 52.8491 49.0556C43.7155 49.0556 25.9872 56.3563 25.8214 56.4402L25.8076 56.3843Z" fill="#667EEA"/>
<path d="M54.7411 66.9584C55.5738 63.1857 55.7422 59.2938 55.2385 55.4619C54.7549 51.6017 53.7876 49.0843 53.7876 49.0563L53.76 49.0283H53.9811C54.7134 49.0283 58.4028 49.1682 59.8122 51.9374C61.3736 54.9864 59.674 60.0493 54.7963 67.0003L54.7411 66.9584Z" fill="#4F62B6"/>
<path d="M54.7411 66.9584C56.9105 57.364 53.8153 49.1402 53.7876 49.0563L53.76 49.0283H53.9811C54.7134 49.0283 58.4028 49.1682 59.8122 51.9374C61.3736 54.9864 59.674 60.0493 54.7963 67.0003L54.7411 66.9584Z" fill="#4F62B6"/>
<path d="M54.7408 66.944C59.6185 60.021 61.3043 54.972 59.7705 51.951C58.3749 49.2098 54.6993 49.0699 53.9808 49.0699H53.7874V49.0419C53.7874 49 52.5299 44.0909 47.5141 37.4895C42.8851 31.3916 34.0279 22.5524 18.0683 15.0559H18.0544V15C31.8723 18.6503 42.6226 23.2098 50.0013 28.5524C56.1364 33 60.0192 38.021 61.5392 43.4895C63.3631 50.0489 61.4286 56.0909 59.4803 59.993C58.2342 62.5285 56.6537 64.881 54.7822 66.986L54.7408 66.944Z" fill="#667EEA"/>
</g>
<path d="M107.745 49.24C106.289 49.24 105.009 48.92 103.905 48.28C102.817 47.64 101.969 46.712 101.361 45.496C100.753 44.28 100.449 42.816 100.449 41.104C100.449 39.408 100.769 37.952 101.409 36.736C102.049 35.504 102.953 34.56 104.121 33.904C105.305 33.248 106.673 32.92 108.225 32.92C109.937 32.92 111.321 33.24 112.377 33.88C113.433 34.504 114.273 35.48 114.897 36.808L111.825 38.128C111.569 37.28 111.129 36.656 110.505 36.256C109.897 35.84 109.145 35.632 108.249 35.632C107.353 35.632 106.577 35.848 105.921 36.28C105.265 36.696 104.761 37.312 104.409 38.128C104.057 38.928 103.881 39.912 103.881 41.08C103.881 42.28 104.049 43.296 104.385 44.128C104.721 44.944 105.217 45.56 105.873 45.976C106.545 46.376 107.369 46.576 108.345 46.576C108.873 46.576 109.361 46.512 109.809 46.384C110.273 46.256 110.673 46.064 111.009 45.808C111.345 45.552 111.609 45.224 111.801 44.824C111.993 44.424 112.089 43.96 112.089 43.432V43.072H107.937V40.648H114.945V49H112.617L112.377 45.544L112.953 45.952C112.601 47.008 111.977 47.824 111.081 48.4C110.201 48.96 109.089 49.24 107.745 49.24ZM118.248 49V37H121.104L121.32 39.352C121.64 38.52 122.104 37.88 122.712 37.432C123.336 36.984 124.112 36.76 125.04 36.76C125.312 36.76 125.56 36.784 125.784 36.832C126.008 36.88 126.192 36.944 126.336 37.024L125.952 39.784C125.792 39.72 125.592 39.672 125.352 39.64C125.128 39.608 124.832 39.592 124.464 39.592C123.984 39.592 123.52 39.712 123.072 39.952C122.624 40.176 122.256 40.528 121.968 41.008C121.68 41.472 121.536 42.064 121.536 42.784V49H118.248ZM135.002 41.344C135.002 40.656 134.802 40.12 134.402 39.736C134.018 39.352 133.506 39.16 132.866 39.16C132.274 39.16 131.754 39.312 131.306 39.616C130.858 39.92 130.53 40.424 130.322 41.128L127.514 40.264C127.786 39.208 128.378 38.36 129.29 37.72C130.218 37.08 131.458 36.76 133.01 36.76C134.066 36.76 134.986 36.928 135.77 37.264C136.554 37.584 137.162 38.072 137.594 38.728C138.042 39.384 138.266 40.208 138.266 41.2V46.072C138.266 46.68 138.554 46.984 139.13 46.984C139.402 46.984 139.658 46.944 139.898 46.864L139.706 48.904C139.29 49.112 138.77 49.216 138.146 49.216C137.586 49.216 137.082 49.12 136.634 48.928C136.186 48.736 135.834 48.448 135.578 48.064C135.322 47.664 135.194 47.168 135.194 46.576V46.48L135.77 46.384C135.674 46.992 135.41 47.512 134.978 47.944C134.546 48.36 134.018 48.68 133.394 48.904C132.786 49.128 132.154 49.24 131.498 49.24C130.682 49.24 129.978 49.12 129.386 48.88C128.794 48.624 128.338 48.256 128.018 47.776C127.698 47.296 127.538 46.704 127.538 46C127.538 45.104 127.826 44.376 128.402 43.816C128.978 43.24 129.802 42.848 130.874 42.64L135.386 41.728L135.362 43.768L132.482 44.344C131.938 44.456 131.522 44.608 131.234 44.8C130.962 44.976 130.826 45.272 130.826 45.688C130.826 46.088 130.97 46.392 131.258 46.6C131.562 46.808 131.922 46.912 132.338 46.912C132.674 46.912 133.002 46.872 133.322 46.792C133.642 46.712 133.93 46.584 134.186 46.408C134.442 46.232 134.642 45.992 134.786 45.688C134.93 45.384 135.002 45.016 135.002 44.584V41.344ZM146.433 49.24C145.441 49.24 144.553 48.992 143.769 48.496C143.001 48 142.393 47.288 141.945 46.36C141.513 45.432 141.297 44.32 141.297 43.024C141.297 41.696 141.529 40.568 141.993 39.64C142.457 38.696 143.081 37.984 143.865 37.504C144.665 37.008 145.561 36.76 146.553 36.76C147.609 36.76 148.481 37.064 149.169 37.672C149.857 38.28 150.305 39.064 150.513 40.024L150.201 40.408V31.744H153.489V49H150.537L150.321 45.352L150.729 45.544C150.617 46.296 150.361 46.952 149.961 47.512C149.561 48.056 149.057 48.48 148.449 48.784C147.841 49.088 147.169 49.24 146.433 49.24ZM147.393 46.72C147.969 46.72 148.465 46.576 148.881 46.288C149.297 45.984 149.617 45.544 149.841 44.968C150.081 44.392 150.201 43.704 150.201 42.904C150.201 42.136 150.089 41.488 149.865 40.96C149.641 40.416 149.321 40 148.905 39.712C148.489 39.424 148.001 39.28 147.441 39.28C146.545 39.28 145.841 39.6 145.329 40.24C144.833 40.864 144.585 41.784 144.585 43C144.585 44.216 144.833 45.144 145.329 45.784C145.825 46.408 146.513 46.72 147.393 46.72ZM162.512 49.24C161.248 49.24 160.144 48.992 159.2 48.496C158.272 48 157.552 47.288 157.04 46.36C156.528 45.432 156.272 44.312 156.272 43C156.272 41.688 156.528 40.568 157.04 39.64C157.552 38.712 158.264 38 159.176 37.504C160.104 37.008 161.16 36.76 162.344 36.76C163.56 36.76 164.592 37.008 165.44 37.504C166.288 37.984 166.936 38.648 167.384 39.496C167.832 40.328 168.056 41.28 168.056 42.352C168.056 42.672 168.048 42.976 168.032 43.264C168.016 43.552 167.992 43.808 167.96 44.032H158.384V41.752H166.52L164.936 42.328C164.936 41.32 164.704 40.544 164.24 40C163.792 39.456 163.152 39.184 162.32 39.184C161.712 39.184 161.184 39.328 160.736 39.616C160.304 39.904 159.976 40.336 159.752 40.912C159.528 41.472 159.416 42.184 159.416 43.048C159.416 43.896 159.536 44.6 159.776 45.16C160.032 45.704 160.384 46.112 160.832 46.384C161.296 46.656 161.848 46.792 162.488 46.792C163.192 46.792 163.76 46.656 164.192 46.384C164.624 46.112 164.96 45.736 165.2 45.256L167.816 46.264C167.56 46.888 167.168 47.424 166.64 47.872C166.128 48.32 165.512 48.664 164.792 48.904C164.088 49.128 163.328 49.24 162.512 49.24ZM191.586 49H188.154L186.834 45.136H180.762L179.442 49H176.058L181.842 33.16H185.802L191.586 49ZM181.506 42.688H186.09L183.786 35.776L181.506 42.688ZM193.6 49V37H196.456L196.672 39.352C196.992 38.52 197.456 37.88 198.064 37.432C198.688 36.984 199.464 36.76 200.392 36.76C200.664 36.76 200.912 36.784 201.136 36.832C201.36 36.88 201.544 36.944 201.688 37.024L201.304 39.784C201.144 39.72 200.944 39.672 200.704 39.64C200.48 39.608 200.184 39.592 199.816 39.592C199.336 39.592 198.872 39.712 198.424 39.952C197.976 40.176 197.608 40.528 197.32 41.008C197.032 41.472 196.888 42.064 196.888 42.784V49H193.6ZM208.938 36.76C210.01 36.76 210.914 36.92 211.65 37.24C212.402 37.544 213.002 37.968 213.45 38.512C213.914 39.04 214.242 39.632 214.434 40.288L211.362 41.392C211.202 40.672 210.93 40.128 210.546 39.76C210.162 39.392 209.642 39.208 208.986 39.208C208.378 39.208 207.858 39.352 207.426 39.64C206.994 39.912 206.666 40.336 206.442 40.912C206.218 41.472 206.106 42.176 206.106 43.024C206.106 43.872 206.218 44.576 206.442 45.136C206.682 45.696 207.018 46.112 207.45 46.384C207.898 46.656 208.418 46.792 209.01 46.792C209.49 46.792 209.898 46.712 210.234 46.552C210.57 46.376 210.842 46.128 211.05 45.808C211.274 45.488 211.426 45.104 211.506 44.656L214.482 45.616C214.306 46.336 213.978 46.968 213.498 47.512C213.018 48.056 212.402 48.48 211.65 48.784C210.898 49.088 210.026 49.24 209.034 49.24C207.802 49.24 206.714 48.992 205.77 48.496C204.826 48 204.098 47.288 203.586 46.36C203.074 45.432 202.818 44.312 202.818 43C202.818 41.688 203.074 40.568 203.586 39.64C204.098 38.712 204.818 38 205.746 37.504C206.674 37.008 207.738 36.76 208.938 36.76Z" fill="#050B24"/>
<defs>
<filter id="filter0_d_3080_7403" x="0.176485" y="0.0585938" width="89.647" height="89.6475" filterUnits="userSpaceOnUse" color-interpolation-filters="sRGB">
<feFlood flood-opacity="0" result="BackgroundImageFix"/>
<feColorMatrix in="SourceAlpha" type="matrix" values="0 0 0 0 0 0 0 0 0 0 0 0 0 0 0 0 0 0 127 0" result="hardAlpha"/>
<feOffset dy="3.88235"/>
<feGaussianBlur stdDeviation="1.94118"/>
<feComposite in2="hardAlpha" operator="out"/>
<feColorMatrix type="matrix" values="0 0 0 0 0.6625 0 0 0 0 0.723537 0 0 0 0 1 0 0 0 0.12 0"/>
<feBlend mode="normal" in2="BackgroundImageFix" result="effect1_dropShadow_3080_7403"/>
<feBlend mode="normal" in="SourceGraphic" in2="effect1_dropShadow_3080_7403" result="shape"/>
</filter>
</defs>
</svg>
