<svg width="14" height="14" viewBox="0 0 14 14" fill="none" xmlns="http://www.w3.org/2000/svg">
<path d="M12.8003 10.9287L8.36485 6.888L12.4055 2.45256C12.5841 2.2565 12.6775 1.99752 12.6652 1.73259C12.6528 1.46766 12.5358 1.21848 12.3397 1.03988C12.1436 0.861269 11.8847 0.76786 11.6197 0.7802C11.3548 0.79254 11.1056 0.909617 10.927 1.10568L6.88637 5.54112L2.45093 1.50047C2.25487 1.32186 1.99589 1.22845 1.73096 1.24079C1.46603 1.25313 1.21686 1.37021 1.03825 1.56627C0.85964 1.76233 0.766232 2.02131 0.778572 2.28624C0.790912 2.55116 0.907989 2.80034 1.10405 2.97895L5.53949 7.0196L1.49884 11.455C1.32023 11.6511 1.22682 11.9101 1.23916 12.175C1.2515 12.4399 1.36858 12.6891 1.56464 12.8677C1.7607 13.0463 2.01968 13.1397 2.28461 13.1274C2.54954 13.1151 2.79871 12.998 2.97732 12.8019L7.01797 8.36648L11.4534 12.4071C11.6495 12.5857 11.9085 12.6791 12.1734 12.6668C12.4383 12.6545 12.6875 12.5374 12.8661 12.3413C13.0447 12.1453 13.1381 11.8863 13.1258 11.6214C13.1134 11.3564 12.9964 11.1073 12.8003 10.9287Z" fill="#8C8C8C"/>
</svg>
