<svg width="64" height="64" viewBox="0 0 64 64" fill="none" xmlns="http://www.w3.org/2000/svg">
<path d="M64 39.8579V10C64 4.47715 59.5228 0 54 0H24.1421C15.2331 0 10.7714 10.7714 17.071 17.071L46.9289 46.9289C53.2286 53.2286 64 48.7669 64 39.8579Z" fill="#576BC7"/>
<path d="M45 19C44.4477 19 44 19.4477 44 20C44 20.5523 44.4477 21 45 21C45.5523 21 46 20.5523 46 20C46 19.4477 45.5523 19 45 19Z" stroke="white" stroke-width="2.21605" stroke-linecap="round" stroke-linejoin="round"/>
<path d="M38 19C37.4477 19 37 19.4477 37 20C37 20.5523 37.4477 21 38 21C38.5523 21 39 20.5523 39 20C39 19.4477 38.5523 19 38 19Z" stroke="white" stroke-width="2.21605" stroke-linecap="round" stroke-linejoin="round"/>
<path d="M52 19C51.4477 19 51 19.4477 51 20C51 20.5523 51.4477 21 52 21C52.5523 21 53 20.5523 53 20C53 19.4477 52.5523 19 52 19Z" stroke="white" stroke-width="2.21605" stroke-linecap="round" stroke-linejoin="round"/>
</svg>
