<svg width="369" height="203" viewBox="0 0 369 203" fill="none" xmlns="http://www.w3.org/2000/svg">
<rect opacity="0.2" width="368.161" height="203" rx="16" fill="#C9D2F8"/>
<mask id="mask0_3333_14374" style="mask-type:alpha" maskUnits="userSpaceOnUse" x="0" y="0" width="368" height="203">
<rect width="367.701" height="203" rx="16" fill="#C9D2F8"/>
</mask>
<g mask="url(#mask0_3333_14374)">
<path d="M332.769 276.456L303.404 157.386C299.591 141.924 277.99 140.919 272.758 155.96L230.943 276.167C227.291 286.666 235.195 297.599 246.31 297.422L317.49 296.285C327.772 296.121 335.232 286.44 332.769 276.456Z" fill="#667EEA"/>
<path d="M303.462 157.201L334.213 280.901C336.322 289.384 344.848 294.604 353.362 292.626L435.225 273.607C447.713 270.706 451.888 255.031 442.498 246.303L329.883 141.622C318.228 130.789 299.623 141.76 303.462 157.201Z" fill="#42549F"/>
</g>
</svg>
