<svg width="369" height="203" viewBox="0 0 369 203" fill="none" xmlns="http://www.w3.org/2000/svg">
<rect opacity="0.3" x="0.817871" width="367.19" height="203" rx="16" fill="#FFCCCC"/>
<mask id="mask0_3333_14404" style="mask-type:alpha" maskUnits="userSpaceOnUse" x="0" y="0" width="369" height="203">
<rect x="0.5625" width="367.701" height="203" rx="16" fill="#C9D2F8"/>
</mask>
<g mask="url(#mask0_3333_14404)">
<path fill-rule="evenodd" clip-rule="evenodd" d="M334.909 268.56C361.266 255.239 379.559 226.023 379.559 192.125C379.559 145.664 345.194 108 302.802 108C267.831 108 238.322 133.633 229.063 168.691C202.706 182.012 184.413 211.227 184.413 245.125C184.413 291.587 218.778 329.251 261.17 329.251C296.141 329.251 325.65 303.618 334.909 268.56ZM302.802 276.251C314.265 276.251 325.141 273.497 334.909 268.56C336.874 261.121 337.927 253.258 337.927 245.125C337.927 198.664 303.561 161 261.17 161C249.707 161 238.831 163.754 229.063 168.691C227.098 176.13 226.045 183.993 226.045 192.125C226.045 238.587 260.41 276.251 302.802 276.251Z" fill="#DD0E31"/>
</g>
</svg>
