<svg width="379" height="203" viewBox="0 0 379 203" fill="none" xmlns="http://www.w3.org/2000/svg">
<rect opacity="0.1" width="379" height="203" rx="16" fill="#009416"/>
<mask id="mask0_3333_14389" style="mask-type:alpha" maskUnits="userSpaceOnUse" x="0" y="0" width="379" height="203">
<rect x="0.473633" width="378.526" height="203" rx="16" fill="#C9D2F8"/>
</mask>
<g mask="url(#mask0_3333_14389)">
<path d="M355.598 233.392L324.996 112.856C321.11 97.5486 299.75 96.5306 294.425 111.399L250.849 233.086C247.082 243.607 254.987 254.651 266.161 254.478L340.338 253.327C350.668 253.167 358.14 243.405 355.598 233.392Z" fill="#009416"/>
<path d="M325.251 113.447L357.172 238.177C359.318 246.565 367.749 251.724 376.195 249.818L461.17 230.64C473.823 227.784 477.998 211.85 468.37 203.157L351.474 97.6048C339.712 86.9834 321.322 98.093 325.251 113.447Z" fill="#00680C"/>
</g>
</svg>
