<svg width="219" height="214" viewBox="0 0 219 214" fill="none" xmlns="http://www.w3.org/2000/svg">
<g opacity="0.5">
<path d="M14.8359 100.251L135.011 31.2031L14.8359 100.251Z" fill="white"/>
<path d="M14.8359 100.251L135.011 31.2031" stroke="#A9F2A8" stroke-width="29.5536" stroke-linecap="round"/>
</g>
<g opacity="0.5">
<path d="M43.4141 145.536L163.589 76.4883L43.4141 145.536Z" fill="white"/>
<path d="M43.4141 145.536L163.589 76.4883" stroke="#A9F2A8" stroke-width="29.5536" stroke-linecap="round"/>
</g>
<g opacity="0.5">
<path d="M194.375 59.1398L203.741 53.6875L194.375 59.1398Z" fill="white"/>
<path d="M194.375 59.1398L203.741 53.6875" stroke="#A9F2A8" stroke-width="29.5536" stroke-linecap="round"/>
</g>
<g opacity="0.5">
<path d="M85.8203 182.798L177.089 129.488L85.8203 182.798Z" fill="white"/>
<path d="M85.8203 182.798L177.089 129.488" stroke="#A9F2A8" stroke-width="29.5536" stroke-linecap="round"/>
</g>
<path d="M199.43 134.632C200.891 134.785 201.954 136.095 201.802 137.557C201.649 139.019 200.338 140.082 198.877 139.929C197.415 139.776 196.352 138.466 196.505 137.004C196.657 135.542 197.968 134.479 199.43 134.632Z" stroke="#A9F2A8" stroke-width="1.37582"/>
<path d="M44.1053 188.951C46.509 189.202 48.2568 191.357 48.0058 193.761C47.7549 196.164 45.5995 197.912 43.1958 197.661C40.7922 197.41 39.0443 195.255 39.2953 192.851C39.5462 190.448 41.7016 188.7 44.1053 188.951Z" stroke="#A9F2A8" stroke-width="2.26244"/>
<path d="M105.387 9.42346C107.79 9.67442 109.538 11.8298 109.287 14.2335C109.036 16.6371 106.881 18.385 104.477 18.134C102.073 17.8831 100.326 15.7277 100.577 13.324C100.827 10.9203 102.983 9.17251 105.387 9.42346Z" stroke="#A9F2A8" stroke-width="2.26244"/>
<path d="M4.00052 66.4492C5.10461 66.4492 6.00104 67.3457 6.00104 68.4497C6.00104 69.5538 5.10461 70.4503 4.00052 70.4503C2.89643 70.4503 2 69.5538 2 68.4497C2 67.3457 2.89643 66.4492 4.00052 66.4492Z" stroke="#A9F2A8" stroke-width="1.65375"/>
<path d="M159.376 196.906C160.48 196.906 161.376 197.803 161.376 198.907C161.376 200.011 160.48 200.907 159.376 200.907C158.271 200.907 157.375 200.011 157.375 198.907C157.375 197.803 158.271 196.906 159.376 196.906Z" stroke="#A9F2A8" stroke-width="1.65375"/>
<path d="M182.203 8.80078L184.486 1.1024" stroke="#A9F2A8" stroke-width="0.96356"/>
<path d="M179.617 3.86328L187.316 6.14593" stroke="#A9F2A8" stroke-width="0.96356"/>
<path d="M12.1172 139.883L14.1182 132.106" stroke="#A9F2A8" stroke-width="0.96356"/>
<path d="M9.35156 135.043L17.1279 137.044" stroke="#A9F2A8" stroke-width="0.96356"/>
<path d="M179.031 174.625L180.596 166.749" stroke="#A9F2A8" stroke-width="0.96356"/>
<path d="M176 169.945L183.876 171.51" stroke="#A9F2A8" stroke-width="0.96356"/>
<path d="M106.913 43.1211C138.776 43.1211 164.646 68.9914 164.646 100.854C164.646 132.718 138.776 158.588 106.913 158.588C75.05 158.588 49.1797 132.718 49.1797 100.854C49.1797 68.9914 75.05 43.1211 106.913 43.1211Z" fill="#A9F2A8"/>
<path d="M106.875 48.582C135.724 48.582 159.148 72.0056 159.148 100.855C159.148 129.705 135.724 153.128 106.875 153.128C78.0251 153.128 54.6016 129.705 54.6016 100.855C54.6016 72.0056 78.0251 48.582 106.875 48.582Z" fill="#30BE2D"/>
<path d="M83.2656 102.775L97.3978 116.586L130.48 83.5039" stroke="white" stroke-width="5.78136"/>
</svg>
