<svg width="30" height="30" viewBox="0 0 30 30" fill="none" xmlns="http://www.w3.org/2000/svg">
<rect width="30" height="30" rx="8" fill="#E7F8F8"/>
<path d="M24.0323 6.58065H21.0697C20.9361 6.24358 20.5813 6 20.1613 6H15.6452C15.2252 6 14.8703 6.24358 14.7368 6.58065H11.7742C11.2406 6.58065 10.8065 6.97142 10.8065 7.45161V11.2258H9.70774C9.31516 11.2258 8.92774 11.3184 8.5871 11.4938L6.84968 12.3871H5V17.6129H7.16032L8.52677 18.4328C8.89903 18.6563 9.33226 18.7742 9.77935 18.7742H10.8065V23.129C10.8065 23.6092 11.2406 24 11.7742 24H24.0323C24.5658 24 25 23.6092 25 23.129V7.45161C25 6.97142 24.5658 6.58065 24.0323 6.58065ZM12.7419 13.5484H13.3871C14.0987 13.5484 14.6774 13.0275 14.6774 12.3871C14.6774 11.7466 14.0987 11.2258 13.3871 11.2258H12.7419V8.32258H14.7368C14.8703 8.65965 15.2252 8.90323 15.6452 8.90323H20.1613C20.5813 8.90323 20.9361 8.65965 21.0697 8.32258H23.0645V22.2581H12.7419V13.5484ZM15.3226 6.87097C15.3226 6.71071 15.4671 6.58065 15.6452 6.58065H20.1613C20.3394 6.58065 20.4839 6.71071 20.4839 6.87097V8.03226C20.4839 8.19252 20.3394 8.32258 20.1613 8.32258H15.6452C15.4671 8.32258 15.3226 8.19252 15.3226 8.03226V6.87097ZM11.4516 7.45161C11.4516 7.29135 11.5961 7.16129 11.7742 7.16129H14.6774V7.74194H12.0968V11.2258H11.4516V7.45161ZM9.77935 18.1935C9.46 18.1935 9.15065 18.1094 8.88484 17.9497L7.35581 17.0323H5.64516V12.9677H7.02129L8.90742 11.9978C9.15064 11.8726 9.42742 11.8065 9.70774 11.8065H13.3871C13.7429 11.8065 14.0323 12.0669 14.0323 12.3871C14.0323 12.7073 13.7429 12.9677 13.3871 12.9677H9.51613V13.2581C9.51613 14.0585 8.79258 14.7097 7.90323 14.7097V15.2903C9.03903 15.2903 9.98129 14.532 10.1384 13.5484H10.8065V18.1935H9.77935ZM24.3548 23.129C24.3548 23.2893 24.2103 23.4194 24.0323 23.4194H11.7742C11.5961 23.4194 11.4516 23.2893 11.4516 23.129V13.5484H12.0968V22.8387H23.7097V7.74194H21.129V7.16129H24.0323C24.2103 7.16129 24.3548 7.29135 24.3548 7.45161V23.129Z" fill="#0B8585"/>
<path d="M16.6139 7.16016H15.9688V7.7408H16.6139V7.16016Z" fill="#0B8585"/>
<path d="M19.8385 7.16016H19.1934V7.7408H19.8385V7.16016Z" fill="#0B8585"/>
<path d="M20.2822 19.4168L19.1935 19.1369L19.1932 18.9897C19.778 18.6222 20.1619 18.0131 20.1619 17.3238V16.7432C20.1619 15.6228 19.1487 14.7109 17.9039 14.7109C16.659 14.7109 15.6458 15.6228 15.6458 16.7432V17.3238C15.6458 18.0125 16.0293 18.6213 16.6135 18.9891V19.1372L15.5251 19.4168C14.8364 19.5942 14.3555 20.1681 14.3555 20.8129V21.6787H21.4522V20.8129C21.4522 20.1681 20.9713 19.5942 20.2822 19.4168ZM16.291 17.3238V16.7432C16.291 15.9428 17.0145 15.2916 17.9039 15.2916C18.7932 15.2916 19.5168 15.9428 19.5168 16.7432V17.3238C19.5168 18.1243 18.7932 18.7755 17.9039 18.7755C17.0145 18.7755 16.291 18.1243 16.291 17.3238ZM18.5377 19.2731L17.9039 20.0334L17.27 19.2731C17.4713 19.3262 17.6839 19.3561 17.9039 19.3561C18.1239 19.3561 18.3364 19.3262 18.5377 19.2731ZM20.8071 21.098H15.0006V20.8129C15.0006 20.4262 15.2893 20.0816 15.7026 19.9754L16.8113 19.6903L17.9039 21.0014L18.9964 19.6903L20.1051 19.9754C20.5184 20.0816 20.8071 20.4262 20.8071 20.8129V21.098Z" fill="#0B8585"/>
<path d="M14.0319 9.48438H13.3867V10.065H14.0319V9.48438Z" fill="#0B8585"/>
<path d="M22.4197 9.48438H14.6777V10.065H22.4197V9.48438Z" fill="#0B8585"/>
<path d="M22.419 10.6445H15.3223V11.2252H22.419V10.6445Z" fill="#0B8585"/>
<path d="M22.419 11.8047H15.3223V12.3853H22.419V11.8047Z" fill="#0B8585"/>
<path d="M22.4186 12.9688H21.7734V13.5494H22.4186V12.9688Z" fill="#0B8585"/>
<path d="M21.1287 12.9688H15.3223V13.5494H21.1287V12.9688Z" fill="#0B8585"/>
</svg>
