<svg width="48" height="48" viewBox="0 0 48 48" fill="none" xmlns="http://www.w3.org/2000/svg">
<circle cx="24" cy="24" r="24" fill="#667EEA"/>
<path d="M35.9993 22.0013H34.666V20.668C34.666 20.3143 34.5255 19.9752 34.2755 19.7252C34.0254 19.4751 33.6863 19.3346 33.3327 19.3346C32.9791 19.3346 32.6399 19.4751 32.3899 19.7252C32.1398 19.9752 31.9993 20.3143 31.9993 20.668V22.0013H30.666C30.3124 22.0013 29.9733 22.1418 29.7232 22.3918C29.4732 22.6419 29.3327 22.981 29.3327 23.3346C29.3327 23.6883 29.4732 24.0274 29.7232 24.2774C29.9733 24.5275 30.3124 24.668 30.666 24.668H31.9993V26.0013C31.9993 26.3549 32.1398 26.6941 32.3899 26.9441C32.6399 27.1942 32.9791 27.3346 33.3327 27.3346C33.6863 27.3346 34.0254 27.1942 34.2755 26.9441C34.5255 26.6941 34.666 26.3549 34.666 26.0013V24.668H35.9993C36.353 24.668 36.6921 24.5275 36.9422 24.2774C37.1922 24.0274 37.3327 23.6883 37.3327 23.3346C37.3327 22.981 37.1922 22.6419 36.9422 22.3918C36.6921 22.1418 36.353 22.0013 35.9993 22.0013ZM25.7327 24.2946C26.4441 23.6788 27.0147 22.9171 27.4058 22.0613C27.7969 21.2055 27.9994 20.2756 27.9993 19.3346C27.9993 17.5665 27.297 15.8708 26.0467 14.6206C24.7965 13.3703 23.1008 12.668 21.3327 12.668C19.5646 12.668 17.8689 13.3703 16.6186 14.6206C15.3684 15.8708 14.666 17.5665 14.666 19.3346C14.666 20.2756 14.8684 21.2055 15.2595 22.0613C15.6506 22.9171 16.2212 23.6788 16.9327 24.2946C15.0662 25.1398 13.4826 26.5047 12.3713 28.226C11.26 29.9474 10.668 31.9524 10.666 34.0013C10.666 34.3549 10.8065 34.6941 11.0565 34.9441C11.3066 35.1942 11.6457 35.3346 11.9993 35.3346C12.353 35.3346 12.6921 35.1942 12.9422 34.9441C13.1922 34.6941 13.3327 34.3549 13.3327 34.0013C13.3327 31.8796 14.1755 29.8447 15.6758 28.3444C17.1761 26.8442 19.211 26.0013 21.3327 26.0013C23.4544 26.0013 25.4892 26.8442 26.9895 28.3444C28.4898 29.8447 29.3327 31.8796 29.3327 34.0013C29.3327 34.3549 29.4732 34.6941 29.7232 34.9441C29.9733 35.1942 30.3124 35.3346 30.666 35.3346C31.0196 35.3346 31.3588 35.1942 31.6088 34.9441C31.8589 34.6941 31.9993 34.3549 31.9993 34.0013C31.9974 31.9524 31.4054 29.9474 30.294 28.226C29.1827 26.5047 27.5992 25.1398 25.7327 24.2946ZM21.3327 23.3346C20.5416 23.3346 19.7682 23.1 19.1104 22.6605C18.4526 22.221 17.9399 21.5963 17.6372 20.8654C17.3344 20.1345 17.2552 19.3302 17.4095 18.5543C17.5639 17.7784 17.9448 17.0656 18.5043 16.5062C19.0637 15.9468 19.7764 15.5658 20.5523 15.4115C21.3282 15.2572 22.1325 15.3364 22.8634 15.6391C23.5943 15.9419 24.219 16.4546 24.6586 17.1124C25.0981 17.7702 25.3327 18.5435 25.3327 19.3346C25.3327 20.3955 24.9113 21.4129 24.1611 22.1631C23.411 22.9132 22.3935 23.3346 21.3327 23.3346Z" fill="#F0F2FD"/>
</svg>
