<svg width="14" height="14" viewBox="0 0 14 14" fill="none" xmlns="http://www.w3.org/2000/svg">
<path d="M12.834 6.16536H7.83398V1.16536C7.83398 0.944351 7.74619 0.732389 7.58991 0.576109C7.43363 0.419829 7.22166 0.332031 7.00065 0.332031C6.77964 0.332031 6.56768 0.419829 6.4114 0.576109C6.25512 0.732389 6.16732 0.944351 6.16732 1.16536V6.16536H1.16732C0.946304 6.16536 0.734343 6.25316 0.578062 6.40944C0.421782 6.56572 0.333984 6.77768 0.333984 6.9987C0.333984 7.21971 0.421782 7.43167 0.578062 7.58795C0.734343 7.74423 0.946304 7.83203 1.16732 7.83203H6.16732V12.832C6.16732 13.053 6.25512 13.265 6.4114 13.4213C6.56768 13.5776 6.77964 13.6654 7.00065 13.6654C7.22166 13.6654 7.43363 13.5776 7.58991 13.4213C7.74619 13.265 7.83398 13.053 7.83398 12.832V7.83203H12.834C13.055 7.83203 13.267 7.74423 13.4232 7.58795C13.5795 7.43167 13.6673 7.21971 13.6673 6.9987C13.6673 6.77768 13.5795 6.56572 13.4232 6.40944C13.267 6.25316 13.055 6.16536 12.834 6.16536Z" fill="#576BC7"/>
</svg>
