<svg width="9" height="14" viewBox="0 0 9 14" fill="none" xmlns="http://www.w3.org/2000/svg">
<path d="M8.01964 6.04345L1.95138 0.393455C1.85171 0.299726 1.73313 0.225332 1.60249 0.174563C1.47184 0.123795 1.3317 0.0976562 1.19017 0.0976562C1.04863 0.0976562 0.908501 0.123795 0.777852 0.174563C0.647202 0.225332 0.528624 0.299726 0.428955 0.393455C0.22927 0.580817 0.117188 0.834269 0.117188 1.09845C0.117188 1.36264 0.22927 1.61609 0.428955 1.80345L5.736 6.80345L0.428955 11.7535C0.22927 11.9408 0.117188 12.1943 0.117188 12.4585C0.117188 12.7226 0.22927 12.9761 0.428955 13.1635C0.52825 13.2579 0.646662 13.3331 0.777328 13.3846C0.907994 13.4361 1.04832 13.4629 1.19017 13.4635C1.33202 13.4629 1.47234 13.4361 1.60301 13.3846C1.73367 13.3331 1.85209 13.2579 1.95138 13.1635L8.01964 7.51345C8.12847 7.41981 8.21532 7.30616 8.27473 7.17966C8.33413 7.05316 8.3648 6.91656 8.3648 6.77845C8.3648 6.64035 8.33413 6.50375 8.27473 6.37725C8.21532 6.25075 8.12847 6.1371 8.01964 6.04345V6.04345Z" fill="#141414"/>
</svg>
