<svg width="9" height="14" viewBox="0 0 9 14" fill="none" xmlns="http://www.w3.org/2000/svg">
<path d="M8.0216 6.04345L1.95333 0.393455C1.85367 0.299726 1.73509 0.225332 1.60444 0.174563C1.47379 0.123795 1.33366 0.0976562 1.19212 0.0976562C1.05059 0.0976562 0.910454 0.123795 0.779805 0.174563C0.649156 0.225332 0.530577 0.299726 0.430908 0.393455C0.231223 0.580817 0.119141 0.834269 0.119141 1.09845C0.119141 1.36264 0.231223 1.61609 0.430908 1.80345L5.73796 6.80345L0.430908 11.7535C0.231223 11.9408 0.119141 12.1943 0.119141 12.4585C0.119141 12.7226 0.231223 12.9761 0.430908 13.1635C0.530203 13.2579 0.648615 13.3331 0.779281 13.3846C0.909948 13.4361 1.05027 13.4629 1.19212 13.4635C1.33397 13.4629 1.4743 13.4361 1.60496 13.3846C1.73563 13.3331 1.85404 13.2579 1.95333 13.1635L8.0216 7.51345C8.13042 7.41981 8.21728 7.30616 8.27668 7.17966C8.33608 7.05316 8.36675 6.91656 8.36675 6.77845C8.36675 6.64035 8.33608 6.50375 8.27668 6.37725C8.21728 6.25075 8.13042 6.1371 8.0216 6.04345Z" fill="#141414"/>
</svg>
