<svg width="22" height="20" viewBox="0 0 22 20" fill="none" xmlns="http://www.w3.org/2000/svg">
<path d="M1 1H7C8.06087 1 9.07828 1.42143 9.82843 2.17157C10.5786 2.92172 11 3.93913 11 5V19C11 18.2044 10.6839 17.4413 10.1213 16.8787C9.55871 16.3161 8.79565 16 8 16H1V1Z" fill="#86879C"/>
<path d="M21 1H15C13.9391 1 12.9217 1.42143 12.1716 2.17157C11.4214 2.92172 11 3.93913 11 5V19C11 18.2044 11.3161 17.4413 11.8787 16.8787C12.4413 16.3161 13.2044 16 14 16H21V1Z" fill="#86879C"/>
<path d="M11 5C11 3.93913 10.5786 2.92172 9.82843 2.17157C9.07828 1.42143 8.06087 1 7 1H1V16H8C8.79565 16 9.55871 16.3161 10.1213 16.8787C10.6839 17.4413 11 18.2044 11 19M11 5V19M11 5C11 3.93913 11.4214 2.92172 12.1716 2.17157C12.9217 1.42143 13.9391 1 15 1H21V16H14C13.2044 16 12.4413 16.3161 11.8787 16.8787C11.3161 17.4413 11 18.2044 11 19" stroke="white" stroke-linecap="round" stroke-linejoin="round"/>
</svg>
