<svg width="25" height="24" viewBox="0 0 25 24" fill="none" xmlns="http://www.w3.org/2000/svg">
<path d="M18.5797 12.4212L12.3997 18.6112C11.5895 19.3312 10.5348 19.7145 9.45139 19.6826C8.36797 19.6507 7.33767 19.206 6.57124 18.4396C5.80482 17.6732 5.36018 16.6429 5.32829 15.5595C5.2964 14.476 5.67966 13.4214 6.39967 12.6112L14.3997 4.61119C14.8773 4.15749 15.5109 3.90452 16.1697 3.90452C16.8284 3.90452 17.462 4.15749 17.9397 4.61119C18.405 5.08278 18.6659 5.71866 18.6659 6.38119C18.6659 7.04372 18.405 7.6796 17.9397 8.15119L11.0397 15.0412C10.9714 15.1147 10.8893 15.1741 10.798 15.2159C10.7068 15.2577 10.6082 15.2811 10.508 15.2849C10.4077 15.2886 10.3076 15.2725 10.2136 15.2376C10.1195 15.2026 10.0332 15.1495 9.95967 15.0812C9.88613 15.0129 9.82676 14.9308 9.78495 14.8396C9.74314 14.7483 9.71971 14.6498 9.716 14.5495C9.71228 14.4492 9.72836 14.3491 9.7633 14.2551C9.79825 14.161 9.85138 14.0747 9.91967 14.0012L15.0497 8.88119C15.238 8.69289 15.3438 8.43749 15.3438 8.17119C15.3438 7.90489 15.238 7.64949 15.0497 7.46119C14.8614 7.27289 14.606 7.1671 14.3397 7.1671C14.0734 7.1671 13.818 7.27289 13.6297 7.46119L8.49967 12.6012C8.24298 12.8559 8.03924 13.1589 7.9002 13.4927C7.76117 13.8265 7.68959 14.1846 7.68959 14.5462C7.68959 14.9078 7.76117 15.2658 7.9002 15.5997C8.03924 15.9335 8.24298 16.2365 8.49967 16.4912C9.02404 16.9907 9.72048 17.2693 10.4447 17.2693C11.1689 17.2693 11.8653 16.9907 12.3897 16.4912L19.2797 9.59119C20.0746 8.73814 20.5073 7.60986 20.4867 6.44405C20.4662 5.27825 19.9939 4.16594 19.1694 3.34146C18.3449 2.51698 17.2326 2.04471 16.0668 2.02414C14.901 2.00357 13.7727 2.43631 12.9197 3.23119L4.91967 11.2312C3.84087 12.426 3.2647 13.991 3.3112 15.6002C3.35771 17.2093 4.0233 18.7384 5.16931 19.869C6.31532 20.9995 7.85335 21.6442 9.46296 21.6689C11.0726 21.6935 12.6296 21.0961 13.8097 20.0012L19.9997 13.8212C20.0929 13.7279 20.1669 13.6173 20.2173 13.4954C20.2678 13.3736 20.2938 13.243 20.2938 13.1112C20.2938 12.9793 20.2678 12.8488 20.2173 12.7269C20.1669 12.6051 20.0929 12.4944 19.9997 12.4012C19.9064 12.3079 19.7957 12.234 19.6739 12.1835C19.5521 12.1331 19.4215 12.1071 19.2897 12.1071C19.1578 12.1071 19.0272 12.1331 18.9054 12.1835C18.7836 12.234 18.6729 12.3079 18.5797 12.4012V12.4212Z" fill="#BFBFBF"/>
</svg>
