<svg width="23" height="23" viewBox="0 0 23 23" fill="none" xmlns="http://www.w3.org/2000/svg">
<g clip-path="url(#clip0_4113_42063)">
<path d="M13.8897 7.26888L8.59148 12.568C8.50201 12.6544 8.43065 12.7578 8.38155 12.8721C8.33246 12.9864 8.30662 13.1093 8.30554 13.2337C8.30446 13.358 8.32816 13.4814 8.37526 13.5965C8.42236 13.7116 8.49191 13.8162 8.57987 13.9042C8.66782 13.9921 8.77241 14.0617 8.88753 14.1088C9.00265 14.1559 9.126 14.1796 9.25038 14.1785C9.37476 14.1774 9.49768 14.1516 9.61196 14.1025C9.72625 14.0534 9.82962 13.982 9.91603 13.8926L15.2152 8.59436C15.7422 8.0673 16.0383 7.35245 16.0383 6.60707C16.0383 5.8617 15.7422 5.14685 15.2152 4.61978C14.6881 4.09272 13.9732 3.79662 13.2279 3.79662C12.4825 3.79662 11.7676 4.09272 11.2406 4.61978L5.94145 9.91891C5.4975 10.3518 5.14393 10.8685 4.90125 11.4391C4.65857 12.0097 4.5316 12.6229 4.52772 13.2429C4.52383 13.863 4.64311 14.4776 4.87862 15.0512C5.11413 15.6248 5.4612 16.1459 5.89968 16.5844C6.33816 17.0228 6.85934 17.3698 7.43297 17.6052C8.0066 17.8406 8.62127 17.9598 9.24133 17.9558C9.86138 17.9519 10.4745 17.8248 11.045 17.5821C11.6156 17.3393 12.1323 16.9857 12.5651 16.5417L17.8642 11.2435L19.1888 12.568L13.8897 17.8671C13.2807 18.4761 12.5579 18.9591 11.7623 19.2886C10.9667 19.6182 10.114 19.7878 9.25282 19.7878C8.39167 19.7878 7.53896 19.6182 6.74337 19.2886C5.94777 18.9591 5.22488 18.4761 4.61596 17.8671C4.00704 17.2582 3.52402 16.5353 3.19447 15.7397C2.86493 14.9441 2.69531 14.0914 2.69531 13.2303C2.69531 12.3691 2.86493 11.5164 3.19447 10.7208C3.52402 9.92524 4.00704 9.20235 4.61596 8.59343L9.91603 3.29524C10.7994 2.44206 11.9825 1.96997 13.2105 1.98065C14.4386 1.99132 15.6133 2.4839 16.4817 3.35229C17.3501 4.22068 17.8427 5.39541 17.8534 6.62346C17.864 7.85151 17.3919 9.03462 16.5388 9.91797L11.2406 15.219C10.9795 15.4799 10.6697 15.687 10.3286 15.8282C9.98758 15.9694 9.62207 16.042 9.25295 16.042C8.88383 16.042 8.51834 15.9692 8.17734 15.8279C7.83633 15.6866 7.5265 15.4795 7.26552 15.2185C7.00455 14.9575 6.79754 14.6476 6.65633 14.3066C6.51512 13.9655 6.44246 13.6 6.4425 13.2309C6.44254 12.8618 6.51529 12.4963 6.65658 12.1553C6.79788 11.8143 7.00496 11.5044 7.26599 11.2435L12.5651 5.94433L13.8897 7.26888Z" fill="#8C8C8C"/>
</g>
<defs>
<clipPath id="clip0_4113_42063">
<rect width="22.4817" height="22.4817" fill="white"/>
</clipPath>
</defs>
</svg>
