<svg width="56" height="56" viewBox="0 0 56 56" fill="none" xmlns="http://www.w3.org/2000/svg">
<path d="M28 0L52.2487 14V42L28 56L3.75129 42V14L28 0Z" fill="#E6DBFD"/>
<path d="M20.58 38V18.2H29.25C31.65 18.2 33.42 18.67 34.56 19.61C35.7 20.55 36.27 21.88 36.27 23.6C36.27 24.66 35.95 25.6 35.31 26.42C34.67 27.24 33.73 27.76 32.49 27.98V28.01C33.87 28.21 34.93 28.73 35.67 29.57C36.41 30.41 36.78 31.41 36.78 32.57C36.78 34.27 36.16 35.6 34.92 36.56C33.7 37.52 31.91 38 29.55 38H20.58ZM24.6 34.88H29.19C30.31 34.88 31.14 34.65 31.68 34.19C32.22 33.73 32.49 33.09 32.49 32.27C32.49 31.43 32.22 30.79 31.68 30.35C31.14 29.91 30.31 29.69 29.19 29.69H24.6V34.88ZM24.6 26.51H28.71C30.89 26.51 31.98 25.66 31.98 23.96C31.98 22.26 30.89 21.41 28.71 21.41H24.6V26.51Z" fill="#6B4BAF"/>
</svg>
