<svg width="21" height="21" viewBox="0 0 21 21" fill="none" xmlns="http://www.w3.org/2000/svg">
<path d="M19.0678 7.99637L19.0825 7.99852L19.0974 7.99979C19.1938 8.00804 19.2857 8.04408 19.362 8.10354C19.4336 8.15928 19.4885 8.23335 19.5211 8.31773C19.5407 8.40387 19.5371 8.49379 19.5106 8.57829C19.4823 8.66857 19.429 8.74895 19.3568 8.81011L19.3441 8.82087L19.3321 8.83245L15.2021 12.8324L15.0115 13.017L15.0575 13.2783L16.0576 18.9583L16.0575 18.9583L16.0588 18.9651C16.0767 19.0589 16.0673 19.1558 16.0319 19.2444C15.9964 19.333 15.9364 19.4096 15.8588 19.4651L15.8568 19.4666C15.771 19.5287 15.6677 19.562 15.5618 19.5616L15.5583 19.5616C15.4838 19.5619 15.4105 19.5427 15.3457 19.5061L15.3392 19.5025L15.3326 19.499L10.2326 16.819L10.0009 16.6972L9.76878 16.8183L4.64878 19.4883L4.64576 19.4899C4.56365 19.5334 4.47102 19.5532 4.37828 19.547C4.28555 19.5408 4.19637 19.5089 4.12076 19.4549C4.04338 19.3993 3.98347 19.3228 3.94809 19.2344C3.91265 19.1458 3.9033 19.0489 3.92115 18.9551L3.9212 18.9552L3.9224 18.9483L4.9224 13.2683L4.9684 13.007L4.77783 12.8224L0.650979 8.8255C0.587859 8.76172 0.543048 8.68212 0.521276 8.59504C0.499634 8.50847 0.50156 8.41771 0.526813 8.33218C0.556107 8.24513 0.608824 8.16781 0.679213 8.10871C0.7508 8.04862 0.837799 8.00979 0.930338 7.99663L0.930339 7.99664L0.933 7.99625L6.623 7.15625L6.88216 7.11799L6.99823 6.88313L9.54823 1.72313L9.54824 1.72314L9.54998 1.71955C9.59092 1.63502 9.65485 1.56373 9.73443 1.51384C9.81402 1.46396 9.90605 1.4375 9.99998 1.4375C10.0939 1.4375 10.1859 1.46396 10.2655 1.51384C10.3451 1.56373 10.409 1.63502 10.45 1.71955L10.45 1.71956L10.4516 1.72278L13.0016 6.89278L13.1178 7.12845L13.3778 7.16637L19.0678 7.99637ZM14.1976 12.531L14.1976 12.531L14.2029 12.5258L17.2029 9.53575L17.9109 8.83011L16.9217 8.68678L12.7117 8.07678L12.7117 8.07677L12.7089 8.07638C12.6279 8.06511 12.5509 8.03415 12.4846 7.9862C12.4184 7.93826 12.3649 7.8748 12.3289 7.80138L12.3286 7.80083L10.4486 3.98083L9.98825 3.04545L9.54698 3.98997L7.76934 7.79492C7.73334 7.86684 7.68052 7.92903 7.61534 7.9762C7.54909 8.02415 7.47209 8.05511 7.39109 8.06638L7.39109 8.06637L7.38828 8.06678L3.17828 8.67678L2.19108 8.81982L2.89642 9.52516L5.89642 12.5252L5.89638 12.5252L5.90236 12.531C5.961 12.5877 6.00487 12.6579 6.03014 12.7355C6.05542 12.8131 6.06133 12.8956 6.04736 12.976L6.0472 12.9769L5.3272 17.1669L5.15451 18.1719L6.05478 17.693L9.81478 15.693L9.81498 15.6929C9.88732 15.6544 9.96802 15.6343 10.05 15.6343C10.1319 15.6343 10.2126 15.6544 10.285 15.6929L10.2852 15.693L14.0452 17.693L14.9454 18.1719L14.7728 17.1669L14.0528 12.9769L14.0526 12.976C14.0386 12.8956 14.0445 12.8131 14.0698 12.7355C14.0951 12.6579 14.139 12.5877 14.1976 12.531Z" fill="#141414" stroke="#454545"/>
</svg>
