<svg width="24" height="25" viewBox="0 0 24 25" fill="none" xmlns="http://www.w3.org/2000/svg">
<path d="M16.4579 9.95313C16.4579 9.4935 16.3676 9.03837 16.1921 8.61373C16.0167 8.18909 15.7595 7.80326 15.4353 7.47825C15.1111 7.15325 14.7262 6.89544 14.3027 6.71955C13.8791 6.54366 13.4251 6.45312 12.9666 6.45312H8.47796C8.21341 6.45312 7.95969 6.55848 7.77263 6.74602C7.58556 6.93355 7.48047 7.18791 7.48047 7.45313V17.4531C7.48047 17.7183 7.58556 17.9727 7.77263 18.1602C7.95969 18.3478 8.21341 18.4531 8.47796 18.4531H12.9666C13.6616 18.4562 14.3415 18.2506 14.9189 17.8629C15.4963 17.4753 15.9448 16.9232 16.2066 16.2779C16.4683 15.6325 16.5315 14.9234 16.3878 14.2417C16.2442 13.5601 15.9003 12.9372 15.4005 12.4531C15.734 12.128 15.9993 11.7394 16.1809 11.3101C16.3625 10.8808 16.4566 10.4194 16.4579 9.95313ZM12.9666 16.4531H9.47544V13.4531H12.9666C13.3635 13.4531 13.744 13.6112 14.0246 13.8925C14.3052 14.1738 14.4629 14.5553 14.4629 14.9531C14.4629 15.351 14.3052 15.7325 14.0246 16.0138C13.744 16.2951 13.3635 16.4531 12.9666 16.4531ZM12.9666 11.4531H9.47544V8.45313H12.9666C13.3635 8.45313 13.744 8.61116 14.0246 8.89246C14.3052 9.17377 14.4629 9.5553 14.4629 9.95313C14.4629 10.351 14.3052 10.7325 14.0246 11.0138C13.744 11.2951 13.3635 11.4531 12.9666 11.4531Z" fill="#BFBFBF"/>
</svg>
