<svg width="56" height="56" viewBox="0 0 56 56" fill="none" xmlns="http://www.w3.org/2000/svg">
<path d="M28 0L52.2487 14V42L28 56L3.75129 42V14L28 0Z" fill="#FFEBC2"/>
<path d="M28.97 22.7C30.31 22.7 31.44 22.9 32.36 23.3C33.3 23.68 34.05 24.21 34.61 24.89C35.19 25.55 35.6 26.29 35.84 27.11L32 28.49C31.8 27.59 31.46 26.91 30.98 26.45C30.5 25.99 29.85 25.76 29.03 25.76C28.27 25.76 27.62 25.94 27.08 26.3C26.54 26.64 26.13 27.17 25.85 27.89C25.57 28.59 25.43 29.47 25.43 30.53C25.43 31.59 25.57 32.47 25.85 33.17C26.15 33.87 26.57 34.39 27.11 34.73C27.67 35.07 28.32 35.24 29.06 35.24C29.66 35.24 30.17 35.14 30.59 34.94C31.01 34.72 31.35 34.41 31.61 34.01C31.89 33.61 32.08 33.13 32.18 32.57L35.9 33.77C35.68 34.67 35.27 35.46 34.67 36.14C34.07 36.82 33.3 37.35 32.36 37.73C31.42 38.11 30.33 38.3 29.09 38.3C27.55 38.3 26.19 37.99 25.01 37.37C23.83 36.75 22.92 35.86 22.28 34.7C21.64 33.54 21.32 32.14 21.32 30.5C21.32 28.86 21.64 27.46 22.28 26.3C22.92 25.14 23.82 24.25 24.98 23.63C26.14 23.01 27.47 22.7 28.97 22.7Z" fill="#916100"/>
</svg>
