<svg width="22" height="21" viewBox="0 0 22 21" fill="none" xmlns="http://www.w3.org/2000/svg">
<path d="M11.29 4.21189L12.79 5.71189C12.883 5.80562 12.9936 5.88001 13.1154 5.93078C13.2373 5.98155 13.368 6.00769 13.5 6.00769C13.632 6.00769 13.7627 5.98155 13.8846 5.93078C14.0064 5.88001 14.117 5.80562 14.21 5.71189C14.3618 5.5526 14.4567 5.3477 14.4803 5.12894C14.5038 4.91019 14.4545 4.68979 14.34 4.50189H18C18.2652 4.50189 18.5196 4.39654 18.7071 4.209C18.8946 4.02146 19 3.76711 19 3.50189C19 3.23668 18.8946 2.98232 18.7071 2.79479C18.5196 2.60725 18.2652 2.50189 18 2.50189H14.34C14.4545 2.31399 14.5038 2.09359 14.4803 1.87484C14.4567 1.65609 14.3618 1.45119 14.21 1.29189C14.117 1.19816 14.0064 1.12377 13.8846 1.073C13.7627 1.02223 13.632 0.996094 13.5 0.996094C13.368 0.996094 13.2373 1.02223 13.1154 1.073C12.9936 1.12377 12.883 1.19816 12.79 1.29189L11.29 2.79189C11.199 2.887 11.1276 2.99914 11.08 3.12189C10.98 3.36535 10.98 3.63843 11.08 3.88189C11.1276 4.00464 11.199 4.11679 11.29 4.21189ZM21.92 8.12189C21.8724 7.99914 21.801 7.887 21.71 7.79189L20.21 6.29189C20.117 6.19816 20.0064 6.12377 19.8846 6.073C19.7627 6.02223 19.632 5.99609 19.5 5.99609C19.368 5.99609 19.2373 6.02223 19.1154 6.073C18.9936 6.12377 18.883 6.19816 18.79 6.29189C18.6382 6.45119 18.5433 6.65609 18.5197 6.87484C18.4962 7.0936 18.5455 7.31399 18.66 7.50189H15C14.7348 7.50189 14.4804 7.60725 14.2929 7.79479C14.1054 7.98232 14 8.23668 14 8.50189C14 8.76711 14.1054 9.02146 14.2929 9.209C14.4804 9.39653 14.7348 9.50189 15 9.50189H18.66C18.5455 9.68979 18.4962 9.91019 18.5197 10.1289C18.5433 10.3477 18.6382 10.5526 18.79 10.7119C18.883 10.8056 18.9936 10.88 19.1154 10.9308C19.2373 10.9816 19.368 11.0077 19.5 11.0077C19.632 11.0077 19.7627 10.9816 19.8846 10.9308C20.0064 10.88 20.117 10.8056 20.21 10.7119L21.71 9.21189C21.801 9.11679 21.8724 9.00464 21.92 8.88189C22.02 8.63843 22.02 8.36535 21.92 8.12189ZM10 9.00189C9.20887 9.00189 8.43552 9.23649 7.77772 9.67601C7.11992 10.1155 6.60723 10.7403 6.30448 11.4712C6.00173 12.2021 5.92252 13.0063 6.07686 13.7823C6.2312 14.5582 6.61216 15.2709 7.17157 15.8303C7.73098 16.3897 8.44372 16.7707 9.21964 16.925C9.99556 17.0794 10.7998 17.0002 11.5307 16.6974C12.2616 16.3947 12.8864 15.882 13.3259 15.2242C13.7654 14.5664 14 13.793 14 13.0019C14 11.941 13.5786 10.9236 12.8284 10.1735C12.0783 9.42332 11.0609 9.00189 10 9.00189ZM10 15.0019C9.60444 15.0019 9.21776 14.8846 8.88886 14.6648C8.55996 14.4451 8.30362 14.1327 8.15224 13.7673C8.00087 13.4018 7.96126 12.9997 8.03843 12.6117C8.1156 12.2237 8.30608 11.8674 8.58579 11.5877C8.86549 11.308 9.22186 11.1175 9.60982 11.0403C9.99778 10.9632 10.3999 11.0028 10.7654 11.1541C11.1308 11.3055 11.4432 11.5619 11.6629 11.8908C11.8827 12.2197 12 12.6063 12 13.0019C12 13.5323 11.7893 14.041 11.4142 14.4161C11.0391 14.7912 10.5304 15.0019 10 15.0019ZM19 12.0019C18.7348 12.0019 18.4804 12.1072 18.2929 12.2948C18.1054 12.4823 18 12.7367 18 13.0019V18.0019C18 18.2671 17.8946 18.5215 17.7071 18.709C17.5196 18.8965 17.2652 19.0019 17 19.0019H3C2.73478 19.0019 2.48043 18.8965 2.29289 18.709C2.10536 18.5215 2 18.2671 2 18.0019V10.0019C2 9.73668 2.10536 9.48232 2.29289 9.29479C2.48043 9.10725 2.73478 9.00189 3 9.00189H5C5.21932 9.01262 5.43607 8.95087 5.6168 8.82617C5.79753 8.70146 5.93219 8.52074 6 8.31189L6.54 6.69189C6.60251 6.49928 6.72202 6.33018 6.88273 6.20698C7.04344 6.08377 7.23776 6.01225 7.44 6.00189H9C9.26522 6.00189 9.51957 5.89653 9.70711 5.709C9.89464 5.52146 10 5.26711 10 5.00189C10 4.73668 9.89464 4.48232 9.70711 4.29479C9.51957 4.10725 9.26522 4.00189 9 4.00189H7.44C6.80861 4.00167 6.19324 4.20066 5.68152 4.57053C5.16981 4.9404 4.78784 5.46229 4.59 6.06189L4.28 7.00189H3C2.20435 7.00189 1.44129 7.31796 0.87868 7.88057C0.31607 8.44318 0 9.20624 0 10.0019V18.0019C0 18.7975 0.31607 19.5606 0.87868 20.1232C1.44129 20.6858 2.20435 21.0019 3 21.0019H17C17.7956 21.0019 18.5587 20.6858 19.1213 20.1232C19.6839 19.5606 20 18.7975 20 18.0019V13.0019C20 12.7367 19.8946 12.4823 19.7071 12.2948C19.5196 12.1072 19.2652 12.0019 19 12.0019Z" fill="#667EEA"/>
</svg>
