<svg width="20" height="15" viewBox="0 0 20 15" fill="none" xmlns="http://www.w3.org/2000/svg">
<path d="M1.02483 2.45312H18.9796C19.2441 2.45312 19.4978 2.34777 19.6849 2.16023C19.872 1.9727 19.9771 1.71834 19.9771 1.45312C19.9771 1.18791 19.872 0.933555 19.6849 0.746018C19.4978 0.558482 19.2441 0.453125 18.9796 0.453125H1.02483C0.76028 0.453125 0.506565 0.558482 0.319501 0.746018C0.132436 0.933555 0.0273438 1.18791 0.0273438 1.45312C0.0273438 1.71834 0.132436 1.9727 0.319501 2.16023C0.506565 2.34777 0.76028 2.45312 1.02483 2.45312V2.45312ZM5.01477 4.45312C4.75022 4.45312 4.49651 4.55848 4.30944 4.74602C4.12238 4.93355 4.01729 5.18791 4.01729 5.45312C4.01729 5.71834 4.12238 5.9727 4.30944 6.16023C4.49651 6.34777 4.75022 6.45312 5.01477 6.45312H14.9896C15.2542 6.45312 15.5079 6.34777 15.695 6.16023C15.882 5.9727 15.9871 5.71834 15.9871 5.45312C15.9871 5.18791 15.882 4.93355 15.695 4.74602C15.5079 4.55848 15.2542 4.45312 14.9896 4.45312H5.01477ZM18.9796 8.45312H1.02483C0.76028 8.45312 0.506565 8.55848 0.319501 8.74602C0.132436 8.93355 0.0273438 9.18791 0.0273438 9.45312C0.0273438 9.71834 0.132436 9.9727 0.319501 10.1602C0.506565 10.3478 0.76028 10.4531 1.02483 10.4531H18.9796C19.2441 10.4531 19.4978 10.3478 19.6849 10.1602C19.872 9.9727 19.9771 9.71834 19.9771 9.45312C19.9771 9.18791 19.872 8.93355 19.6849 8.74602C19.4978 8.55848 19.2441 8.45312 18.9796 8.45312ZM14.9896 12.4531H5.01477C4.75022 12.4531 4.49651 12.5585 4.30944 12.746C4.12238 12.9336 4.01729 13.1879 4.01729 13.4531C4.01729 13.7183 4.12238 13.9727 4.30944 14.1602C4.49651 14.3478 4.75022 14.4531 5.01477 14.4531H14.9896C15.2542 14.4531 15.5079 14.3478 15.695 14.1602C15.882 13.9727 15.9871 13.7183 15.9871 13.4531C15.9871 13.1879 15.882 12.9336 15.695 12.746C15.5079 12.5585 15.2542 12.4531 14.9896 12.4531Z" fill="#BFBFBF"/>
</svg>
