<svg width="24" height="24" viewBox="0 0 24 24" fill="none" xmlns="http://www.w3.org/2000/svg">
<path d="M11.4574 4.76591H14.5429V4.01152C14.5429 3.80481 14.4523 3.61607 14.3061 3.47948L14.3076 3.4781C14.1613 3.34198 13.9599 3.25758 13.7384 3.25758H12.2623C12.0417 3.25758 11.8403 3.34244 11.6946 3.47948H11.6918C11.5475 3.61467 11.4574 3.80358 11.4574 4.01152L11.4574 4.76591ZM10.439 9.79009L12.5262 7.83459C12.7882 7.58906 13.2125 7.58906 13.4745 7.83459L15.5612 9.79009C15.8232 10.0356 15.8232 10.4337 15.5612 10.6788L13.4745 12.6347C13.2125 12.8803 12.7882 12.8803 12.5262 12.6347L10.439 10.6788C10.1775 10.4337 10.1775 10.0356 10.439 9.79009ZM13.0002 9.16734L11.8617 10.2346L13.0002 11.3015L14.1391 10.2346L13.0002 9.16734ZM11.7509 17.7885V18.6942C11.7509 19.041 11.4504 19.3226 11.0803 19.3226C10.7097 19.3226 10.4092 19.041 10.4092 18.6942V17.7885H9.24428V19.9769H16.7565V17.7885H11.7509ZM9.24411 16.5315H16.7564V15.7031H9.24411V16.5315ZM18.0978 17.1519V20.6057C18.0978 20.9525 17.7974 21.2341 17.4268 21.2341H8.57346C8.20288 21.2341 7.90289 20.9525 7.90289 20.6057V15.0743C7.90289 14.727 8.20288 14.4454 8.57346 14.4454H17.4268C17.7973 14.4454 18.0978 14.727 18.0978 15.0743V17.1519ZM21.049 19.9769H21.854C22.0759 19.9769 22.2785 19.8921 22.4247 19.755C22.569 19.6194 22.659 19.4309 22.659 19.223V17.8187C22.659 17.1358 22.4222 16.6328 22.0589 16.2949C21.7841 16.0395 21.4315 15.869 21.0492 15.7789V19.977L21.049 19.9769ZM21.854 21.2344H21.049V21.2973C21.049 22.0386 20.7241 22.7145 20.2008 23.2049L20.2022 23.2063C19.6797 23.6955 18.9587 24 18.1651 24H7.83536C7.04376 24 6.3236 23.6955 5.80055 23.2063H5.79809C5.27605 22.7166 4.95116 22.041 4.95116 21.2973V21.2344H4.14665C3.55745 21.2344 3.02166 21.008 2.63259 20.6439C2.24253 20.2783 2 19.7753 2 19.2232V17.8189C2 16.7695 2.3935 15.9688 2.99823 15.4064C3.53305 14.9092 4.22572 14.6101 4.95099 14.4976V11.7467C4.95099 9.9694 5.66118 8.33399 6.66418 7.10048C7.64065 5.8989 8.91614 5.06731 10.116 4.83298V4.01121C10.116 3.46 10.358 2.95695 10.7471 2.59188L10.7456 2.5905C11.1342 2.22634 11.671 2 12.2622 2H13.7382C14.3269 2 14.8632 2.22635 15.252 2.5905H15.2544C15.643 2.95465 15.8845 3.45768 15.8845 4.0112V4.83297C17.0844 5.0673 18.3593 5.8989 19.3358 7.10047C20.339 8.33383 21.049 9.96919 21.049 11.7467V14.4976C21.7749 14.6101 22.4674 14.9092 23.0018 15.4064C23.6067 15.9688 24 16.7695 24 17.8189V19.2232C24 19.7753 23.7576 20.2783 23.3674 20.6439C22.9788 21.008 22.4428 21.2344 21.8537 21.2344H21.854ZM4.14655 19.9769H4.95105V15.7789C4.56852 15.8692 4.21613 16.0396 3.94134 16.2949C3.57797 16.6328 3.34166 17.1358 3.34166 17.8187V19.223C3.34166 19.4309 3.43123 19.6194 3.57599 19.755C3.72173 19.8916 3.92413 19.9769 4.14666 19.9769L4.14655 19.9769ZM15.2133 6.02323H10.7864C9.81813 6.02323 8.64254 6.7365 7.72766 7.86182C6.88743 8.89506 6.29253 10.2631 6.29253 11.7469V21.2975C6.29253 21.6944 6.46643 22.0559 6.74595 22.3179L6.74497 22.3188C7.02449 22.5803 7.41029 22.7428 7.83475 22.7428H18.1645C18.588 22.7428 18.9738 22.5799 19.2533 22.3179H19.2558C19.534 22.0572 19.7068 21.6961 19.7068 21.2976V11.7469C19.7068 10.2633 19.1119 8.89523 18.2717 7.86184C17.3568 6.73651 16.1812 6.02325 15.2129 6.02325L15.2133 6.02323Z" fill="#BFBFBF"/>
</svg>
