<svg width="22" height="22" viewBox="0 0 22 22" fill="none" xmlns="http://www.w3.org/2000/svg">
<path d="M20.9992 17.8785L13.6068 11.1441L20.3412 3.75166C20.6389 3.4249 20.7946 2.99326 20.774 2.55171C20.7534 2.11016 20.5583 1.69487 20.2315 1.39719C19.9048 1.09951 19.4731 0.94383 19.0316 0.964396C18.59 0.984962 18.1747 1.18009 17.8771 1.50685L11.1427 8.89926L3.75025 2.16484C3.42348 1.86716 2.99185 1.71148 2.5503 1.73205C2.10875 1.75261 1.69346 1.94774 1.39578 2.27451C1.0981 2.60127 0.942419 3.03291 0.962985 3.47445C0.983551 3.916 1.17868 4.3313 1.50544 4.62898L8.89785 11.3634L2.16343 18.7558C1.86575 19.0826 1.71007 19.5142 1.73064 19.9557C1.7512 20.3973 1.94633 20.8126 2.2731 21.1103C2.59986 21.4079 3.03149 21.5636 3.47304 21.5431C3.91459 21.5225 4.32989 21.3274 4.62757 21.0006L11.362 13.6082L18.7544 20.3426C19.0811 20.6403 19.5128 20.796 19.9543 20.7754C20.3959 20.7548 20.8112 20.5597 21.1089 20.2329C21.4065 19.9062 21.5622 19.4746 21.5417 19.033C21.5211 18.5915 21.326 18.1762 20.9992 17.8785Z" fill="#595959"/>
</svg>
