<svg width="57" height="57" viewBox="0 0 57 57" fill="none" xmlns="http://www.w3.org/2000/svg">
<path d="M37.9992 34.8785L30.6068 28.1441L37.3412 20.7517C37.6389 20.4249 37.7946 19.9933 37.774 19.5517C37.7534 19.1102 37.5583 18.6949 37.2315 18.3972C36.9048 18.0995 36.4731 17.9438 36.0316 17.9644C35.59 17.985 35.1747 18.1801 34.8771 18.5069L28.1427 25.8993L20.7502 19.1648C20.4235 18.8672 19.9919 18.7115 19.5503 18.732C19.1088 18.7526 18.6935 18.9477 18.3958 19.2745C18.0981 19.6013 17.9424 20.0329 17.963 20.4745C17.9836 20.916 18.1787 21.3313 18.5054 21.629L25.8978 28.3634L19.1634 35.7558C18.8658 36.0826 18.7101 36.5142 18.7306 36.9557C18.7512 37.3973 18.9463 37.8126 19.2731 38.1103C19.5999 38.4079 20.0315 38.5636 20.473 38.5431C20.9146 38.5225 21.3299 38.3274 21.6276 38.0006L28.362 30.6082L35.7544 37.3426C36.0812 37.6403 36.5128 37.796 36.9543 37.7754C37.3959 37.7548 37.8112 37.5597 38.1089 37.2329C38.4065 36.9062 38.5622 36.4746 38.5417 36.033C38.5211 35.5915 38.326 35.1762 37.9992 34.8785Z" fill="#595959"/>
</svg>
