<svg width="18" height="18" viewBox="0 0 18 18" fill="none" xmlns="http://www.w3.org/2000/svg">
<path d="M8.99996 10.668C9.16478 10.668 9.32589 10.6191 9.46294 10.5275C9.59998 10.436 9.70679 10.3058 9.76986 10.1535C9.83293 10.0013 9.84944 9.83371 9.81728 9.67206C9.78513 9.51041 9.70576 9.36192 9.58922 9.24538C9.47267 9.12884 9.32419 9.04947 9.16253 9.01731C9.00088 8.98516 8.83333 9.00166 8.68106 9.06474C8.52878 9.12781 8.39864 9.23462 8.30707 9.37166C8.2155 9.5087 8.16663 9.66982 8.16663 9.83464C8.16663 10.0556 8.25442 10.2676 8.4107 10.4239C8.56698 10.5802 8.77895 10.668 8.99996 10.668ZM13.1666 10.668C13.3314 10.668 13.4926 10.6191 13.6296 10.5275C13.7666 10.436 13.8735 10.3058 13.9365 10.1535C13.9996 10.0013 14.0161 9.83371 13.9839 9.67206C13.9518 9.51041 13.8724 9.36192 13.7559 9.24538C13.6393 9.12884 13.4909 9.04947 13.3292 9.01731C13.1676 8.98516 13 9.00166 12.8477 9.06474C12.6955 9.12781 12.5653 9.23462 12.4737 9.37166C12.3822 9.5087 12.3333 9.66982 12.3333 9.83464C12.3333 10.0556 12.4211 10.2676 12.5774 10.4239C12.7337 10.5802 12.9456 10.668 13.1666 10.668ZM8.99996 14.0013C9.16478 14.0013 9.32589 13.9524 9.46294 13.8609C9.59998 13.7693 9.70679 13.6391 9.76986 13.4869C9.83293 13.3346 9.84944 13.167 9.81728 13.0054C9.78513 12.8437 9.70576 12.6953 9.58922 12.5787C9.47267 12.4622 9.32419 12.3828 9.16253 12.3506C9.00088 12.3185 8.83333 12.335 8.68106 12.3981C8.52878 12.4611 8.39864 12.568 8.30707 12.705C8.2155 12.842 8.16663 13.0032 8.16663 13.168C8.16663 13.389 8.25442 13.6009 8.4107 13.7572C8.56698 13.9135 8.77895 14.0013 8.99996 14.0013ZM13.1666 14.0013C13.3314 14.0013 13.4926 13.9524 13.6296 13.8609C13.7666 13.7693 13.8735 13.6391 13.9365 13.4869C13.9996 13.3346 14.0161 13.167 13.9839 13.0054C13.9518 12.8437 13.8724 12.6953 13.7559 12.5787C13.6393 12.4622 13.4909 12.3828 13.3292 12.3506C13.1676 12.3185 13 12.335 12.8477 12.3981C12.6955 12.4611 12.5653 12.568 12.4737 12.705C12.3822 12.842 12.3333 13.0032 12.3333 13.168C12.3333 13.389 12.4211 13.6009 12.5774 13.7572C12.7337 13.9135 12.9456 14.0013 13.1666 14.0013ZM4.83329 10.668C4.99811 10.668 5.15923 10.6191 5.29627 10.5275C5.43331 10.436 5.54012 10.3058 5.60319 10.1535C5.66627 10.0013 5.68277 9.83371 5.65061 9.67206C5.61846 9.51041 5.53909 9.36192 5.42255 9.24538C5.306 9.12884 5.15752 9.04947 4.99587 9.01731C4.83422 8.98516 4.66666 9.00166 4.51439 9.06474C4.36212 9.12781 4.23197 9.23462 4.1404 9.37166C4.04883 9.5087 3.99996 9.66982 3.99996 9.83464C3.99996 10.0556 4.08776 10.2676 4.24404 10.4239C4.40032 10.5802 4.61228 10.668 4.83329 10.668ZM14.8333 2.33464H14V1.5013C14 1.28029 13.9122 1.06833 13.7559 0.912046C13.5996 0.755766 13.3876 0.667969 13.1666 0.667969C12.9456 0.667969 12.7337 0.755766 12.5774 0.912046C12.4211 1.06833 12.3333 1.28029 12.3333 1.5013V2.33464H5.66663V1.5013C5.66663 1.28029 5.57883 1.06833 5.42255 0.912046C5.26627 0.755766 5.05431 0.667969 4.83329 0.667969C4.61228 0.667969 4.40032 0.755766 4.24404 0.912046C4.08776 1.06833 3.99996 1.28029 3.99996 1.5013V2.33464H3.16663C2.50358 2.33464 1.8677 2.59803 1.39886 3.06687C0.930018 3.53571 0.666626 4.17159 0.666626 4.83464V14.8346C0.666626 15.4977 0.930018 16.1336 1.39886 16.6024C1.8677 17.0712 2.50358 17.3346 3.16663 17.3346H14.8333C15.4963 17.3346 16.1322 17.0712 16.6011 16.6024C17.0699 16.1336 17.3333 15.4977 17.3333 14.8346V4.83464C17.3333 4.17159 17.0699 3.53571 16.6011 3.06687C16.1322 2.59803 15.4963 2.33464 14.8333 2.33464V2.33464ZM15.6666 14.8346C15.6666 15.0556 15.5788 15.2676 15.4225 15.4239C15.2663 15.5802 15.0543 15.668 14.8333 15.668H3.16663C2.94561 15.668 2.73365 15.5802 2.57737 15.4239C2.42109 15.2676 2.33329 15.0556 2.33329 14.8346V7.33464H15.6666V14.8346ZM15.6666 5.66797H2.33329V4.83464C2.33329 4.61362 2.42109 4.40166 2.57737 4.24538C2.73365 4.0891 2.94561 4.0013 3.16663 4.0013H14.8333C15.0543 4.0013 15.2663 4.0891 15.4225 4.24538C15.5788 4.40166 15.6666 4.61362 15.6666 4.83464V5.66797ZM4.83329 14.0013C4.99811 14.0013 5.15923 13.9524 5.29627 13.8609C5.43331 13.7693 5.54012 13.6391 5.60319 13.4869C5.66627 13.3346 5.68277 13.167 5.65061 13.0054C5.61846 12.8437 5.53909 12.6953 5.42255 12.5787C5.306 12.4622 5.15752 12.3828 4.99587 12.3506C4.83422 12.3185 4.66666 12.335 4.51439 12.3981C4.36212 12.4611 4.23197 12.568 4.1404 12.705C4.04883 12.842 3.99996 13.0032 3.99996 13.168C3.99996 13.389 4.08776 13.6009 4.24404 13.7572C4.40032 13.9135 4.61228 14.0013 4.83329 14.0013Z" fill="#454545"/>
</svg>
