<svg width="38" height="38" viewBox="0 0 38 38" fill="none" xmlns="http://www.w3.org/2000/svg">
<rect width="38" height="38" rx="8" fill="#F0F0F0"/>
<path d="M14.0533 20.7213C13.9284 20.8453 13.8292 20.9927 13.7615 21.1552C13.6938 21.3177 13.6589 21.492 13.6589 21.668C13.6589 21.844 13.6938 22.0183 13.7615 22.1807C13.8292 22.3432 13.9284 22.4907 14.0533 22.6146L18.0533 26.6146C18.1773 26.7396 18.3248 26.8388 18.4872 26.9065C18.6497 26.9742 18.824 27.009 19 27.009C19.176 27.009 19.3503 26.9742 19.5128 26.9065C19.6752 26.8388 19.8227 26.7396 19.9467 26.6146L23.9467 22.6146C24.1977 22.3636 24.3388 22.023 24.3388 21.668C24.3388 21.3129 24.1977 20.9724 23.9467 20.7213C23.6956 20.4702 23.3551 20.3292 23 20.3292C22.6449 20.3292 22.3044 20.4702 22.0533 20.7213L20.3333 22.4546V7.0013C20.3333 6.64768 20.1929 6.30854 19.9428 6.05849C19.6928 5.80844 19.3536 5.66797 19 5.66797C18.6464 5.66797 18.3072 5.80844 18.0572 6.05849C17.8071 6.30854 17.6667 6.64768 17.6667 7.0013V22.4546L15.9467 20.7213C15.8227 20.5963 15.6752 20.4971 15.5128 20.4294C15.3503 20.3618 15.176 20.3269 15 20.3269C14.824 20.3269 14.6497 20.3618 14.4872 20.4294C14.3248 20.4971 14.1773 20.5963 14.0533 20.7213ZM27 15.0013H24.3333C23.9797 15.0013 23.6406 15.1418 23.3905 15.3918C23.1405 15.6419 23 15.981 23 16.3346C23 16.6883 23.1405 17.0274 23.3905 17.2774C23.6406 17.5275 23.9797 17.668 24.3333 17.668H27C27.3536 17.668 27.6928 17.8084 27.9428 18.0585C28.1929 18.3085 28.3333 18.6477 28.3333 19.0013V28.3346C28.3333 28.6883 28.1929 29.0274 27.9428 29.2774C27.6928 29.5275 27.3536 29.668 27 29.668H11C10.6464 29.668 10.3072 29.5275 10.0572 29.2774C9.80714 29.0274 9.66667 28.6883 9.66667 28.3346V19.0013C9.66667 18.6477 9.80714 18.3085 10.0572 18.0585C10.3072 17.8084 10.6464 17.668 11 17.668H13.6667C14.0203 17.668 14.3594 17.5275 14.6095 17.2774C14.8595 17.0274 15 16.6883 15 16.3346C15 15.981 14.8595 15.6419 14.6095 15.3918C14.3594 15.1418 14.0203 15.0013 13.6667 15.0013H11C9.93913 15.0013 8.92172 15.4227 8.17157 16.1729C7.42143 16.923 7 17.9404 7 19.0013V28.3346C7 29.3955 7.42143 30.4129 8.17157 31.1631C8.92172 31.9132 9.93913 32.3346 11 32.3346H27C28.0609 32.3346 29.0783 31.9132 29.8284 31.1631C30.5786 30.4129 31 29.3955 31 28.3346V19.0013C31 17.9404 30.5786 16.923 29.8284 16.1729C29.0783 15.4227 28.0609 15.0013 27 15.0013Z" fill="#3A4885"/>
</svg>
