<svg width="20" height="21" viewBox="0 0 20 21" fill="none" xmlns="http://www.w3.org/2000/svg">
<path d="M3 17.0019H7.24C7.37161 17.0027 7.50207 16.9774 7.62391 16.9277C7.74574 16.8779 7.85656 16.8046 7.95 16.7119L14.87 9.78189L17.71 7.00189C17.8037 6.90893 17.8781 6.79833 17.9289 6.67647C17.9797 6.55461 18.0058 6.4239 18.0058 6.29189C18.0058 6.15988 17.9797 6.02917 17.9289 5.90732C17.8781 5.78546 17.8037 5.67486 17.71 5.58189L13.47 1.29189C13.377 1.19816 13.2664 1.12377 13.1446 1.073C13.0227 1.02223 12.892 0.996094 12.76 0.996094C12.628 0.996094 12.4973 1.02223 12.3754 1.073C12.2536 1.12377 12.143 1.19816 12.05 1.29189L9.23 4.12189L2.29 11.0519C2.19732 11.1453 2.12399 11.2561 2.07423 11.378C2.02446 11.4998 1.99924 11.6303 2 11.7619V16.0019C2 16.2671 2.10536 16.5215 2.29289 16.709C2.48043 16.8965 2.73478 17.0019 3 17.0019ZM12.76 3.41189L15.59 6.24189L14.17 7.66189L11.34 4.83189L12.76 3.41189ZM4 12.1719L9.93 6.24189L12.76 9.07189L6.83 15.0019H4V12.1719ZM19 19.0019H1C0.734784 19.0019 0.48043 19.1072 0.292893 19.2948C0.105357 19.4823 0 19.7367 0 20.0019C0 20.2671 0.105357 20.5215 0.292893 20.709C0.48043 20.8965 0.734784 21.0019 1 21.0019H19C19.2652 21.0019 19.5196 20.8965 19.7071 20.709C19.8946 20.5215 20 20.2671 20 20.0019C20 19.7367 19.8946 19.4823 19.7071 19.2948C19.5196 19.1072 19.2652 19.0019 19 19.0019Z" fill="#576BC7"/>
</svg>
