<svg width="18" height="18" viewBox="0 0 18 18" fill="none" xmlns="http://www.w3.org/2000/svg">
<path d="M3.16797 13.9983H6.7013C6.81097 13.999 6.91969 13.9779 7.02122 13.9365C7.12276 13.895 7.2151 13.8339 7.29297 13.7567L13.0596 7.98166L15.4263 5.66499C15.5044 5.58752 15.5664 5.49535 15.6087 5.3938C15.651 5.29225 15.6728 5.18333 15.6728 5.07332C15.6728 4.96331 15.651 4.85439 15.6087 4.75284C15.5664 4.65129 15.5044 4.55912 15.4263 4.48165L11.893 0.906655C11.8155 0.828548 11.7233 0.766553 11.6218 0.724245C11.5202 0.681938 11.4113 0.660156 11.3013 0.660156C11.1913 0.660156 11.0824 0.681938 10.9808 0.724245C10.8793 0.766553 10.7871 0.828548 10.7096 0.906655L8.35964 3.26499L2.5763 9.03999C2.49907 9.11786 2.43796 9.2102 2.39649 9.31173C2.35502 9.41326 2.334 9.52198 2.33464 9.63166V13.165C2.33464 13.386 2.42243 13.598 2.57871 13.7542C2.73499 13.9105 2.94696 13.9983 3.16797 13.9983ZM11.3013 2.67332L13.6596 5.03165L12.4763 6.21499L10.118 3.85665L11.3013 2.67332ZM4.0013 9.97332L8.94297 5.03165L11.3013 7.38999L6.35964 12.3317H4.0013V9.97332ZM16.5013 15.665H1.5013C1.28029 15.665 1.06833 15.7528 0.912046 15.9091C0.755766 16.0653 0.667969 16.2773 0.667969 16.4983C0.667969 16.7193 0.755766 16.9313 0.912046 17.0876C1.06833 17.2439 1.28029 17.3317 1.5013 17.3317H16.5013C16.7223 17.3317 16.9343 17.2439 17.0906 17.0876C17.2468 16.9313 17.3346 16.7193 17.3346 16.4983C17.3346 16.2773 17.2468 16.0653 17.0906 15.9091C16.9343 15.7528 16.7223 15.665 16.5013 15.665Z" fill="#576BC7"/>
</svg>
