<svg width="18" height="4" viewBox="0 0 18 4" fill="none" xmlns="http://www.w3.org/2000/svg">
<path d="M14 2C14 2.39556 14.1173 2.78224 14.3371 3.11114C14.5568 3.44004 14.8692 3.69639 15.2346 3.84776C15.6001 3.99914 16.0022 4.03874 16.3902 3.96157C16.7781 3.8844 17.1345 3.69392 17.4142 3.41421C17.6939 3.13451 17.8844 2.77814 17.9616 2.39018C18.0387 2.00222 17.9991 1.60009 17.8478 1.23463C17.6964 0.869182 17.44 0.556825 17.1111 0.337062C16.7822 0.117299 16.3956 1.00766e-06 16 9.90367e-07C15.4696 9.67181e-07 14.9609 0.210715 14.5858 0.585788C14.2107 0.96086 14 1.46957 14 2ZM4 2C4 1.60444 3.8827 1.21776 3.66294 0.88886C3.44318 0.559962 3.13082 0.303616 2.76537 0.152241C2.39991 0.00086588 1.99778 -0.0387408 1.60982 0.0384296C1.22186 0.1156 0.865492 0.306082 0.585787 0.585787C0.306082 0.865492 0.115601 1.22186 0.0384292 1.60982C-0.0387422 1.99778 0.000865831 2.39991 0.152241 2.76537C0.303615 3.13082 0.559961 3.44318 0.888859 3.66294C1.21776 3.8827 1.60444 4 2 4C2.53043 4 3.03914 3.78929 3.41421 3.41421C3.78928 3.03914 4 2.53043 4 2ZM11 2C11 1.60444 10.8827 1.21776 10.6629 0.888861C10.4432 0.559962 10.1308 0.303617 9.76537 0.152241C9.39991 0.000866186 8.99778 -0.0387405 8.60982 0.0384299C8.22186 0.1156 7.86549 0.306082 7.58579 0.585787C7.30608 0.865492 7.1156 1.22186 7.03843 1.60982C6.96126 1.99778 7.00086 2.39991 7.15224 2.76537C7.30361 3.13082 7.55996 3.44318 7.88886 3.66294C8.21776 3.8827 8.60444 4 9 4C9.53043 4 10.0391 3.78929 10.4142 3.41421C10.7893 3.03914 11 2.53043 11 2Z" fill="#8C8C8C"/>
</svg>
