<svg width="48" height="48" viewBox="0 0 48 48" fill="none" xmlns="http://www.w3.org/2000/svg">
<circle cx="24" cy="24" r="24" fill="#DAE0FA"/>
<path d="M35.2611 11.0003H28.0864C27.6574 11.0003 27.3097 11.3481 27.3097 11.7771V13.6634C27.3097 13.8695 27.3917 14.0669 27.5372 14.2127C27.683 14.3584 27.8806 14.4402 28.0864 14.4402H31.1191L17.8423 27.7184C17.6932 27.8645 17.6094 28.0644 17.6094 28.2731C17.6094 28.4821 17.6932 28.6821 17.8423 28.8281L19.1737 30.1596C19.3197 30.3087 19.5196 30.3926 19.7286 30.3926C19.9373 30.3926 20.1372 30.3087 20.2832 30.1596L33.5601 16.8814V19.9144V19.9142C33.5601 20.3432 33.9078 20.691 34.3368 20.691H36.2229C36.429 20.691 36.6264 20.609 36.7721 20.4635C36.9179 20.3177 36.9996 20.1201 36.9996 19.9142V12.7388C37.0097 12.2746 36.8299 11.8265 36.5018 11.4983C36.1736 11.1701 35.7255 10.9903 35.2614 11.0004L35.2611 11.0003Z" fill="#576BC7"/>
<path d="M31.3405 25.1295H29.4914C29.0624 25.1295 28.7146 25.4773 28.7146 25.9061V33.5993H14.4023V19.3224H22.0947C22.3073 19.3227 22.5106 19.2358 22.6573 19.082C22.8041 18.9282 22.8813 18.7211 22.8712 18.5087V16.6594C22.8712 16.4535 22.7894 16.2559 22.6437 16.1104C22.4982 15.9646 22.3006 15.8828 22.0947 15.8828H12.7011C12.2499 15.8828 11.8173 16.0621 11.4981 16.381C11.179 16.7002 11 17.1328 11 17.5841V35.3007C11 35.7519 11.179 36.1846 11.4981 36.5037C11.8173 36.8229 12.2499 37.0019 12.7011 37.0019H30.4158C30.867 37.0019 31.2997 36.8229 31.6188 36.5037C31.9376 36.1846 32.1169 35.7519 32.1169 35.3007V25.9061C32.1169 25.4773 31.7692 25.1295 31.3404 25.1295L31.3405 25.1295Z" fill="#576BC7"/>
</svg>
