<svg width="22" height="22" viewBox="0 0 22 22" fill="none" xmlns="http://www.w3.org/2000/svg">
<path d="M6.21337 16.5209C5.86909 16.522 5.55863 16.3143 5.42803 15.9958C5.29743 15.6773 5.37282 15.3114 5.61858 15.0704L15.1877 5.50656C15.5189 5.17651 16.0546 5.1777 16.3844 5.50893C16.7141 5.83987 16.713 6.37588 16.382 6.70564L6.81291 16.274C6.65382 16.4328 6.43805 16.5212 6.21337 16.5206L6.21337 16.5209Z" fill="#BFBFBF"/>
<path d="M8.15217 9.60782C7.42233 9.60782 6.7225 9.31814 6.20666 8.80204C5.69082 8.28619 5.40088 7.58633 5.40088 6.85676C5.40088 6.12692 5.69086 5.4274 6.20666 4.91125C6.72251 4.39541 7.42237 4.10547 8.15217 4.10547C8.88171 4.10547 9.58154 4.39544 10.0975 4.91125C10.6136 5.4274 10.9032 6.12696 10.9032 6.85676C10.9032 7.5863 10.6136 8.28612 10.0975 8.80204C9.5816 9.31818 8.88174 9.60782 8.15217 9.60782ZM8.15217 5.79773C7.72388 5.79773 7.33772 6.05565 7.17391 6.45129C7.00977 6.84722 7.1006 7.30251 7.40333 7.6053C7.70607 7.90834 8.16167 7.99886 8.55734 7.83502C8.95298 7.67119 9.21091 7.28504 9.21091 6.85676C9.21091 6.27176 8.73691 5.79773 8.15218 5.79773H8.15217Z" fill="#BFBFBF"/>
<path d="M13.8477 17.6781C13.1182 17.6781 12.4184 17.3882 11.9025 16.8724C11.3863 16.3562 11.0967 15.6566 11.0967 14.9268C11.0967 14.1973 11.3864 13.4975 11.9025 12.9816C12.4183 12.4654 13.1182 12.1758 13.8477 12.1758C14.5776 12.1758 15.2774 12.4655 15.7932 12.9816C16.3091 13.4974 16.599 14.1973 16.599 14.9268C16.599 15.6567 16.3091 16.3562 15.7932 16.8724C15.2774 17.3882 14.5775 17.6781 13.8477 17.6781ZM13.8477 13.868C13.4195 13.868 13.0333 14.126 12.8695 14.5216C12.7056 14.9172 12.7962 15.3728 13.0992 15.6756C13.4019 15.9784 13.8572 16.0692 14.2532 15.905C14.6488 15.7412 14.9068 15.3551 14.9068 14.9268C14.9068 14.3421 14.4328 13.868 13.8477 13.868V13.868Z" fill="#BFBFBF"/>
<path d="M11 22C8.08269 22 5.28474 20.841 3.22177 18.7782C1.15902 16.7152 0 13.9172 0 11C0 8.08284 1.15902 5.28474 3.22177 3.22177C5.28482 1.15902 8.08284 0 11 0C13.9172 0 16.7153 1.15902 18.7782 3.22177C20.841 5.28482 22 8.08284 22 11C21.9961 13.9161 20.836 16.712 18.7737 18.7737C16.7118 20.8359 13.9159 21.9961 11.0001 21.9999L11 22ZM11 1.69241C8.53151 1.69241 6.16393 2.67303 4.4184 4.41855C2.67288 6.16408 1.69226 8.53166 1.69226 11.0002C1.69226 13.4686 2.67288 15.8362 4.4184 17.5817C6.16393 19.3273 8.53151 20.3079 11 20.3079C13.4685 20.3079 15.8361 19.3273 17.5816 17.5817C19.3271 15.8362 20.3077 13.4686 20.3077 11.0002C20.3039 8.5328 19.322 6.16757 17.5774 4.42273C15.8325 2.67812 13.4673 1.69629 11 1.69241Z" fill="#BFBFBF"/>
</svg>
