<svg width="76" height="76" viewBox="0 0 76 76" fill="none" xmlns="http://www.w3.org/2000/svg">
<path d="M76 51.8579V10C76 4.47715 71.5228 0 66 0H24.1421C15.2331 0 10.7714 10.7714 17.0711 17.0711L58.9289 58.9289C65.2286 65.2286 76 60.7669 76 51.8579Z" fill="#289F26"/>
<path d="M54 22C53.4477 22 53 22.4477 53 23C53 23.5523 53.4477 24 54 24C54.5523 24 55 23.5523 55 23C55 22.4477 54.5523 22 54 22Z" stroke="white" stroke-width="2.21605" stroke-linecap="round" stroke-linejoin="round"/>
<path d="M47 22C46.4477 22 46 22.4477 46 23C46 23.5523 46.4477 24 47 24C47.5523 24 48 23.5523 48 23C48 22.4477 47.5523 22 47 22Z" stroke="white" stroke-width="2.21605" stroke-linecap="round" stroke-linejoin="round"/>
<path d="M61 22C60.4477 22 60 22.4477 60 23C60 23.5523 60.4477 24 61 24C61.5523 24 62 23.5523 62 23C62 22.4477 61.5523 22 61 22Z" stroke="white" stroke-width="2.21605" stroke-linecap="round" stroke-linejoin="round"/>
</svg>
