<svg width="24" height="25" viewBox="0 0 24 25" fill="none" xmlns="http://www.w3.org/2000/svg">
<path d="M19.572 5.91114C19.1209 5.46386 18.5848 5.10896 17.9945 4.86681C17.4042 4.62465 16.7714 4.5 16.1322 4.5C15.4931 4.5 14.8602 4.62465 14.27 4.86681C13.6797 5.10896 13.1436 5.46386 12.6925 5.91114L12 6.60415L11.3075 5.91114C10.8564 5.46386 10.3203 5.10896 9.73003 4.86681C9.13976 4.62465 8.5069 4.5 7.86776 4.5C7.22862 4.5 6.59577 4.62465 6.0055 4.86681C5.41522 5.10896 4.87914 5.46386 4.42798 5.91114C2.52149 7.79472 2.40458 10.9755 4.80568 13.3922L12 20.5L19.1943 13.3922C21.5954 10.9755 21.4785 7.79472 19.572 5.91114Z" stroke="#454545" stroke-width="2" stroke-linecap="round" stroke-linejoin="round"/>
</svg>
