<svg width="24" height="24" viewBox="0 0 24 24" fill="none" xmlns="http://www.w3.org/2000/svg">
<path d="M17 12C17 12.3956 17.1173 12.7822 17.3371 13.1111C17.5568 13.44 17.8692 13.6964 18.2346 13.8478C18.6001 13.9991 19.0022 14.0387 19.3902 13.9616C19.7781 13.8844 20.1345 13.6939 20.4142 13.4142C20.6939 13.1345 20.8844 12.7781 20.9616 12.3902C21.0387 12.0022 20.9991 11.6001 20.8478 11.2346C20.6964 10.8692 20.44 10.5568 20.1111 10.3371C19.7822 10.1173 19.3956 10 19 10C18.4696 10 17.9609 10.2107 17.5858 10.5858C17.2107 10.9609 17 11.4696 17 12ZM7 12C7 11.6044 6.8827 11.2178 6.66294 10.8889C6.44318 10.56 6.13082 10.3036 5.76537 10.1522C5.39991 10.0009 4.99778 9.96126 4.60982 10.0384C4.22186 10.1156 3.86549 10.3061 3.58579 10.5858C3.30608 10.8655 3.1156 11.2219 3.03843 11.6098C2.96126 11.9978 3.00087 12.3999 3.15224 12.7654C3.30362 13.1308 3.55996 13.4432 3.88886 13.6629C4.21776 13.8827 4.60444 14 5 14C5.53043 14 6.03914 13.7893 6.41421 13.4142C6.78928 13.0391 7 12.5304 7 12ZM14 12C14 11.6044 13.8827 11.2178 13.6629 10.8889C13.4432 10.56 13.1308 10.3036 12.7654 10.1522C12.3999 10.0009 11.9978 9.96126 11.6098 10.0384C11.2219 10.1156 10.8655 10.3061 10.5858 10.5858C10.3061 10.8655 10.1156 11.2219 10.0384 11.6098C9.96126 11.9978 10.0009 12.3999 10.1522 12.7654C10.3036 13.1308 10.56 13.4432 10.8889 13.6629C11.2178 13.8827 11.6044 14 12 14C12.5304 14 13.0391 13.7893 13.4142 13.4142C13.7893 13.0391 14 12.5304 14 12Z" fill="#595959"/>
</svg>
