<svg width="24" height="25" viewBox="0 0 24 25" fill="none" xmlns="http://www.w3.org/2000/svg">
<path d="M16.988 6.45312H11.0031C10.7385 6.45312 10.4848 6.55848 10.2977 6.74602C10.1107 6.93355 10.0056 7.18791 10.0056 7.45312C10.0056 7.71834 10.1107 7.9727 10.2977 8.16023C10.4848 8.34777 10.7385 8.45312 11.0031 8.45312H12.5192L9.32728 16.4531H7.01311C6.74856 16.4531 6.49485 16.5585 6.30778 16.746C6.12072 16.9336 6.01562 17.1879 6.01562 17.4531C6.01562 17.7183 6.12072 17.9727 6.30778 18.1602C6.49485 18.3478 6.74856 18.4531 7.01311 18.4531H12.998C13.2626 18.4531 13.5163 18.3478 13.7034 18.1602C13.8904 17.9727 13.9955 17.7183 13.9955 17.4531C13.9955 17.1879 13.8904 16.9336 13.7034 16.746C13.5163 16.5585 13.2626 16.4531 12.998 16.4531H11.4819L14.6738 8.45312H16.988C17.2525 8.45312 17.5063 8.34777 17.6933 8.16023C17.8804 7.9727 17.9855 7.71834 17.9855 7.45312C17.9855 7.18791 17.8804 6.93355 17.6933 6.74602C17.5063 6.55848 17.2525 6.45312 16.988 6.45312Z" fill="#BFBFBF"/>
</svg>
