<svg width="21" height="15" viewBox="0 0 21 15" fill="none" xmlns="http://www.w3.org/2000/svg">
<path d="M1.99358 2.45312H19.9483C20.2129 2.45312 20.4666 2.34777 20.6537 2.16023C20.8407 1.9727 20.9458 1.71834 20.9458 1.45312C20.9458 1.18791 20.8407 0.933555 20.6537 0.746018C20.4666 0.558482 20.2129 0.453125 19.9483 0.453125H1.99358C1.72903 0.453125 1.47532 0.558482 1.28825 0.746018C1.10119 0.933555 0.996094 1.18791 0.996094 1.45312C0.996094 1.71834 1.10119 1.9727 1.28825 2.16023C1.47532 2.34777 1.72903 2.45312 1.99358 2.45312ZM1.99358 6.45312H15.9584C16.2229 6.45312 16.4766 6.34777 16.6637 6.16023C16.8508 5.9727 16.9559 5.71834 16.9559 5.45312C16.9559 5.18791 16.8508 4.93355 16.6637 4.74602C16.4766 4.55848 16.2229 4.45312 15.9584 4.45312H1.99358C1.72903 4.45312 1.47532 4.55848 1.28825 4.74602C1.10119 4.93355 0.996094 5.18791 0.996094 5.45312C0.996094 5.71834 1.10119 5.9727 1.28825 6.16023C1.47532 6.34777 1.72903 6.45312 1.99358 6.45312ZM19.9483 8.45312H1.99358C1.72903 8.45312 1.47532 8.55848 1.28825 8.74602C1.10119 8.93355 0.996094 9.18791 0.996094 9.45312C0.996094 9.71834 1.10119 9.9727 1.28825 10.1602C1.47532 10.3478 1.72903 10.4531 1.99358 10.4531H19.9483C20.2129 10.4531 20.4666 10.3478 20.6537 10.1602C20.8407 9.9727 20.9458 9.71834 20.9458 9.45312C20.9458 9.18791 20.8407 8.93355 20.6537 8.74602C20.4666 8.55848 20.2129 8.45312 19.9483 8.45312ZM15.9584 12.4531H1.99358C1.72903 12.4531 1.47532 12.5585 1.28825 12.746C1.10119 12.9336 0.996094 13.1879 0.996094 13.4531C0.996094 13.7183 1.10119 13.9727 1.28825 14.1602C1.47532 14.3478 1.72903 14.4531 1.99358 14.4531H15.9584C16.2229 14.4531 16.4766 14.3478 16.6637 14.1602C16.8508 13.9727 16.9559 13.7183 16.9559 13.4531C16.9559 13.1879 16.8508 12.9336 16.6637 12.746C16.4766 12.5585 16.2229 12.4531 15.9584 12.4531Z" fill="#BFBFBF"/>
</svg>
