<svg width="8" height="14" viewBox="0 0 8 14" fill="none" xmlns="http://www.w3.org/2000/svg">
<path d="M0.492489 6.28955L6.15249 0.639548C6.24545 0.54582 6.35605 0.471426 6.47791 0.420657C6.59977 0.369888 6.73048 0.34375 6.86249 0.34375C6.9945 0.34375 7.12521 0.369888 7.24707 0.420657C7.36892 0.471426 7.47953 0.54582 7.57249 0.639548C7.75874 0.826911 7.86328 1.08036 7.86328 1.34455C7.86328 1.60873 7.75874 1.86219 7.57249 2.04955L2.62249 7.04955L7.57249 11.9995C7.75874 12.1869 7.86328 12.4404 7.86328 12.7045C7.86328 12.9687 7.75874 13.2222 7.57249 13.4095C7.47987 13.504 7.36943 13.5792 7.24755 13.6307C7.12568 13.6822 6.9948 13.709 6.86249 13.7095C6.73018 13.709 6.5993 13.6822 6.47742 13.6307C6.35555 13.5792 6.2451 13.504 6.15249 13.4095L0.492489 7.75955C0.390984 7.66591 0.309975 7.55225 0.254568 7.42576C0.199161 7.29926 0.170556 7.16265 0.170556 7.02455C0.170556 6.88645 0.199161 6.74984 0.254568 6.62334C0.309975 6.49684 0.390984 6.38319 0.492489 6.28955V6.28955Z" fill="#141414"/>
</svg>
