<svg width="24" height="25" viewBox="0 0 24 25" fill="none" xmlns="http://www.w3.org/2000/svg">
<path d="M12.0861 15.8422L8.21378 19.7222C7.74495 20.1756 7.11882 20.429 6.46727 20.429C5.81571 20.429 5.18958 20.1756 4.72075 19.7222C4.49081 19.4928 4.30837 19.22 4.18388 18.9197C4.05938 18.6194 3.9953 18.2974 3.9953 17.9722C3.9953 17.6471 4.05938 17.3251 4.18388 17.0248C4.30837 16.7245 4.49081 16.4517 4.72075 16.2222L8.59302 12.3422C8.78095 12.1539 8.88653 11.8985 8.88653 11.6322C8.88653 11.3659 8.78095 11.1105 8.59302 10.9222C8.4051 10.7339 8.15021 10.6282 7.88444 10.6282C7.61867 10.6282 7.36378 10.7339 7.17585 10.9222L3.30358 14.8122C2.52349 15.663 2.1016 16.7829 2.126 17.938C2.15041 19.0931 2.61923 20.1941 3.43455 21.011C4.24987 21.828 5.34866 22.2977 6.50145 22.3222C7.65423 22.3466 8.77187 21.9239 9.62097 21.1422L13.5032 17.2622C13.6912 17.0739 13.7967 16.8185 13.7967 16.5522C13.7967 16.2859 13.6912 16.0305 13.5032 15.8422C13.3153 15.6539 13.0604 15.5482 12.7946 15.5482C12.5289 15.5482 12.274 15.6539 12.0861 15.8422ZM20.649 3.76224C19.8094 2.92625 18.6739 2.45703 17.4903 2.45703C16.3067 2.45703 15.1711 2.92625 14.3316 3.76224L10.4493 7.64224C10.3563 7.73548 10.2825 7.84617 10.2321 7.96799C10.1817 8.08982 10.1558 8.22038 10.1558 8.35224C10.1558 8.4841 10.1817 8.61467 10.2321 8.73649C10.2825 8.85831 10.3563 8.969 10.4493 9.06224C10.5424 9.15548 10.6528 9.22944 10.7744 9.2799C10.896 9.33036 11.0263 9.35633 11.1579 9.35633C11.2895 9.35633 11.4198 9.33036 11.5414 9.2799C11.663 9.22944 11.7734 9.15548 11.8665 9.06224L15.7388 5.18224C16.2076 4.72887 16.8337 4.4755 17.4853 4.4755C18.1368 4.4755 18.763 4.72887 19.2318 5.18224C19.4617 5.41173 19.6442 5.68445 19.7687 5.98476C19.8932 6.28507 19.9572 6.60706 19.9572 6.93224C19.9572 7.25743 19.8932 7.57941 19.7687 7.87972C19.6442 8.18003 19.4617 8.45276 19.2318 8.68224L15.3595 12.5622C15.266 12.6552 15.1917 12.7658 15.1411 12.8877C15.0904 13.0095 15.0643 13.1402 15.0643 13.2722C15.0643 13.4043 15.0904 13.535 15.1411 13.6568C15.1917 13.7787 15.266 13.8893 15.3595 13.9822C15.4523 14.076 15.5627 14.1504 15.6843 14.2011C15.8059 14.2519 15.9364 14.278 16.0681 14.278C16.1999 14.278 16.3303 14.2519 16.4519 14.2011C16.5735 14.1504 16.6839 14.076 16.7767 13.9822L20.649 10.0922C21.4833 9.25102 21.9516 8.11322 21.9516 6.92724C21.9516 5.74127 21.4833 4.60346 20.649 3.76224ZM8.81259 15.6222C8.90584 15.7149 9.01644 15.7882 9.13803 15.838C9.25963 15.8878 9.38983 15.913 9.52117 15.9122C9.65252 15.913 9.78272 15.8878 9.90431 15.838C10.0259 15.7882 10.1365 15.7149 10.2298 15.6222L15.14 10.7022C15.3279 10.5139 15.4335 10.2585 15.4335 9.99224C15.4335 9.72594 15.3279 9.47055 15.14 9.28224C14.952 9.09394 14.6971 8.98815 14.4314 8.98815C14.1656 8.98815 13.9107 9.09394 13.7228 9.28224L8.81259 14.2022C8.71905 14.2952 8.6448 14.4058 8.59413 14.5277C8.54346 14.6495 8.51738 14.7802 8.51738 14.9122C8.51738 15.0443 8.54346 15.175 8.59413 15.2968C8.6448 15.4187 8.71905 15.5293 8.81259 15.6222Z" fill="#BFBFBF"/>
</svg>
