<svg width="48" height="48" viewBox="0 0 48 48" fill="none" xmlns="http://www.w3.org/2000/svg">
<circle cx="24" cy="24" r="24" fill="#DAE0FA"/>
<path d="M18.666 23.9987C18.666 24.3523 18.8065 24.6915 19.0565 24.9415C19.3066 25.1916 19.6457 25.332 19.9993 25.332H27.9993C28.353 25.332 28.6921 25.1916 28.9422 24.9415C29.1922 24.6915 29.3327 24.3523 29.3327 23.9987C29.3327 23.6451 29.1922 23.3059 28.9422 23.0559C28.6921 22.8058 28.353 22.6654 27.9993 22.6654H19.9993C19.6457 22.6654 19.3066 22.8058 19.0565 23.0559C18.8065 23.3059 18.666 23.6451 18.666 23.9987ZM21.3327 27.9987H17.3327C16.2718 27.9987 15.2544 27.5773 14.5043 26.8271C13.7541 26.077 13.3327 25.0596 13.3327 23.9987C13.3327 22.9378 13.7541 21.9204 14.5043 21.1703C15.2544 20.4201 16.2718 19.9987 17.3327 19.9987H21.3327C21.6863 19.9987 22.0254 19.8582 22.2755 19.6082C22.5255 19.3581 22.666 19.019 22.666 18.6654C22.666 18.3117 22.5255 17.9726 22.2755 17.7226C22.0254 17.4725 21.6863 17.332 21.3327 17.332H17.3327C15.5646 17.332 13.8689 18.0344 12.6186 19.2847C11.3684 20.5349 10.666 22.2306 10.666 23.9987C10.666 25.7668 11.3684 27.4625 12.6186 28.7127C13.8689 29.963 15.5646 30.6654 17.3327 30.6654H21.3327C21.6863 30.6654 22.0254 30.5249 22.2755 30.2748C22.5255 30.0248 22.666 29.6857 22.666 29.332C22.666 28.9784 22.5255 28.6393 22.2755 28.3892C22.0254 28.1392 21.6863 27.9987 21.3327 27.9987ZM30.666 17.332H26.666C26.3124 17.332 25.9733 17.4725 25.7232 17.7226C25.4732 17.9726 25.3327 18.3117 25.3327 18.6654C25.3327 19.019 25.4732 19.3581 25.7232 19.6082C25.9733 19.8582 26.3124 19.9987 26.666 19.9987H30.666C31.7269 19.9987 32.7443 20.4201 33.4944 21.1703C34.2446 21.9204 34.666 22.9378 34.666 23.9987C34.666 25.0596 34.2446 26.077 33.4944 26.8271C32.7443 27.5773 31.7269 27.9987 30.666 27.9987H26.666C26.3124 27.9987 25.9733 28.1392 25.7232 28.3892C25.4732 28.6393 25.3327 28.9784 25.3327 29.332C25.3327 29.6857 25.4732 30.0248 25.7232 30.2748C25.9733 30.5249 26.3124 30.6654 26.666 30.6654H30.666C32.4341 30.6654 34.1298 29.963 35.3801 28.7127C36.6303 27.4625 37.3327 25.7668 37.3327 23.9987C37.3327 22.2306 36.6303 20.5349 35.3801 19.2847C34.1298 18.0344 32.4341 17.332 30.666 17.332V17.332Z" fill="#576BC7"/>
</svg>
