<svg width="24" height="25" viewBox="0 0 24 25" fill="none" xmlns="http://www.w3.org/2000/svg">
<path d="M17 9.5V7.5C17 6.17392 16.4732 4.90215 15.5355 3.96447C14.5979 3.02678 13.3261 2.5 12 2.5C10.6739 2.5 9.40215 3.02678 8.46447 3.96447C7.52678 4.90215 7 6.17392 7 7.5V9.5C6.20435 9.5 5.44129 9.81607 4.87868 10.3787C4.31607 10.9413 4 11.7044 4 12.5V19.5C4 20.2956 4.31607 21.0587 4.87868 21.6213C5.44129 22.1839 6.20435 22.5 7 22.5H17C17.7956 22.5 18.5587 22.1839 19.1213 21.6213C19.6839 21.0587 20 20.2956 20 19.5V12.5C20 11.7044 19.6839 10.9413 19.1213 10.3787C18.5587 9.81607 17.7956 9.5 17 9.5ZM9 7.5C9 6.70435 9.31607 5.94129 9.87868 5.37868C10.4413 4.81607 11.2044 4.5 12 4.5C12.7956 4.5 13.5587 4.81607 14.1213 5.37868C14.6839 5.94129 15 6.70435 15 7.5V9.5H9V7.5ZM18 19.5C18 19.7652 17.8946 20.0196 17.7071 20.2071C17.5196 20.3946 17.2652 20.5 17 20.5H7C6.73478 20.5 6.48043 20.3946 6.29289 20.2071C6.10536 20.0196 6 19.7652 6 19.5V12.5C6 12.2348 6.10536 11.9804 6.29289 11.7929C6.48043 11.6054 6.73478 11.5 7 11.5H17C17.2652 11.5 17.5196 11.6054 17.7071 11.7929C17.8946 11.9804 18 12.2348 18 12.5V19.5Z" fill="white"/>
</svg>
