<svg width="24" height="4" viewBox="0 0 24 4" fill="none" xmlns="http://www.w3.org/2000/svg">
<path d="M12 3C12.5523 3 13 2.55228 13 2C13 1.44772 12.5523 1 12 1C11.4477 1 11 1.44772 11 2C11 2.55228 11.4477 3 12 3Z" stroke="#050B24" stroke-width="2" stroke-linecap="round" stroke-linejoin="round"/>
<path d="M22 3C22.5523 3 23 2.55228 23 2C23 1.44772 22.5523 1 22 1C21.4477 1 21 1.44772 21 2C21 2.55228 21.4477 3 22 3Z" stroke="#050B24" stroke-width="2" stroke-linecap="round" stroke-linejoin="round"/>
<path d="M2 3C2.55228 3 3 2.55228 3 2C3 1.44772 2.55228 1 2 1C1.44772 1 1 1.44772 1 2C1 2.55228 1.44772 3 2 3Z" stroke="#050B24" stroke-width="2" stroke-linecap="round" stroke-linejoin="round"/>
</svg>
