<svg width="24" height="24" viewBox="0 0 24 24" fill="none" xmlns="http://www.w3.org/2000/svg">
<path d="M12 3V2V3ZM6.66667 8.2H5.66667H6.66667ZM4 16L3.45501 15.1616C3.08373 15.4029 2.91538 15.8597 3.04124 16.2842C3.16709 16.7088 3.55718 17 4 17L4 16ZM20 16V17C20.4428 17 20.8329 16.7088 20.9588 16.2842C21.0846 15.8597 20.9163 15.4029 20.545 15.1616L20 16ZM14.8314 20.5556C15.1383 20.0964 15.0148 19.4754 14.5556 19.1686C14.0964 18.8617 13.4754 18.9852 13.1686 19.4444L14.8314 20.5556ZM10.8314 19.4444C10.5246 18.9852 9.90359 18.8617 9.44439 19.1686C8.9852 19.4754 8.8617 20.0964 9.16855 20.5556L10.8314 19.4444ZM18.3333 8.2C18.3333 6.54737 17.6598 4.96771 16.4693 3.80704L15.0731 5.23904C15.8831 6.02876 16.3333 7.09438 16.3333 8.2H18.3333ZM16.4693 3.80704C15.2798 2.64722 13.6716 2 12 2V4C13.1573 4 14.2623 4.44849 15.0731 5.23904L16.4693 3.80704ZM12 2C10.3283 2 8.72023 2.64722 7.53066 3.80704L8.92686 5.23904C9.73769 4.44849 10.8427 4 12 4V2ZM7.53066 3.80704C6.34024 4.96771 5.66667 6.54737 5.66667 8.2H7.66667C7.66667 7.09438 8.1169 6.02876 8.92686 5.23904L7.53066 3.80704ZM5.66667 8.2C5.66667 11.0817 5.03487 12.8603 4.46062 13.8868C4.17193 14.4028 3.89186 14.7395 3.69947 14.9375C3.60302 15.0368 3.52794 15.1018 3.48399 15.1376C3.462 15.1554 3.44778 15.166 3.44254 15.1698C3.43992 15.1717 3.43955 15.1719 3.44157 15.1705C3.44259 15.1698 3.4442 15.1687 3.44643 15.1672C3.44755 15.1665 3.44882 15.1656 3.45025 15.1647C3.45096 15.1642 3.45172 15.1637 3.45251 15.1632C3.45291 15.1629 3.45353 15.1625 3.45373 15.1624C3.45437 15.162 3.45501 15.1616 4 16C4.54499 16.8384 4.54565 16.838 4.54633 16.8376C4.54657 16.8374 4.54725 16.837 4.54773 16.8367C4.54869 16.836 4.54968 16.8354 4.55072 16.8347C4.5528 16.8333 4.55503 16.8318 4.55743 16.8302C4.56223 16.827 4.56767 16.8234 4.57373 16.8192C4.58585 16.8109 4.60045 16.8006 4.61736 16.7883C4.65118 16.7638 4.69425 16.7312 4.74518 16.6898C4.84706 16.607 4.98032 16.4893 5.13386 16.3312C5.44148 16.0147 5.82807 15.5389 6.20605 14.8632C6.96514 13.5064 7.66667 11.3849 7.66667 8.2H5.66667ZM4 17H20V15H4V17ZM20 16C20.545 15.1616 20.5456 15.162 20.5463 15.1624C20.5465 15.1625 20.5471 15.1629 20.5475 15.1632C20.5483 15.1637 20.549 15.1642 20.5497 15.1647C20.5512 15.1656 20.5525 15.1665 20.5536 15.1672C20.5558 15.1687 20.5574 15.1698 20.5584 15.1705C20.5605 15.1719 20.5601 15.1717 20.5575 15.1698C20.5522 15.166 20.538 15.1554 20.516 15.1376C20.4721 15.1018 20.397 15.0368 20.3005 14.9375C20.1081 14.7395 19.8281 14.4028 19.5394 13.8868C18.9651 12.8603 18.3333 11.0817 18.3333 8.2H16.3333C16.3333 11.3849 17.0349 13.5064 17.794 14.8632C18.1719 15.5389 18.5585 16.0147 18.8661 16.3312C19.0197 16.4893 19.1529 16.607 19.2548 16.6898C19.3058 16.7312 19.3488 16.7638 19.3826 16.7883C19.3996 16.8006 19.4142 16.8109 19.4263 16.8192C19.4323 16.8234 19.4378 16.827 19.4426 16.8302C19.445 16.8318 19.4472 16.8333 19.4493 16.8347C19.4503 16.8354 19.4513 16.836 19.4523 16.8367C19.4527 16.837 19.4534 16.8374 19.4537 16.8376C19.4543 16.838 19.455 16.8384 20 16ZM13.1686 19.4444C13.0688 19.5937 12.9142 19.734 12.7068 19.8377L13.6012 21.6266C14.0959 21.3792 14.5247 21.0146 14.8314 20.5556L13.1686 19.4444ZM12.7068 19.8377C12.4992 19.9415 12.255 20 12 20V22C12.5551 22 13.1068 21.8738 13.6012 21.6266L12.7068 19.8377ZM12 20C11.745 20 11.5008 19.9415 11.2932 19.8377L10.3988 21.6266C10.8932 21.8738 11.4449 22 12 22V20ZM11.2932 19.8377C11.0858 19.734 10.9312 19.5937 10.8314 19.4444L9.16855 20.5556C9.47529 21.0146 9.90412 21.3792 10.3988 21.6266L11.2932 19.8377Z" fill="#8C8C8C"/>
</svg>
