<svg width="40" height="43" viewBox="0 0 40 43" fill="none" xmlns="http://www.w3.org/2000/svg">
<path d="M8.99999 9C11.4853 9 13.5 6.98528 13.5 4.5C13.5 2.01472 11.4853 0 8.99999 0C6.5147 0 4.49998 2.01472 4.49998 4.5C4.49998 6.98528 6.5147 9 8.99999 9Z" fill="white"/>
<path d="M18.69 42C18.9068 42 19.1147 41.9139 19.268 41.7606C19.4213 41.6073 19.5075 41.3993 19.5075 41.1825V39C19.5075 38.6022 19.3494 38.2206 19.0681 37.9393C18.7868 37.658 18.4053 37.5 18.0075 37.5C17.6097 37.5 17.2281 37.658 16.9468 37.9393C16.6655 38.2206 16.5075 38.6022 16.5075 39V41.1825C16.5075 41.3993 16.5936 41.6073 16.7469 41.7606C16.9002 41.9139 17.1082 42 17.325 42H18.69Z" fill="white"/>
<path d="M30.945 42C31.0179 42 31.09 41.9856 31.1574 41.9578C31.2247 41.9299 31.2859 41.889 31.3374 41.8374C31.389 41.7859 31.4298 41.7247 31.4577 41.6574C31.4856 41.5901 31.5 41.5179 31.5 41.445V40.4175C31.5 40.0416 31.3506 39.681 31.0848 39.4152C30.819 39.1493 30.4584 39 30.0825 39H29.9175C29.5415 39 29.181 39.1493 28.9152 39.4152C28.6493 39.681 28.5 40.0416 28.5 40.4175V41.445C28.5 41.5922 28.5585 41.7334 28.6625 41.8374C28.7666 41.9415 28.9078 42 29.055 42H30.945Z" fill="white"/>
<path d="M30 9H32.88C33.3096 9 33.7217 8.82932 34.0255 8.52551C34.3293 8.2217 34.5 7.80965 34.5 7.38V4.5C34.5 3.30653 34.0259 2.16193 33.182 1.31802C32.3381 0.474106 31.1935 0 30 0C28.8065 0 27.6619 0.474106 26.818 1.31802C25.9741 2.16193 25.5 3.30653 25.5 4.5V7.38C25.5 7.80965 25.6707 8.2217 25.9745 8.52551C26.2783 8.82932 26.6903 9 27.12 9H30Z" fill="white"/>
<path d="M3.65998 10.4997C2.68929 10.4997 1.75836 10.8853 1.07197 11.5717C0.385591 12.2581 -1.52588e-05 13.189 -1.52588e-05 14.1597V22.5747C0.000893224 22.769 0.0407041 22.9611 0.117069 23.1398C0.193434 23.3184 0.304806 23.48 0.444614 23.6149C0.584423 23.7498 0.749836 23.8553 0.931095 23.9253C1.11235 23.9953 1.30579 24.0282 1.49998 24.0222C1.89781 24.0222 2.27934 24.1802 2.56064 24.4615C2.84195 24.7428 2.99998 25.1244 2.99998 25.5222V39.6222C2.98632 40.215 3.19893 40.7907 3.59459 41.2324C3.99025 41.674 4.53926 41.9484 5.12998 41.9997C5.4354 42.016 5.74093 41.9699 6.02792 41.8641C6.3149 41.7584 6.57732 41.5952 6.79913 41.3847C7.02094 41.1741 7.19749 40.9205 7.31799 40.6394C7.43849 40.3583 7.50042 40.0555 7.49998 39.7497V31.5747C7.49034 31.2119 7.6081 30.8572 7.83281 30.5722C8.05751 30.2872 8.37495 30.0899 8.72998 30.0147C8.9472 29.9772 9.17 29.988 9.38255 30.0464C9.5951 30.1048 9.79216 30.2094 9.95972 30.3526C10.1273 30.4958 10.2612 30.6742 10.352 30.875C10.4428 31.0759 10.4882 31.2943 10.485 31.5147V39.3597C10.485 39.7083 10.554 40.0534 10.6881 40.3752C10.8221 40.697 11.0186 40.989 11.2662 41.2344C11.5137 41.4799 11.8074 41.6739 12.1303 41.8052C12.4532 41.9366 12.7989 42.0027 13.1475 41.9997C13.2397 41.9958 13.3266 41.9559 13.3897 41.8886C13.4528 41.8213 13.487 41.7319 13.485 41.6397V25.0572C13.485 24.7767 13.5964 24.5077 13.7947 24.3094C13.993 24.1111 14.262 23.9997 14.5425 23.9997H16.485V23.8122C16.4812 23.5715 16.4086 23.3369 16.2757 23.1362C16.1427 22.9355 15.9551 22.7771 15.735 22.6797C14.1825 21.9297 13.2075 20.6922 13.5225 18.7497C13.6432 17.9617 13.9746 17.221 14.4815 16.6058C14.9884 15.9906 15.6521 15.5238 16.4025 15.2547C17.0841 15.0028 17.8166 14.9197 18.5374 15.0125C19.2582 15.1053 19.9457 15.3713 20.5413 15.7878C21.1368 16.2042 21.6226 16.7587 21.9572 17.4038C22.2918 18.0489 22.4652 18.7655 22.4625 19.4922C22.4625 21.1572 21.555 22.0647 20.2125 22.6797C19.9912 22.7776 19.8028 22.9372 19.6698 23.1394C19.5368 23.3415 19.4648 23.5777 19.4625 23.8197V23.9922H21.48C21.7591 23.9942 22.0262 24.1065 22.2229 24.3046C22.4196 24.5027 22.53 24.7705 22.53 25.0497V40.4997C22.53 40.8975 22.688 41.279 22.9693 41.5603C23.2506 41.8417 23.6322 41.9997 24.03 41.9997C24.4278 41.9997 24.8093 41.8417 25.0906 41.5603C25.3719 41.279 25.53 40.8975 25.53 40.4997V32.9997C25.53 32.204 25.8461 31.441 26.4087 30.8784C26.9713 30.3158 27.7343 29.9997 28.53 29.9997V29.7147C27.5292 29.3608 26.6856 28.6646 26.1485 27.749C25.6114 26.8333 25.4153 25.7573 25.5948 24.7111C25.7743 23.6648 26.3179 22.7157 27.1295 22.0315C27.9411 21.3473 28.9685 20.972 30.03 20.972C31.0915 20.972 32.1189 21.3473 32.9305 22.0315C33.7421 22.7157 34.2857 23.6648 34.4652 24.7111C34.6447 25.7573 34.4485 26.8333 33.9114 27.749C33.3743 28.6646 32.5308 29.3608 31.53 29.7147V29.9997C32.3256 29.9997 33.0887 30.3158 33.6513 30.8784C34.2139 31.441 34.53 32.204 34.53 32.9997V41.1672C34.53 41.388 34.6177 41.5997 34.7738 41.7559C34.9299 41.912 35.1417 41.9997 35.3625 41.9997C35.9373 41.9997 36.4887 41.7713 36.8951 41.3648C37.3016 40.9584 37.53 40.407 37.53 39.8322V26.0247C37.5548 25.6041 37.6662 25.1931 37.8572 24.8176C38.0482 24.442 38.3147 24.11 38.64 23.8422C38.7583 23.7556 38.8551 23.6429 38.9227 23.5128C38.9904 23.3827 39.0271 23.2388 39.03 23.0922V14.1522C39.03 13.6715 38.9353 13.1956 38.7514 12.7516C38.5674 12.3075 38.2979 11.904 37.958 11.5642C37.6181 11.2243 37.2147 10.9547 36.7706 10.7708C36.3266 10.5869 35.8506 10.4922 35.37 10.4922H3.65998V10.4997Z" fill="white"/>
</svg>
