<svg width="24" height="24" viewBox="0 0 24 24" fill="none" xmlns="http://www.w3.org/2000/svg">
<path d="M12.9985 21C12.9985 20.7348 12.8932 20.4804 12.7056 20.2929C12.5181 20.1054 12.2638 20 11.9985 20C10.1255 20.0119 8.30695 19.3703 6.85608 18.1857C5.40522 17.001 4.41286 15.3475 4.04993 13.51C3.68699 11.6724 3.97621 9.76578 4.86775 8.1185C5.7593 6.47123 7.19737 5.18641 8.93428 4.48533C10.6712 3.78424 12.5982 3.71079 14.3835 4.27762C16.1687 4.84445 17.7004 6.01607 18.7148 7.5907C19.7291 9.16533 20.1626 11.0444 19.9406 12.9043C19.7186 14.7641 18.855 16.4884 17.4985 17.78L17.4985 15.38C17.4985 15.1148 17.3932 14.8604 17.2056 14.6729C17.0181 14.4854 16.7638 14.38 16.4985 14.38C16.2333 14.38 15.979 14.4854 15.7914 14.6729C15.6039 14.8604 15.4985 15.1148 15.4985 15.38L15.4985 19.91C15.4985 20.1752 15.6039 20.4296 15.7914 20.6171C15.979 20.8046 16.2333 20.91 16.4985 20.91L20.9985 20.91C21.2638 20.91 21.5181 20.8046 21.7056 20.6171C21.8932 20.4296 21.9985 20.1752 21.9985 19.91C21.9985 19.6448 21.8932 19.3904 21.7056 19.2029C21.5181 19.0154 21.2638 18.91 20.9985 18.91L19.2285 18.91C20.8205 17.2447 21.7886 15.0808 21.9692 12.784C22.1498 10.4873 21.5319 8.19863 20.2198 6.30492C18.9078 4.41121 16.9821 3.02861 14.7683 2.39083C12.5546 1.75305 10.1885 1.89921 8.07001 2.80461C5.95155 3.71001 4.21069 5.3191 3.14169 7.3599C2.07269 9.40069 1.74113 11.748 2.20306 14.005C2.66498 16.2621 3.89206 18.2904 5.67686 19.7471C7.46166 21.2039 9.69471 21.9997 11.9985 22C12.2638 22 12.5181 21.8946 12.7056 21.7071C12.8932 21.5196 12.9985 21.2652 12.9985 21Z" fill="#8C8C8C"/>
</svg>
