<svg width="21" height="15" viewBox="0 0 21 15" fill="none" xmlns="http://www.w3.org/2000/svg">
<path d="M1.05217 2.45312H19.0069C19.2715 2.45312 19.5252 2.34777 19.7123 2.16023C19.8993 1.9727 20.0044 1.71834 20.0044 1.45312C20.0044 1.18791 19.8993 0.933555 19.7123 0.746018C19.5252 0.558482 19.2715 0.453125 19.0069 0.453125H1.05217C0.787624 0.453125 0.533909 0.558482 0.346844 0.746018C0.159779 0.933555 0.0546875 1.18791 0.0546875 1.45312C0.0546875 1.71834 0.159779 1.9727 0.346844 2.16023C0.533909 2.34777 0.787624 2.45312 1.05217 2.45312V2.45312ZM19.0069 12.4531H5.04212C4.77757 12.4531 4.52385 12.5585 4.33679 12.746C4.14972 12.9336 4.04463 13.1879 4.04463 13.4531C4.04463 13.7183 4.14972 13.9727 4.33679 14.1602C4.52385 14.3478 4.77757 14.4531 5.04212 14.4531H19.0069C19.2715 14.4531 19.5252 14.3478 19.7123 14.1602C19.8993 13.9727 20.0044 13.7183 20.0044 13.4531C20.0044 13.1879 19.8993 12.9336 19.7123 12.746C19.5252 12.5585 19.2715 12.4531 19.0069 12.4531ZM19.0069 4.45312H5.04212C4.77757 4.45312 4.52385 4.55848 4.33679 4.74602C4.14972 4.93355 4.04463 5.18791 4.04463 5.45312C4.04463 5.71834 4.14972 5.9727 4.33679 6.16023C4.52385 6.34777 4.77757 6.45312 5.04212 6.45312H19.0069C19.2715 6.45312 19.5252 6.34777 19.7123 6.16023C19.8993 5.9727 20.0044 5.71834 20.0044 5.45312C20.0044 5.18791 19.8993 4.93355 19.7123 4.74602C19.5252 4.55848 19.2715 4.45312 19.0069 4.45312ZM19.0069 8.45312H1.05217C0.787624 8.45312 0.533909 8.55848 0.346844 8.74602C0.159779 8.93355 0.0546875 9.18791 0.0546875 9.45312C0.0546875 9.71834 0.159779 9.9727 0.346844 10.1602C0.533909 10.3478 0.787624 10.4531 1.05217 10.4531H19.0069C19.2715 10.4531 19.5252 10.3478 19.7123 10.1602C19.8993 9.9727 20.0044 9.71834 20.0044 9.45312C20.0044 9.18791 19.8993 8.93355 19.7123 8.74602C19.5252 8.55848 19.2715 8.45312 19.0069 8.45312Z" fill="#BFBFBF"/>
</svg>
