<svg width="8" height="14" viewBox="0 0 8 14" fill="none" xmlns="http://www.w3.org/2000/svg">
<path d="M7.50751 7.71045L1.84751 13.3605C1.75455 13.4542 1.64395 13.5286 1.52209 13.5793C1.40023 13.6301 1.26952 13.6562 1.13751 13.6562C1.0055 13.6562 0.874794 13.6301 0.752934 13.5793C0.631075 13.5286 0.520474 13.4542 0.427511 13.3605C0.24126 13.1731 0.136719 12.9196 0.136719 12.6555C0.136719 12.3913 0.24126 12.1378 0.427511 11.9505L5.37751 6.95045L0.42751 2.00045C0.241259 1.81309 0.136718 1.55964 0.136718 1.29545C0.136718 1.03127 0.241259 0.777815 0.42751 0.590452C0.520125 0.495964 0.63057 0.420793 0.752445 0.369297C0.87432 0.3178 1.0052 0.291002 1.13751 0.290453C1.26982 0.291002 1.4007 0.3178 1.52258 0.369297C1.64445 0.420793 1.7549 0.495964 1.84751 0.590452L7.50751 6.24045C7.60902 6.33409 7.69002 6.44774 7.74543 6.57424C7.80084 6.70074 7.82944 6.83735 7.82944 6.97545C7.82944 7.11355 7.80084 7.25016 7.74543 7.37666C7.69002 7.50316 7.60902 7.61681 7.50751 7.71045Z" fill="white"/>
</svg>
