<svg width="56" height="40" viewBox="0 0 56 40" fill="none" xmlns="http://www.w3.org/2000/svg">
<path d="M0 12.8101C0 14.1403 0.825639 15.3329 2.0641 15.7916L8.21053 18.1768V28.8642C8.21053 38.2215 18.7604 39.4141 27.9341 39.4141C37.1079 39.4141 47.6577 38.2215 47.6577 28.8642V19.9198C47.6577 18.8648 47.1532 17.8557 46.2817 17.2594C45.4102 16.6631 44.3093 16.5255 43.3002 16.8925L29.723 22.1215C28.5763 22.5802 27.2461 22.5802 26.0994 22.1215L3.07321 13.2229C2.84387 13.1312 2.798 12.9477 2.798 12.8101C2.798 12.6725 2.84387 12.489 3.07321 12.3973L26.1453 3.54461C27.292 3.08592 28.6222 3.08592 29.7689 3.54461L52.8409 12.3973C53.1161 12.489 53.2079 12.7184 53.2079 12.856C53.2079 12.9019 53.2079 12.9019 53.2079 12.9477V19.6905C53.2079 20.4702 53.8042 21.0665 54.5839 21.0665C55.3637 21.0665 55.96 20.4702 55.96 19.6905V12.9477C56.0059 11.5717 55.1802 10.3332 53.85 9.82865L30.7321 0.930087C28.9433 0.242054 26.925 0.242054 25.1361 0.930087L2.0641 9.82865C0.825639 10.2873 0 11.4799 0 12.8101ZM10.9627 19.2318L25.1361 24.6902C26.925 25.3782 28.9433 25.3782 30.7321 24.6902L44.2635 19.507C44.4469 19.4152 44.6304 19.507 44.6763 19.5528C44.768 19.5987 44.8597 19.7363 44.8597 19.9198V28.8642C44.8597 34.3226 39.7683 36.6619 27.8883 36.6619C16.0082 36.6619 10.9168 34.3226 10.9168 28.8642V19.2318H10.9627ZM54.5381 25.1947C53.7583 25.1947 53.162 25.791 53.162 26.5708V28.8642C53.162 29.644 53.7583 30.2403 54.5381 30.2403C55.3178 30.2403 55.9141 29.644 55.9141 28.8642V26.5708C55.9141 25.791 55.3178 25.1947 54.5381 25.1947Z" fill="white"/>
</svg>
