<svg width="28" height="28" viewBox="0 0 28 28" fill="none" xmlns="http://www.w3.org/2000/svg">
<path d="M26.426 10.7346L23.906 9.89464L25.0927 7.52131C25.213 7.27289 25.2532 6.99326 25.2078 6.721C25.1625 6.44875 25.0337 6.19728 24.8394 6.00131L21.9994 3.16131C21.8023 2.96409 21.5485 2.83358 21.2734 2.78814C20.9984 2.7427 20.716 2.78461 20.466 2.90797L18.0927 4.09464L17.2527 1.57464C17.164 1.31196 16.9956 1.08347 16.7709 0.920971C16.5463 0.758467 16.2766 0.670032 15.9994 0.667973H11.9994C11.7198 0.667252 11.4471 0.754398 11.2198 0.917096C10.9925 1.07979 10.8221 1.30981 10.7327 1.57464L9.89269 4.09464L7.51935 2.90797C7.27093 2.78768 6.99131 2.74744 6.71905 2.79282C6.44679 2.8382 6.19533 2.96695 5.99935 3.16131L3.15935 6.00131C2.96213 6.19833 2.83163 6.45221 2.78619 6.72725C2.74075 7.00229 2.78265 7.28465 2.90602 7.53464L4.09269 9.90797L1.57269 10.748C1.31001 10.8367 1.08152 11.0051 0.919017 11.2297C0.756514 11.4544 0.668079 11.7241 0.66602 12.0013V16.0013C0.665299 16.2808 0.752445 16.5535 0.915143 16.7808C1.07784 17.0081 1.30786 17.1785 1.57269 17.268L4.09269 18.108L2.90602 20.4813C2.78573 20.7297 2.74549 21.0094 2.79087 21.2816C2.83624 21.5539 2.96499 21.8053 3.15935 22.0013L5.99935 24.8413C6.19637 25.0385 6.45025 25.169 6.72529 25.2145C7.00033 25.2599 7.2827 25.218 7.53269 25.0946L9.90602 23.908L10.746 26.428C10.8355 26.6928 11.0059 26.9228 11.2332 27.0855C11.4605 27.2482 11.7332 27.3354 12.0127 27.3346H16.0127C16.2922 27.3354 16.5649 27.2482 16.7922 27.0855C17.0195 26.9228 17.1899 26.6928 17.2794 26.428L18.1194 23.908L20.4927 25.0946C20.7395 25.2119 21.0164 25.2505 21.2859 25.2052C21.5554 25.1599 21.8044 25.0328 21.9994 24.8413L24.8394 22.0013C25.0366 21.8043 25.1671 21.5504 25.2125 21.2754C25.258 21.0003 25.2161 20.718 25.0927 20.468L23.906 18.0946L26.426 17.2546C26.6887 17.1659 26.9172 16.9975 27.0797 16.7729C27.2422 16.5483 27.3306 16.2786 27.3327 16.0013V12.0013C27.3334 11.7218 27.2463 11.4491 27.0836 11.2218C26.9209 10.9945 26.6908 10.8241 26.426 10.7346ZM24.666 15.0413L23.066 15.5746C22.6981 15.694 22.3605 15.8919 22.0768 16.1548C21.793 16.4176 21.5698 16.739 21.4226 17.0967C21.2755 17.4545 21.2079 17.8399 21.2246 18.2263C21.2413 18.6128 21.3419 18.991 21.5194 19.3346L22.2794 20.8546L20.8127 22.3213L19.3327 21.5213C18.9908 21.351 18.6162 21.2561 18.2344 21.243C17.8526 21.23 17.4725 21.2992 17.1198 21.4458C16.767 21.5925 16.4499 21.8132 16.1899 22.0931C15.9299 22.373 15.733 22.7054 15.6127 23.068L15.0794 24.668H12.9594L12.426 23.068C12.3067 22.7 12.1087 22.3625 11.8459 22.0787C11.583 21.7949 11.2616 21.5717 10.9039 21.4246C10.5462 21.2774 10.1608 21.2099 9.77432 21.2266C9.38788 21.2433 9.00971 21.3438 8.66602 21.5213L7.14602 22.2813L5.67935 20.8146L6.47935 19.3346C6.65681 18.991 6.75738 18.6128 6.77408 18.2263C6.79078 17.8399 6.72322 17.4545 6.57607 17.0967C6.42893 16.739 6.20572 16.4176 5.92195 16.1548C5.63817 15.8919 5.30061 15.694 4.93269 15.5746L3.33269 15.0413V12.9613L4.93269 12.428C5.30061 12.3086 5.63817 12.1107 5.92195 11.8478C6.20572 11.585 6.42893 11.2636 6.57607 10.9059C6.72322 10.5482 6.79078 10.1627 6.77408 9.77627C6.75738 9.38984 6.65681 9.01166 6.47935 8.66797L5.71935 7.18797L7.18602 5.72131L8.66602 6.48131C9.00971 6.65876 9.38788 6.75933 9.77432 6.77603C10.1608 6.79273 10.5462 6.72517 10.9039 6.57802C11.2616 6.43088 11.583 6.20768 11.8459 5.9239C12.1087 5.64012 12.3067 5.30256 12.426 4.93464L12.9594 3.33464H15.0394L15.5727 4.93464C15.692 5.30256 15.89 5.64012 16.1528 5.9239C16.4157 6.20768 16.7371 6.43088 17.0948 6.57802C17.4525 6.72517 17.8379 6.79273 18.2244 6.77603C18.6108 6.75933 18.989 6.65876 19.3327 6.48131L20.8527 5.72131L22.3194 7.18797L21.5194 8.66797C21.349 9.0099 21.2541 9.38443 21.2411 9.76622C21.2281 10.148 21.2972 10.5281 21.4439 10.8809C21.5905 11.2336 21.8113 11.5507 22.0911 11.8107C22.371 12.0708 22.7035 12.2676 23.066 12.388L24.666 12.9213V15.0413ZM13.9994 8.66797C12.9445 8.66797 11.9134 8.98077 11.0363 9.5668C10.1593 10.1528 9.47566 10.9858 9.07199 11.9603C8.66833 12.9349 8.56271 14.0072 8.7685 15.0418C8.97429 16.0764 9.48224 17.0267 10.2281 17.7725C10.974 18.5184 11.9243 19.0264 12.9589 19.2322C13.9934 19.4379 15.0658 19.3323 16.0403 18.9287C17.0149 18.525 17.8478 17.8414 18.4339 16.9643C19.0199 16.0873 19.3327 15.0561 19.3327 14.0013C19.3327 12.5868 18.7708 11.2303 17.7706 10.2301C16.7704 9.22988 15.4138 8.66797 13.9994 8.66797ZM13.9994 16.668C13.4719 16.668 12.9564 16.5116 12.5178 16.2186C12.0793 15.9255 11.7375 15.5091 11.5357 15.0218C11.3338 14.5345 11.281 13.9983 11.3839 13.4811C11.4868 12.9638 11.7408 12.4886 12.1137 12.1157C12.4867 11.7427 12.9618 11.4888 13.4791 11.3859C13.9964 11.283 14.5326 11.3358 15.0198 11.5376C15.5071 11.7395 15.9236 12.0813 16.2166 12.5198C16.5096 12.9583 16.666 13.4739 16.666 14.0013C16.666 14.7085 16.3851 15.3868 15.885 15.8869C15.3849 16.387 14.7066 16.668 13.9994 16.668Z" fill="#1F1F1F"/>
</svg>
