<svg width="24" height="24" viewBox="0 0 24 24" fill="none" xmlns="http://www.w3.org/2000/svg">
<path d="M18.0006 14.0011C17.4098 14.005 16.8272 14.1397 16.2946 14.3956C15.7621 14.6515 15.2929 15.0222 14.9206 15.4811L9.82064 13.1311C10.0604 12.3968 10.0604 11.6053 9.82064 10.8711L14.9206 8.52109C15.5223 9.24706 16.361 9.73717 17.2888 9.90493C18.2166 10.0727 19.1738 9.90732 19.9916 9.43799C20.8093 8.96867 21.435 8.22557 21.7582 7.33983C22.0814 6.4541 22.0813 5.48267 21.7579 4.597C21.4346 3.71132 20.8088 2.96833 19.991 2.49916C19.1731 2.02998 18.2158 1.86478 17.2881 2.03271C16.3603 2.20065 15.5217 2.69091 14.9202 3.41699C14.3187 4.14306 13.993 5.05827 14.0006 6.00109C14.0036 6.23932 14.0271 6.47686 14.0706 6.71109L8.79064 9.14109C8.22772 8.59067 7.51488 8.21861 6.74144 8.07152C5.968 7.92443 5.16836 8.00886 4.44269 8.31422C3.71702 8.61959 3.0976 9.13231 2.66204 9.78815C2.22648 10.444 1.99414 11.2138 1.99414 12.0011C1.99414 12.7884 2.22648 13.5582 2.66204 14.214C3.0976 14.8699 3.71702 15.3826 4.44269 15.688C5.16836 15.9933 5.968 16.0778 6.74144 15.9307C7.51488 15.7836 8.22772 15.4115 8.79064 14.8611L14.0706 17.2911C14.0271 17.5253 14.0036 17.7629 14.0006 18.0011C14.0006 18.7922 14.2352 19.5656 14.6748 20.2234C15.1143 20.8812 15.739 21.3939 16.4699 21.6966C17.2008 21.9994 18.0051 22.0786 18.781 21.9242C19.5569 21.7699 20.2697 21.3889 20.8291 20.8295C21.3885 20.2701 21.7694 19.5574 21.9238 18.7815C22.0781 18.0055 21.9989 17.2013 21.6962 16.4704C21.3934 15.7395 20.8807 15.1147 20.2229 14.6752C19.5651 14.2357 18.7918 14.0011 18.0006 14.0011ZM18.0006 4.00109C18.3962 4.00109 18.7829 4.11839 19.1118 4.33815C19.4407 4.55791 19.697 4.87027 19.8484 5.23572C19.9998 5.60118 20.0394 6.00331 19.9622 6.39127C19.885 6.77923 19.6946 7.1356 19.4149 7.4153C19.1351 7.69501 18.7788 7.88549 18.3908 7.96266C18.0029 8.03983 17.6007 8.00023 17.2353 7.84885C16.8698 7.69747 16.5575 7.44113 16.3377 7.11223C16.1179 6.78333 16.0006 6.39665 16.0006 6.00109C16.0006 5.47066 16.2114 4.96195 16.5864 4.58688C16.9615 4.2118 17.4702 4.00109 18.0006 4.00109ZM6.00064 14.0011C5.60508 14.0011 5.2184 13.8838 4.8895 13.664C4.5606 13.4443 4.30425 13.1319 4.15288 12.7665C4.0015 12.401 3.9619 11.9989 4.03907 11.6109C4.11624 11.2229 4.30672 10.8666 4.58642 10.5869C4.86613 10.3072 5.2225 10.1167 5.61046 10.0395C5.99842 9.96235 6.40055 10.002 6.76601 10.1533C7.13146 10.3047 7.44381 10.5611 7.66358 10.89C7.88334 11.2188 8.00064 11.6055 8.00064 12.0011C8.00064 12.5315 7.78993 13.0402 7.41485 13.4153C7.03978 13.7904 6.53107 14.0011 6.00064 14.0011ZM18.0006 20.0011C17.6051 20.0011 17.2184 19.8838 16.8895 19.664C16.5606 19.4443 16.3043 19.1319 16.1529 18.7665C16.0015 18.401 15.9619 17.9989 16.0391 17.6109C16.1162 17.2229 16.3067 16.8666 16.5864 16.5869C16.8661 16.3072 17.2225 16.1167 17.6105 16.0395C17.9984 15.9623 18.4006 16.002 18.766 16.1533C19.1315 16.3047 19.4438 16.5611 19.6636 16.8899C19.8833 17.2188 20.0006 17.6055 20.0006 18.0011C20.0006 18.5315 19.7899 19.0402 19.4149 19.4153C19.0398 19.7904 18.5311 20.0011 18.0006 20.0011Z" fill="#8C8C8C"/>
</svg>
