<svg width="18" height="18" viewBox="0 0 18 18" fill="none" xmlns="http://www.w3.org/2000/svg">
<path d="M13.9989 10.6676C13.5066 10.6708 13.021 10.7831 12.5772 10.9964C12.1335 11.2096 11.7424 11.5185 11.4322 11.9009L7.18224 9.94258C7.38206 9.3307 7.38206 8.67112 7.18224 8.05924L11.4322 6.10091C11.9336 6.70588 12.6325 7.11431 13.4057 7.25411C14.1789 7.39391 14.9766 7.2561 15.658 6.865C16.3395 6.47389 16.8609 5.85464 17.1302 5.11653C17.3995 4.37842 17.3994 3.56889 17.13 2.83083C16.8605 2.09277 16.339 1.47361 15.6575 1.08263C14.976 0.691654 14.1782 0.553987 13.4051 0.693929C12.632 0.833871 11.9331 1.24243 11.4319 1.84749C10.9306 2.45255 10.6592 3.21522 10.6656 4.00091C10.6681 4.19944 10.6876 4.39738 10.7239 4.59258L6.3239 6.61758C5.8548 6.15889 5.26078 5.84884 4.61624 5.72627C3.97171 5.60369 3.30534 5.67405 2.70061 5.92852C2.09589 6.18299 1.57971 6.61026 1.21674 7.15679C0.853769 7.70333 0.660156 8.34482 0.660156 9.00091C0.660156 9.65699 0.853769 10.2985 1.21674 10.845C1.57971 11.3916 2.09589 11.8188 2.70061 12.0733C3.30534 12.3278 3.97171 12.3981 4.61624 12.2756C5.26078 12.153 5.8548 11.8429 6.3239 11.3842L10.7239 13.4092C10.6876 13.6044 10.6681 13.8024 10.6656 14.0009C10.6656 14.6602 10.8611 15.3046 11.2273 15.8528C11.5936 16.401 12.1142 16.8282 12.7233 17.0805C13.3324 17.3328 14.0026 17.3988 14.6492 17.2702C15.2958 17.1416 15.8898 16.8241 16.3559 16.3579C16.8221 15.8918 17.1396 15.2978 17.2682 14.6512C17.3968 14.0046 17.3308 13.3344 17.0785 12.7253C16.8262 12.1162 16.399 11.5956 15.8508 11.2293C15.3026 10.8631 14.6582 10.6676 13.9989 10.6676ZM13.9989 2.33424C14.3285 2.33424 14.6508 2.43199 14.9249 2.61513C15.1989 2.79826 15.4126 3.05856 15.5387 3.3631C15.6649 3.66765 15.6979 4.00276 15.6335 4.32606C15.5692 4.64936 15.4105 4.94633 15.1774 5.17942C14.9443 5.41251 14.6474 5.57124 14.3241 5.63555C14.0008 5.69986 13.6656 5.66685 13.3611 5.54071C13.0566 5.41456 12.7963 5.20094 12.6131 4.92686C12.43 4.65278 12.3322 4.33054 12.3322 4.00091C12.3322 3.55888 12.5078 3.13496 12.8204 2.8224C13.133 2.50984 13.5569 2.33424 13.9989 2.33424ZM3.9989 10.6676C3.66927 10.6676 3.34704 10.5698 3.07295 10.3867C2.79887 10.2036 2.58525 9.94326 2.45911 9.63871C2.33296 9.33417 2.29995 8.99906 2.36426 8.67576C2.42857 8.35246 2.58731 8.05549 2.82039 7.8224C3.05348 7.58931 3.35045 7.43058 3.67375 7.36627C3.99706 7.30196 4.33217 7.33496 4.63671 7.46111C4.94125 7.58726 5.20155 7.80088 5.38469 8.07496C5.56782 8.34904 5.66557 8.67127 5.66557 9.00091C5.66557 9.44294 5.48998 9.86686 5.17742 10.1794C4.86486 10.492 4.44093 10.6676 3.9989 10.6676ZM13.9989 15.6676C13.6693 15.6676 13.347 15.5698 13.073 15.3867C12.7989 15.2036 12.5853 14.9433 12.4591 14.6387C12.333 14.3342 12.3 13.9991 12.3643 13.6758C12.4286 13.3525 12.5873 13.0555 12.8204 12.8224C13.0535 12.5893 13.3505 12.4306 13.6738 12.3663C13.9971 12.302 14.3322 12.335 14.6367 12.4611C14.9413 12.5873 15.2016 12.8009 15.3847 13.075C15.5678 13.349 15.6656 13.6713 15.6656 14.0009C15.6656 14.4429 15.49 14.8669 15.1774 15.1794C14.8649 15.492 14.4409 15.6676 13.9989 15.6676Z" fill="white"/>
</svg>
