<svg width="14" height="8" viewBox="0 0 14 8" fill="none" xmlns="http://www.w3.org/2000/svg">
<path d="M6.28955 7.50751L0.639548 1.84751C0.54582 1.75455 0.471426 1.64395 0.420657 1.52209C0.369889 1.40023 0.34375 1.26952 0.34375 1.13751C0.34375 1.0055 0.369889 0.874794 0.420657 0.752934C0.471426 0.631075 0.54582 0.520474 0.639548 0.427511C0.826911 0.24126 1.08036 0.136719 1.34455 0.136719C1.60873 0.136719 1.86219 0.24126 2.04955 0.427511L7.04955 5.37751L11.9995 0.427511C12.1869 0.24126 12.4404 0.136718 12.7045 0.136718C12.9687 0.136718 13.2222 0.24126 13.4095 0.427511C13.504 0.520125 13.5792 0.63057 13.6307 0.752446C13.6822 0.874321 13.709 1.0052 13.7095 1.13751C13.709 1.26982 13.6822 1.4007 13.6307 1.52258C13.5792 1.64445 13.504 1.7549 13.4095 1.84751L7.75955 7.50751C7.66591 7.60902 7.55226 7.69002 7.42576 7.74543C7.29926 7.80084 7.16265 7.82944 7.02455 7.82944C6.88645 7.82944 6.74984 7.80084 6.62334 7.74543C6.49684 7.69002 6.38319 7.60902 6.28955 7.50751Z" fill="#454545"/>
</svg>
