
<svg width="24" height="24" viewBox="0 0 24 24" fill="none" xmlns="http://www.w3.org/2000/svg">
<path d="M15.5185 2H8.4815C7.99047 2 7.51932 2.20602 7.17215 2.57287C6.82483 2.93972 6.62961 3.43721 6.62961 3.95603V5.47187H6.16669C5.67566 5.47187 5.20452 5.6779 4.85734 6.04474C4.51002 6.41159 4.31481 6.90909 4.31481 7.4279V8.89498H3.85189V8.89481C3.36086 8.89481 2.88971 9.101 2.54253 9.46768C2.19522 9.83453 2 10.332 2 10.8508V21.2665C2 21.4611 2.0733 21.6476 2.20345 21.7853C2.33375 21.9227 2.5104 22 2.69448 22H21.3055C21.4896 22 21.6662 21.9227 21.7966 21.7853C21.9267 21.6476 22 21.4611 22 21.2665V10.8508C22 10.332 21.8048 9.83456 21.4575 9.46768C21.1103 9.101 20.6391 8.89481 20.1481 8.89481H19.6852V7.42773V7.4279C19.6852 6.90909 19.49 6.41162 19.1427 6.04474C18.7955 5.67789 18.3243 5.47187 17.8333 5.47187H17.3704V3.95603C17.3704 3.43721 17.1752 2.93975 16.8279 2.57287C16.4807 2.20602 16.0095 2 15.5185 2H15.5185ZM8.04169 3.95603H8.04152C8.04152 3.68588 8.24885 3.4669 8.50461 3.4669H15.5185C15.6412 3.4669 15.7589 3.51841 15.8458 3.61016C15.9326 3.70192 15.9814 3.82624 15.9814 3.95603V5.47188H8.01847L8.04169 3.95603ZM20.6111 10.8509V20.533H3.38892V10.8509C3.38892 10.5809 3.59625 10.3619 3.85184 10.3619H20.1481C20.2708 10.3619 20.3885 10.4134 20.4754 10.5052C20.5623 10.5968 20.611 10.7213 20.611 10.8509L20.6111 10.8509ZM18.2963 7.42799V8.89507L5.70373 8.8949V7.42782V7.42799C5.70373 7.15784 5.91106 6.93886 6.16665 6.93886H17.8333C17.956 6.93886 18.0737 6.99054 18.1606 7.08212C18.2474 7.17388 18.2962 7.29821 18.2962 7.428L18.2963 7.42799Z" fill="#8C8C8C"/>
</svg>
