<svg width="21" height="20" viewBox="0 0 21 20" fill="none" xmlns="http://www.w3.org/2000/svg">
<path d="M20.0014 7.67161C19.9383 7.4887 19.8234 7.32804 19.6708 7.20911C19.5181 7.09019 19.3342 7.01811 19.1414 7.00161L13.4514 6.17161L10.9014 1.00161C10.8196 0.832539 10.6917 0.689952 10.5325 0.590183C10.3734 0.490415 10.1893 0.4375 10.0014 0.4375C9.81359 0.4375 9.62953 0.490415 9.47035 0.590183C9.31118 0.689952 9.18333 0.832539 9.10144 1.00161L6.55144 6.16161L0.861442 7.00161C0.676365 7.02792 0.502366 7.10557 0.359193 7.22577C0.216019 7.34596 0.109402 7.50388 0.0514423 7.68161C-0.00161275 7.85528 -0.00637381 8.04013 0.03767 8.2163C0.0817139 8.39248 0.1729 8.55334 0.301442 8.68161L4.43144 12.6816L3.43144 18.3616C3.39574 18.5491 3.41444 18.7429 3.48531 18.9201C3.55619 19.0973 3.6763 19.2505 3.83144 19.3616C3.98266 19.4697 4.16102 19.5335 4.34649 19.5459C4.53196 19.5583 4.71721 19.5187 4.88144 19.4316L10.0014 16.7616L15.1014 19.4416C15.2418 19.5208 15.4003 19.5621 15.5614 19.5616C15.7733 19.5624 15.9799 19.4958 16.1514 19.3716C16.3066 19.2605 16.4267 19.1073 16.4976 18.9301C16.5684 18.7529 16.5871 18.5591 16.5514 18.3716L15.5514 12.6916L19.6814 8.69161C19.8258 8.56929 19.9325 8.40851 19.9892 8.22796C20.0458 8.0474 20.0501 7.85448 20.0014 7.67161ZM13.8514 11.6716C13.7342 11.785 13.6464 11.9255 13.5959 12.0806C13.5453 12.2357 13.5335 12.4009 13.5614 12.5616L14.2814 16.7516L10.5214 14.7516C10.3768 14.6746 10.2154 14.6343 10.0514 14.6343C9.88753 14.6343 9.72612 14.6746 9.58144 14.7516L5.82144 16.7516L6.54144 12.5616C6.56938 12.4009 6.55756 12.2357 6.50701 12.0806C6.45646 11.9255 6.36872 11.785 6.25144 11.6716L3.25144 8.67161L7.46144 8.06161C7.62344 8.03908 7.77744 7.97715 7.90994 7.88126C8.04244 7.78537 8.1494 7.65845 8.22144 7.51161L10.0014 3.70161L11.8814 7.52161C11.9535 7.66845 12.0604 7.79537 12.1929 7.89126C12.3254 7.98715 12.4794 8.04908 12.6414 8.07161L16.8514 8.68161L13.8514 11.6716Z" fill="#FFAA00"/>
</svg>
