<svg width="21" height="20" viewBox="0 0 21 20" fill="none" xmlns="http://www.w3.org/2000/svg">
<path d="M20.0014 7.66966C19.9383 7.48674 19.8234 7.32608 19.6708 7.20716C19.5181 7.08823 19.3342 7.01615 19.1414 6.99966L13.4514 6.16966L10.9014 0.999657C10.8196 0.830586 10.6917 0.687999 10.5325 0.58823C10.3734 0.488462 10.1893 0.435547 10.0014 0.435547C9.81359 0.435547 9.62953 0.488462 9.47035 0.58823C9.31118 0.687999 9.18333 0.830586 9.10144 0.999657L6.55144 6.15966L0.861442 6.99966C0.676365 7.02596 0.502366 7.10362 0.359193 7.22381C0.216019 7.34401 0.109402 7.50193 0.0514423 7.67966C-0.00161275 7.85333 -0.00637381 8.03817 0.03767 8.21435C0.0817139 8.39052 0.1729 8.55138 0.301442 8.67966L4.43144 12.6797L3.43144 18.3597C3.39574 18.5471 3.41444 18.7409 3.48531 18.9181C3.55619 19.0953 3.6763 19.2485 3.83144 19.3597C3.98266 19.4678 4.16102 19.5316 4.34649 19.5439C4.53196 19.5563 4.71721 19.5167 4.88144 19.4297L10.0014 16.7597L15.1014 19.4397C15.2418 19.5188 15.4003 19.5602 15.5614 19.5597C15.7733 19.5604 15.9799 19.4939 16.1514 19.3697C16.3066 19.2585 16.4267 19.1053 16.4976 18.9281C16.5684 18.7509 16.5871 18.5571 16.5514 18.3697L15.5514 12.6897L19.6814 8.68966C19.8258 8.56734 19.9325 8.40656 19.9892 8.22601C20.0458 8.04545 20.0501 7.85253 20.0014 7.66966ZM13.8514 11.6697C13.7342 11.7831 13.6464 11.9235 13.5959 12.0786C13.5453 12.2338 13.5335 12.3989 13.5614 12.5597L14.2814 16.7497L10.5214 14.7497C10.3768 14.6726 10.2154 14.6323 10.0514 14.6323C9.88753 14.6323 9.72612 14.6726 9.58144 14.7497L5.82144 16.7497L6.54144 12.5597C6.56938 12.3989 6.55756 12.2338 6.50701 12.0786C6.45646 11.9235 6.36872 11.7831 6.25144 11.6697L3.25144 8.66966L7.46144 8.05966C7.62344 8.03712 7.77744 7.9752 7.90994 7.87931C8.04244 7.78342 8.1494 7.65649 8.22144 7.50966L10.0014 3.69966L11.8814 7.51966C11.9535 7.66649 12.0604 7.79342 12.1929 7.88931C12.3254 7.9852 12.4794 8.04712 12.6414 8.06966L16.8514 8.67966L13.8514 11.6697Z" fill="#667EEA"/>
</svg>
