<svg width="44" height="39" viewBox="0 0 44 39" fill="none" xmlns="http://www.w3.org/2000/svg">
<path d="M9.75 0C6.16525 0 3.25 2.91525 3.25 6.5C3.25 10.0848 6.16525 13 9.75 13C13.3347 13 16.25 10.0848 16.25 6.5C16.25 2.91525 13.3347 0 9.75 0ZM33.5833 0C33.3593 0 33.1372 0.0116271 32.9189 0.0338542C29.6449 0.367261 27.0833 3.1393 27.0833 6.5C27.0833 8.06833 27.6407 9.50835 28.5687 10.6323C29.7617 12.0774 31.5669 13 33.5833 13C37.1681 13 40.0833 10.0848 40.0833 6.5C40.0833 2.91525 37.1681 0 33.5833 0ZM21.6667 10.8333C18.306 10.8333 15.5339 13.3949 15.2005 16.6689C15.1783 16.8872 15.1667 17.1093 15.1667 17.3333C15.1667 20.694 17.7283 23.4661 21.0023 23.7995C21.2205 23.8217 21.4426 23.8333 21.6667 23.8333C25.2514 23.8333 28.1667 20.9181 28.1667 17.3333C28.1667 13.7486 25.2514 10.8333 21.6667 10.8333ZM21.6667 14.0833C23.4585 14.0833 24.9167 15.5415 24.9167 17.3333C24.9167 19.1252 23.4585 20.5833 21.6667 20.5833C19.8748 20.5833 18.4167 19.1252 18.4167 17.3333C18.4167 17.1094 18.4389 16.8909 18.4823 16.6795C18.7859 15.2 20.0988 14.0833 21.6667 14.0833ZM3.79167 15.1667C1.70083 15.1667 0 16.8675 0 18.9583V21.6667C0 25.311 4.28242 28.1667 9.75 28.1667C9.82908 28.1667 9.90475 28.1593 9.98275 28.1582C10.6956 25.6655 12.9902 23.8333 15.7083 23.8333H15.9474C14.1437 22.2452 13 19.9258 13 17.3333C13 16.5837 13.1048 15.86 13.2835 15.1667H3.79167ZM30.0498 15.1667C30.2286 15.86 30.3333 16.5837 30.3333 17.3333C30.3333 19.9258 29.1897 22.2452 27.3859 23.8333H27.625C30.3431 23.8333 32.6377 25.6655 33.3506 28.1582C33.4286 28.1593 33.5042 28.1667 33.5833 28.1667C39.0509 28.1667 43.3333 25.311 43.3333 21.6667V18.9583C43.3333 16.8675 41.6325 15.1667 39.5417 15.1667H30.0498ZM15.7083 26C13.6175 26 11.9167 27.7008 11.9167 29.7917V32.5C11.9167 36.1443 16.1991 39 21.6667 39C27.1342 39 31.4167 36.1443 31.4167 32.5V29.7917C31.4167 27.7008 29.7158 26 27.625 26H15.7083ZM15.7083 29.25H27.625C27.9229 29.25 28.1667 29.4938 28.1667 29.7917V32.5C28.1667 34.034 25.3868 35.75 21.6667 35.75C17.9465 35.75 15.1667 34.034 15.1667 32.5V29.7917C15.1667 29.7172 15.1815 29.6469 15.209 29.5822C15.2915 29.388 15.4849 29.25 15.7083 29.25Z" fill="white"/>
</svg>
