<svg width="39" height="40" viewBox="0 0 39 40" fill="none" xmlns="http://www.w3.org/2000/svg">
<path d="M3.25 0.414062V12.4492C2.25977 13.5918 1.625 15.0454 1.625 16.6641C1.625 18.4731 2.39941 20.1045 3.60547 21.2852C1.44092 22.7515 0 25.2461 0 28.0391H3.25C3.25 25.3286 5.41455 23.1641 8.125 23.1641C10.8354 23.1641 13 25.3286 13 28.0391H16.25C16.25 26.8838 15.9834 25.7856 15.5391 24.7891H39V21.5391H35.75V0.414062H3.25ZM6.5 3.66406H32.5V21.5391H13C12.8857 21.4502 12.7651 21.3677 12.6445 21.2852C13.8506 20.1045 14.625 18.4731 14.625 16.6641C14.625 13.0903 11.6987 10.1641 8.125 10.1641C7.56641 10.1641 7.02051 10.2847 6.5 10.418V3.66406ZM8.125 13.4141C9.94043 13.4141 11.375 14.8486 11.375 16.6641C11.375 18.4795 9.94043 19.9141 8.125 19.9141C6.30957 19.9141 4.875 18.4795 4.875 16.6641C4.875 14.8486 6.30957 13.4141 8.125 13.4141ZM6.5 29.6641C3.82764 29.6641 1.625 31.8667 1.625 34.5391C1.625 37.2114 3.82764 39.4141 6.5 39.4141C7.74414 39.4141 8.88672 38.9253 9.75 38.1445C10.6133 38.9253 11.7559 39.4141 13 39.4141C14.2441 39.4141 15.3867 38.9253 16.25 38.1445C17.1133 38.9253 18.2559 39.4141 19.5 39.4141C20.7441 39.4141 21.8867 38.9253 22.75 38.1445C23.6133 38.9253 24.7559 39.4141 26 39.4141C27.2441 39.4141 28.3867 38.9253 29.25 38.1445C30.1133 38.9253 31.2559 39.4141 32.5 39.4141C35.1724 39.4141 37.375 37.2114 37.375 34.5391C37.375 31.8667 35.1724 29.6641 32.5 29.6641C31.2559 29.6641 30.1133 30.1528 29.25 30.9336C28.3867 30.1528 27.2441 29.6641 26 29.6641C24.7559 29.6641 23.6133 30.1528 22.75 30.9336C21.8867 30.1528 20.7441 29.6641 19.5 29.6641C18.2559 29.6641 17.1133 30.1528 16.25 30.9336C15.3867 30.1528 14.2441 29.6641 13 29.6641C11.7559 29.6641 10.6133 30.1528 9.75 30.9336C8.88672 30.1528 7.74414 29.6641 6.5 29.6641ZM6.5 32.9141C7.41406 32.9141 8.125 33.625 8.125 34.5391C8.125 35.4531 7.41406 36.1641 6.5 36.1641C5.58594 36.1641 4.875 35.4531 4.875 34.5391C4.875 33.625 5.58594 32.9141 6.5 32.9141ZM13 32.9141C13.9141 32.9141 14.625 33.625 14.625 34.5391C14.625 35.4531 13.9141 36.1641 13 36.1641C12.0859 36.1641 11.375 35.4531 11.375 34.5391C11.375 33.625 12.0859 32.9141 13 32.9141ZM19.5 32.9141C20.4141 32.9141 21.125 33.625 21.125 34.5391C21.125 35.4531 20.4141 36.1641 19.5 36.1641C18.5859 36.1641 17.875 35.4531 17.875 34.5391C17.875 33.625 18.5859 32.9141 19.5 32.9141ZM26 32.9141C26.9141 32.9141 27.625 33.625 27.625 34.5391C27.625 35.4531 26.9141 36.1641 26 36.1641C25.0859 36.1641 24.375 35.4531 24.375 34.5391C24.375 33.625 25.0859 32.9141 26 32.9141ZM32.5 32.9141C33.4141 32.9141 34.125 33.625 34.125 34.5391C34.125 35.4531 33.4141 36.1641 32.5 36.1641C31.5859 36.1641 30.875 35.4531 30.875 34.5391C30.875 33.625 31.5859 32.9141 32.5 32.9141Z" fill="white"/>
</svg>
