<svg width="38" height="38" viewBox="0 0 38 38" fill="none" xmlns="http://www.w3.org/2000/svg">
<circle cx="19" cy="19" r="19" fill="#38E035"/>
<path d="M19 9C17.0222 9 15.0888 9.58649 13.4443 10.6853C11.7998 11.7841 10.5181 13.3459 9.76121 15.1732C9.00433 17.0004 8.8063 19.0111 9.19215 20.9509C9.578 22.8907 10.5304 24.6725 11.9289 26.0711C13.3275 27.4696 15.1093 28.422 17.0491 28.8079C18.9889 29.1937 20.9996 28.9957 22.8268 28.2388C24.6541 27.4819 26.2159 26.2002 27.3147 24.5557C28.4135 22.9112 29 20.9778 29 19C29 17.6868 28.7413 16.3864 28.2388 15.1732C27.7363 13.9599 26.9997 12.8575 26.0711 11.9289C25.1425 11.0003 24.0401 10.2638 22.8268 9.7612C21.6136 9.25866 20.3132 9 19 9ZM19 27C17.4178 27 15.871 26.5308 14.5554 25.6518C13.2398 24.7727 12.2145 23.5233 11.609 22.0615C11.0035 20.5997 10.845 18.9911 11.1537 17.4393C11.4624 15.8874 12.2243 14.462 13.3432 13.3431C14.462 12.2243 15.8874 11.4624 17.4393 11.1537C18.9911 10.845 20.5997 11.0035 22.0615 11.609C23.5233 12.2145 24.7727 13.2398 25.6518 14.5554C26.5308 15.871 27 17.4177 27 19C27 21.1217 26.1572 23.1566 24.6569 24.6569C23.1566 26.1571 21.1217 27 19 27ZM21.1 16.63L20 17.27V14C20 13.7348 19.8946 13.4804 19.7071 13.2929C19.5196 13.1054 19.2652 13 19 13C18.7348 13 18.4804 13.1054 18.2929 13.2929C18.1054 13.4804 18 13.7348 18 14V19C18 19 18 19 18 19.06C17.9953 19.1266 17.9953 19.1934 18 19.26C18.0155 19.3214 18.0355 19.3816 18.06 19.44C18.06 19.44 18.06 19.44 18.06 19.5C18.1078 19.5709 18.1613 19.6378 18.22 19.7C18.3008 19.7801 18.3957 19.8445 18.5 19.89H18.58C18.7103 19.957 18.8536 19.9945 19 20C19.1166 19.9967 19.2316 19.973 19.34 19.93H19.43H19.5L22.1 18.43C22.3307 18.2974 22.4994 18.0786 22.5687 17.8216C22.6381 17.5647 22.6026 17.2907 22.47 17.06C22.3374 16.8293 22.1186 16.6607 21.8616 16.5913C21.6047 16.5219 21.3307 16.5574 21.1 16.69V16.63Z" fill="#EBFCEB"/>
</svg>
