<svg width="25" height="25" viewBox="0 0 25 25" fill="none" xmlns="http://www.w3.org/2000/svg">
<path d="M12.0318 15.9531C13.3545 15.9531 14.6231 15.4263 15.5584 14.4887C16.4938 13.551 17.0192 12.2792 17.0192 10.9531V5.95312C17.0192 5.68791 16.9141 5.43355 16.7271 5.24602C16.54 5.05848 16.2863 4.95312 16.0217 4.95312C15.7572 4.95312 15.5035 5.05848 15.3164 5.24602C15.1294 5.43355 15.0243 5.68791 15.0243 5.95312V10.9531C15.0243 11.7488 14.709 12.5118 14.1478 13.0744C13.5866 13.6371 12.8254 13.9531 12.0318 13.9531C11.2381 13.9531 10.477 13.6371 9.91581 13.0744C9.35461 12.5118 9.03934 11.7488 9.03934 10.9531V5.95312C9.03934 5.68791 8.93424 5.43355 8.74718 5.24602C8.56011 5.05848 8.3064 4.95312 8.04185 4.95312C7.7773 4.95312 7.52359 5.05848 7.33652 5.24602C7.14945 5.43355 7.04436 5.68791 7.04436 5.95312V10.9531C7.04436 12.2792 7.56982 13.551 8.50515 14.4887C9.44047 15.4263 10.709 15.9531 12.0318 15.9531V15.9531ZM17.0192 17.9531H7.04436C6.77981 17.9531 6.5261 18.0585 6.33903 18.246C6.15197 18.4336 6.04688 18.6879 6.04688 18.9531C6.04688 19.2183 6.15197 19.4727 6.33903 19.6602C6.5261 19.8478 6.77981 19.9531 7.04436 19.9531H17.0192C17.2838 19.9531 17.5375 19.8478 17.7246 19.6602C17.9116 19.4727 18.0167 19.2183 18.0167 18.9531C18.0167 18.6879 17.9116 18.4336 17.7246 18.246C17.5375 18.0585 17.2838 17.9531 17.0192 17.9531Z" fill="#BFBFBF"/>
</svg>
