<svg width="24" height="25" viewBox="0 0 24 25" fill="none" xmlns="http://www.w3.org/2000/svg">
<path d="M13.0191 20.4531H6.03309C5.7684 20.4531 5.51455 20.3478 5.32739 20.1602C5.14023 19.9727 5.03508 19.7183 5.03508 19.4531V5.45312C5.03508 5.18791 5.14023 4.93355 5.32739 4.74602C5.51455 4.55848 5.7684 4.45312 6.03309 4.45312H11.0231V7.45312C11.0231 8.24877 11.3386 9.01184 11.9001 9.57445C12.4616 10.1371 13.2231 10.4531 14.0172 10.4531H17.0112V12.4531C17.0112 12.7183 17.1163 12.9727 17.3035 13.1602C17.4907 13.3478 17.7445 13.4531 18.0092 13.4531C18.2739 13.4531 18.5277 13.3478 18.7149 13.1602C18.9021 12.9727 19.0072 12.7183 19.0072 12.4531V9.45312C19.0072 9.45312 19.0072 9.45312 19.0072 9.39312C18.9968 9.30126 18.9767 9.21076 18.9473 9.12313V9.03312C18.8993 8.9303 18.8353 8.83579 18.7577 8.75313L12.7696 2.75312C12.6871 2.67534 12.5928 2.61121 12.4902 2.56312C12.4604 2.55889 12.4302 2.55889 12.4004 2.56312C12.299 2.50487 12.187 2.46747 12.071 2.45312H6.03309C5.23902 2.45313 4.47748 2.7692 3.91599 3.3318C3.3545 3.89441 3.03906 4.65748 3.03906 5.45312V19.4531C3.03906 20.2488 3.3545 21.0118 3.91599 21.5744C4.47748 22.1371 5.23902 22.4531 6.03309 22.4531H13.0191C13.2838 22.4531 13.5377 22.3478 13.7248 22.1602C13.912 21.9727 14.0172 21.7183 14.0172 21.4531C14.0172 21.1879 13.912 20.9336 13.7248 20.746C13.5377 20.5585 13.2838 20.4531 13.0191 20.4531ZM13.0191 5.86312L15.604 8.45312H14.0172C13.7525 8.45312 13.4986 8.34777 13.3115 8.16023C13.1243 7.9727 13.0191 7.71834 13.0191 7.45312V5.86312ZM8.02911 8.45312C7.76442 8.45312 7.51057 8.55848 7.32341 8.74602C7.13624 8.93355 7.0311 9.18791 7.0311 9.45312C7.0311 9.71834 7.13624 9.9727 7.32341 10.1602C7.51057 10.3478 7.76442 10.4531 8.02911 10.4531H9.02711C9.2918 10.4531 9.54565 10.3478 9.73281 10.1602C9.91998 9.9727 10.0251 9.71834 10.0251 9.45312C10.0251 9.18791 9.91998 8.93355 9.73281 8.74602C9.54565 8.55848 9.2918 8.45312 9.02711 8.45312H8.02911ZM14.0172 12.4531H8.02911C7.76442 12.4531 7.51057 12.5585 7.32341 12.746C7.13624 12.9336 7.0311 13.1879 7.0311 13.4531C7.0311 13.7183 7.13624 13.9727 7.32341 14.1602C7.51057 14.3478 7.76442 14.4531 8.02911 14.4531H14.0172C14.2818 14.4531 14.5357 14.3478 14.7229 14.1602C14.91 13.9727 15.0152 13.7183 15.0152 13.4531C15.0152 13.1879 14.91 12.9336 14.7229 12.746C14.5357 12.5585 14.2818 12.4531 14.0172 12.4531ZM20.7138 17.7431L18.7178 15.7431C18.6229 15.6521 18.5109 15.5807 18.3884 15.5331C18.1455 15.4331 17.8729 15.4331 17.63 15.5331C17.5074 15.5807 17.3955 15.6521 17.3006 15.7431L15.3046 17.7431C15.1167 17.9314 15.0111 18.1868 15.0111 18.4531C15.0111 18.7194 15.1167 18.9748 15.3046 19.1631C15.4925 19.3514 15.7474 19.4572 16.0132 19.4572C16.2789 19.4572 16.5338 19.3514 16.7218 19.1631L17.0112 18.8631V21.4531C17.0112 21.7183 17.1163 21.9727 17.3035 22.1602C17.4907 22.3478 17.7445 22.4531 18.0092 22.4531C18.2739 22.4531 18.5277 22.3478 18.7149 22.1602C18.9021 21.9727 19.0072 21.7183 19.0072 21.4531V18.8631L19.2966 19.1631C19.3894 19.2569 19.4998 19.3312 19.6214 19.382C19.743 19.4328 19.8735 19.4589 20.0052 19.4589C20.137 19.4589 20.2674 19.4328 20.389 19.382C20.5106 19.3312 20.621 19.2569 20.7138 19.1631C20.8073 19.0702 20.8816 18.9596 20.9323 18.8377C20.9829 18.7158 21.009 18.5851 21.009 18.4531C21.009 18.3211 20.9829 18.1904 20.9323 18.0685C20.8816 17.9467 20.8073 17.8361 20.7138 17.7431ZM12.0211 18.4531C12.2858 18.4531 12.5397 18.3478 12.7268 18.1602C12.914 17.9727 13.0191 17.7183 13.0191 17.4531C13.0191 17.1879 12.914 16.9336 12.7268 16.746C12.5397 16.5585 12.2858 16.4531 12.0211 16.4531H8.02911C7.76442 16.4531 7.51057 16.5585 7.32341 16.746C7.13624 16.9336 7.0311 17.1879 7.0311 17.4531C7.0311 17.7183 7.13624 17.9727 7.32341 18.1602C7.51057 18.3478 7.76442 18.4531 8.02911 18.4531H12.0211Z" fill="#BFBFBF"/>
</svg>
