<svg width="4" height="14" viewBox="0 0 4 14" fill="none" xmlns="http://www.w3.org/2000/svg">
<path d="M2 3.25C2.29667 3.25 2.58668 3.16203 2.83336 2.99721C3.08003 2.83238 3.27229 2.59812 3.38582 2.32403C3.49935 2.04994 3.52906 1.74834 3.47118 1.45737C3.4133 1.16639 3.27044 0.899119 3.06066 0.68934C2.85088 0.479562 2.58361 0.336701 2.29264 0.278823C2.00166 0.220945 1.70007 0.25065 1.42598 0.364181C1.15189 0.477713 0.917619 0.669972 0.752797 0.916645C0.587974 1.16332 0.500001 1.45333 0.500001 1.75C0.500001 2.14783 0.658036 2.52936 0.939341 2.81066C1.22065 3.09197 1.60218 3.25 2 3.25ZM2 10.75C1.70333 10.75 1.41332 10.838 1.16665 11.0028C0.919972 11.1676 0.727713 11.4019 0.614181 11.676C0.50065 11.9501 0.470945 12.2517 0.528823 12.5426C0.586701 12.8336 0.729562 13.1009 0.939341 13.3107C1.14912 13.5204 1.41639 13.6633 1.70737 13.7212C1.99834 13.7791 2.29994 13.7494 2.57403 13.6358C2.84811 13.5223 3.08238 13.33 3.24721 13.0834C3.41203 12.8367 3.5 12.5467 3.5 12.25C3.5 11.8522 3.34197 11.4706 3.06066 11.1893C2.77936 10.908 2.39783 10.75 2 10.75ZM2 5.5C1.70333 5.5 1.41332 5.58797 1.16665 5.7528C0.919972 5.91762 0.727713 6.15189 0.614181 6.42598C0.50065 6.70007 0.470945 7.00166 0.528823 7.29264C0.586701 7.58361 0.729562 7.85088 0.939341 8.06066C1.14912 8.27044 1.41639 8.4133 1.70737 8.47118C1.99834 8.52906 2.29994 8.49935 2.57403 8.38582C2.84811 8.27229 3.08238 8.08003 3.24721 7.83336C3.41203 7.58668 3.5 7.29667 3.5 7C3.5 6.60218 3.34197 6.22065 3.06066 5.93934C2.77936 5.65804 2.39783 5.5 2 5.5Z" fill="#262626"/>
</svg>
