<svg width="26" height="26" viewBox="0 0 26 26" fill="none" xmlns="http://www.w3.org/2000/svg">
<path d="M13 11.75C12.6685 11.75 12.3505 11.8817 12.1161 12.1161C11.8817 12.3505 11.75 12.6685 11.75 13V18C11.75 18.3315 11.8817 18.6495 12.1161 18.8839C12.3505 19.1183 12.6685 19.25 13 19.25C13.3315 19.25 13.6495 19.1183 13.8839 18.8839C14.1183 18.6495 14.25 18.3315 14.25 18V13C14.25 12.6685 14.1183 12.3505 13.8839 12.1161C13.6495 11.8817 13.3315 11.75 13 11.75ZM13.475 6.85C13.1707 6.72498 12.8293 6.72498 12.525 6.85C12.3716 6.90949 12.2314 6.9987 12.1125 7.1125C12.0021 7.234 11.9133 7.37352 11.85 7.525C11.78 7.67335 11.7458 7.83603 11.75 8C11.7491 8.16451 11.7806 8.32759 11.8428 8.47988C11.905 8.63218 11.9967 8.7707 12.1125 8.8875C12.234 8.99791 12.3735 9.0867 12.525 9.15C12.7144 9.2278 12.92 9.2579 13.1237 9.23764C13.3274 9.21739 13.523 9.1474 13.6934 9.03384C13.8637 8.92027 14.0036 8.7666 14.1006 8.58634C14.1977 8.40607 14.249 8.20473 14.25 8C14.2454 7.66904 14.1159 7.35204 13.8875 7.1125C13.7686 6.9987 13.6284 6.90949 13.475 6.85ZM13 0.5C10.5277 0.5 8.11099 1.23311 6.05538 2.60663C3.99976 3.98015 2.39761 5.93238 1.45151 8.21646C0.505416 10.5005 0.257874 13.0139 0.74019 15.4386C1.2225 17.8634 2.41301 20.0907 4.16117 21.8388C5.90933 23.587 8.13661 24.7775 10.5614 25.2598C12.9861 25.7421 15.4995 25.4946 17.7836 24.5485C20.0676 23.6024 22.0199 22.0002 23.3934 19.9446C24.7669 17.889 25.5 15.4723 25.5 13C25.5 11.3585 25.1767 9.73303 24.5485 8.21646C23.9203 6.69989 22.9996 5.3219 21.8388 4.16117C20.6781 3.00043 19.3001 2.07969 17.7836 1.45151C16.267 0.823322 14.6415 0.5 13 0.5ZM13 23C11.0222 23 9.08879 22.4135 7.4443 21.3147C5.79981 20.2159 4.51809 18.6541 3.76121 16.8268C3.00433 14.9996 2.8063 12.9889 3.19215 11.0491C3.57801 9.10929 4.53041 7.32746 5.92894 5.92893C7.32746 4.53041 9.10929 3.578 11.0491 3.19215C12.9889 2.8063 14.9996 3.00433 16.8268 3.7612C18.6541 4.51808 20.2159 5.79981 21.3147 7.4443C22.4135 9.08879 23 11.0222 23 13C23 15.6522 21.9464 18.1957 20.0711 20.0711C18.1957 21.9464 15.6522 23 13 23Z" fill="#595959"/>
</svg>
