<svg width="22" height="26" viewBox="0 0 22 26" fill="none" xmlns="http://www.w3.org/2000/svg">
<path d="M19.6006 13.5245L11.8756 21.262C10.8628 22.1621 9.5445 22.6411 8.19022 22.6013C6.83594 22.5614 5.54807 22.0056 4.59003 21.0476C3.632 20.0895 3.0762 18.8017 3.03634 17.4474C2.99647 16.0931 3.47555 14.7748 4.37557 13.762L14.3756 3.76203C14.9726 3.19491 15.7646 2.8787 16.5881 2.8787C17.4115 2.8787 18.2035 3.19491 18.8006 3.76203C19.3823 4.35152 19.7084 5.14637 19.7084 5.97453C19.7084 6.8027 19.3823 7.59754 18.8006 8.18703L10.1756 16.7995C10.0902 16.8915 9.98758 16.9657 9.87354 17.0179C9.7595 17.0702 9.63628 17.0995 9.51092 17.1041C9.38556 17.1088 9.26052 17.0887 9.14292 17.045C9.02533 17.0013 8.91749 16.9349 8.82557 16.8495C8.73364 16.7642 8.65943 16.6615 8.60717 16.5475C8.5549 16.4335 8.52562 16.3102 8.52097 16.1849C8.51633 16.0595 8.53642 15.9345 8.58011 15.8169C8.62379 15.6993 8.69021 15.5915 8.77557 15.4995L15.1881 9.09953C15.4234 8.86415 15.5557 8.54491 15.5557 8.21203C15.5557 7.87916 15.4234 7.55991 15.1881 7.32453C14.9527 7.08915 14.6334 6.95692 14.3006 6.95692C13.9677 6.95692 13.6484 7.08915 13.4131 7.32453L7.00057 13.7495C6.6797 14.0679 6.42502 14.4467 6.25123 14.8639C6.07744 15.2812 5.98796 15.7288 5.98796 16.1808C5.98796 16.6328 6.07744 17.0804 6.25123 17.4976C6.42502 17.9149 6.6797 18.2937 7.00057 18.612C7.65603 19.2364 8.52658 19.5847 9.43182 19.5847C10.3371 19.5847 11.2076 19.2364 11.8631 18.612L20.4756 9.98703C21.4692 8.92072 22.0101 7.51037 21.9844 6.05311C21.9587 4.59586 21.3683 3.20547 20.3377 2.17487C19.3071 1.14427 17.9167 0.553932 16.4595 0.52822C15.0022 0.502508 13.5919 1.04343 12.5256 2.03703L2.52557 12.037C1.17707 13.5306 0.456851 15.4868 0.514983 17.4983C0.573114 19.5097 1.40511 21.4211 2.83762 22.8342C4.27012 24.2474 6.19266 25.0534 8.20467 25.0841C10.2167 25.1149 12.163 24.3682 13.6381 22.9995L21.3756 15.2745C21.4921 15.158 21.5846 15.0196 21.6476 14.8673C21.7107 14.7151 21.7432 14.5519 21.7432 14.387C21.7432 14.2222 21.7107 14.059 21.6476 13.9067C21.5846 13.7544 21.4921 13.6161 21.3756 13.4995C21.259 13.383 21.1207 13.2905 20.9684 13.2275C20.8161 13.1644 20.6529 13.1319 20.4881 13.1319C20.3232 13.1319 20.16 13.1644 20.0078 13.2275C19.8555 13.2905 19.7171 13.383 19.6006 13.4995V13.5245Z" fill="#8C8C8C"/>
</svg>
