<svg width="26" height="26" viewBox="0 0 26 26" fill="none" xmlns="http://www.w3.org/2000/svg">
<path d="M16.6743 6.20118H21.1493L20.1618 7.20118C19.929 7.43538 19.7983 7.75219 19.7983 8.08243C19.7983 8.41266 19.929 8.72948 20.1618 8.96368C20.396 9.19649 20.7128 9.32717 21.043 9.32717C21.3733 9.32717 21.6901 9.19649 21.9243 8.96368L25.0493 5.83868C25.2821 5.60447 25.4128 5.28766 25.4128 4.95743C25.4128 4.6272 25.2821 4.31038 25.0493 4.07618L21.9243 0.951178C21.6851 0.746395 21.3776 0.639387 21.063 0.651539C20.7484 0.66369 20.4499 0.794106 20.2273 1.01672C20.0047 1.23934 19.8743 1.53777 19.8621 1.85236C19.85 2.16696 19.957 2.47455 20.1618 2.71368L21.1493 3.70118H16.6743C16.3428 3.70118 16.0248 3.83287 15.7904 4.06729C15.556 4.30172 15.4243 4.61966 15.4243 4.95118C15.4243 5.2827 15.556 5.60064 15.7904 5.83506C16.0248 6.06948 16.3428 6.20118 16.6743 6.20118ZM22.2993 14.2512C22.0243 14.2512 21.7368 14.1637 21.4618 14.1012C20.9049 13.9785 20.3576 13.8155 19.8243 13.6137C19.2444 13.4027 18.607 13.4137 18.0347 13.6444C17.4624 13.8752 16.9956 14.3095 16.7243 14.8637L16.4493 15.4262C15.2318 14.7489 14.113 13.9077 13.1243 12.9262C12.1427 11.9374 11.3015 10.8187 10.6243 9.60118L11.1493 9.25118C11.7035 8.97982 12.1377 8.51309 12.3685 7.94079C12.5993 7.36849 12.6102 6.73107 12.3993 6.15118C12.2008 5.61671 12.0379 5.06968 11.9118 4.51368C11.8493 4.23868 11.7993 3.95118 11.7618 3.66368C11.61 2.7832 11.1488 1.98586 10.4613 1.41523C9.77379 0.844599 8.90514 0.538189 8.01177 0.551178H4.26177C3.72306 0.54612 3.18958 0.657195 2.69766 0.876841C2.20573 1.09649 1.76691 1.41955 1.41106 1.82403C1.05521 2.22851 0.79069 2.70492 0.635507 3.22082C0.480323 3.73672 0.438121 4.28 0.511771 4.81368C1.17769 10.0504 3.56931 14.916 7.30884 18.642C11.0484 22.3679 15.9227 24.7418 21.1618 25.3887H21.6368C22.5585 25.39 23.4485 25.0518 24.1368 24.4387C24.5322 24.085 24.8481 23.6514 25.0636 23.1666C25.2791 22.6818 25.3892 22.1567 25.3868 21.6262V17.8762C25.3715 17.0079 25.0553 16.1719 24.4922 15.5108C23.9291 14.8497 23.154 14.4045 22.2993 14.2512ZM22.9243 21.7512C22.924 21.9287 22.886 22.1041 22.8127 22.2657C22.7395 22.4274 22.6326 22.5715 22.4993 22.6887C22.3596 22.8093 22.1963 22.8994 22.0198 22.9532C21.8433 23.007 21.6575 23.0233 21.4743 23.0012C16.7929 22.4009 12.4446 20.2593 9.11517 16.914C5.78577 13.5688 3.66478 9.21035 3.08677 4.52618C3.06688 4.34308 3.08431 4.15784 3.13802 3.98167C3.19174 3.80549 3.28061 3.64204 3.39927 3.50118C3.51641 3.36784 3.6606 3.26098 3.82224 3.1877C3.98389 3.11442 4.15929 3.0764 4.33677 3.07618H8.08677C8.37745 3.06971 8.6613 3.16478 8.88945 3.34502C9.1176 3.52526 9.27578 3.77939 9.33677 4.06368C9.38677 4.40534 9.44927 4.74284 9.52427 5.07618C9.66867 5.73511 9.86085 6.38265 10.0993 7.01368L8.34927 7.82618C8.19964 7.89483 8.06505 7.99236 7.95322 8.11317C7.84139 8.23398 7.75452 8.3757 7.69761 8.53017C7.6407 8.68465 7.61486 8.84884 7.62158 9.01333C7.6283 9.17782 7.66745 9.33936 7.73677 9.48868C9.53577 13.3421 12.6333 16.4397 16.4868 18.2387C16.7911 18.3637 17.1324 18.3637 17.4368 18.2387C17.5927 18.1829 17.7359 18.0967 17.8582 17.9852C17.9805 17.8736 18.0795 17.7388 18.1493 17.5887L18.9243 15.8387C19.5705 16.0698 20.23 16.2618 20.8993 16.4137C21.2326 16.4887 21.5701 16.5512 21.9118 16.6012C22.1961 16.6622 22.4502 16.8203 22.6304 17.0485C22.8107 17.2766 22.9057 17.5605 22.8993 17.8512L22.9243 21.7512Z" fill="#8C8C8C"/>
</svg>
