<svg width="20" height="28" viewBox="0 0 20 28" fill="none" xmlns="http://www.w3.org/2000/svg">
<path d="M10 17.75C11.3261 17.75 12.5979 17.2232 13.5355 16.2855C14.4732 15.3479 15 14.0761 15 12.75V5.25C15 3.92392 14.4732 2.65215 13.5355 1.71447C12.5979 0.776784 11.3261 0.25 10 0.25C8.67392 0.25 7.40215 0.776784 6.46447 1.71447C5.52678 2.65215 5 3.92392 5 5.25V12.75C5 14.0761 5.52678 15.3479 6.46447 16.2855C7.40215 17.2232 8.67392 17.75 10 17.75ZM7.5 5.25C7.5 4.58696 7.76339 3.95107 8.23223 3.48223C8.70107 3.01339 9.33696 2.75 10 2.75C10.663 2.75 11.2989 3.01339 11.7678 3.48223C12.2366 3.95107 12.5 4.58696 12.5 5.25V12.75C12.5 13.413 12.2366 14.0489 11.7678 14.5178C11.2989 14.9866 10.663 15.25 10 15.25C9.33696 15.25 8.70107 14.9866 8.23223 14.5178C7.76339 14.0489 7.5 13.413 7.5 12.75V5.25ZM20 12.75C20 12.4185 19.8683 12.1005 19.6339 11.8661C19.3995 11.6317 19.0815 11.5 18.75 11.5C18.4185 11.5 18.1005 11.6317 17.8661 11.8661C17.6317 12.1005 17.5 12.4185 17.5 12.75C17.5 14.7391 16.7098 16.6468 15.3033 18.0533C13.8968 19.4598 11.9891 20.25 10 20.25C8.01088 20.25 6.10322 19.4598 4.6967 18.0533C3.29018 16.6468 2.5 14.7391 2.5 12.75C2.5 12.4185 2.3683 12.1005 2.13388 11.8661C1.89946 11.6317 1.58152 11.5 1.25 11.5C0.918479 11.5 0.600537 11.6317 0.366117 11.8661C0.131696 12.1005 0 12.4185 0 12.75C0.00220724 15.1841 0.892152 17.5339 2.503 19.3587C4.11384 21.1836 6.33497 22.3582 8.75 22.6625V25.25H6.25C5.91848 25.25 5.60054 25.3817 5.36612 25.6161C5.1317 25.8505 5 26.1685 5 26.5C5 26.8315 5.1317 27.1495 5.36612 27.3839C5.60054 27.6183 5.91848 27.75 6.25 27.75H13.75C14.0815 27.75 14.3995 27.6183 14.6339 27.3839C14.8683 27.1495 15 26.8315 15 26.5C15 26.1685 14.8683 25.8505 14.6339 25.6161C14.3995 25.3817 14.0815 25.25 13.75 25.25H11.25V22.6625C13.665 22.3582 15.8862 21.1836 17.497 19.3587C19.1078 17.5339 19.9978 15.1841 20 12.75Z" fill="#8C8C8C"/>
</svg>
