<svg width="26" height="26" viewBox="0 0 26 26" fill="none" xmlns="http://www.w3.org/2000/svg">
<path d="M25.1363 23.3613L20.4988 18.7613C22.2989 16.5168 23.1707 13.6679 22.9348 10.8004C22.6989 7.93291 21.3734 5.26476 19.2307 3.34459C17.088 1.42441 14.291 0.398169 11.4149 0.47687C8.53883 0.55557 5.80218 1.73323 3.76771 3.76771C1.73323 5.80218 0.55557 8.53883 0.47687 11.4149C0.398169 14.291 1.42441 17.088 3.34459 19.2307C5.26476 21.3734 7.93291 22.6989 10.8004 22.9348C13.6679 23.1707 16.5168 22.2989 18.7613 20.4988L23.3613 25.0988C23.4775 25.2159 23.6157 25.3089 23.7681 25.3724C23.9204 25.4359 24.0838 25.4685 24.2488 25.4685C24.4138 25.4685 24.5772 25.4359 24.7295 25.3724C24.8818 25.3089 25.0201 25.2159 25.1363 25.0988C25.3616 24.8657 25.4875 24.5542 25.4875 24.23C25.4875 23.9059 25.3616 23.5944 25.1363 23.3613ZM11.7488 20.4988C10.0182 20.4988 8.32647 19.9856 6.88754 19.0241C5.44861 18.0627 4.3271 16.6961 3.66484 15.0973C3.00257 13.4984 2.82929 11.7391 3.16691 10.0417C3.50453 8.34441 4.33789 6.78531 5.5616 5.5616C6.78531 4.33789 8.34441 3.50453 10.0417 3.16691C11.7391 2.82929 13.4984 3.00257 15.0973 3.66484C16.6961 4.3271 18.0627 5.44861 19.0241 6.88754C19.9856 8.32647 20.4988 10.0182 20.4988 11.7488C20.4988 14.0694 19.5769 16.295 17.936 17.936C16.295 19.5769 14.0694 20.4988 11.7488 20.4988Z" fill="#8C8C8C"/>
</svg>
