<svg width="26" height="16" viewBox="0 0 26 16" fill="none" xmlns="http://www.w3.org/2000/svg">
<path d="M24.9125 1.9375C24.7225 1.82779 24.5069 1.77003 24.2875 1.77003C24.0681 1.77003 23.8525 1.82779 23.6625 1.9375L19.25 4.1125C19.2144 3.14196 18.8036 2.22309 18.1042 1.5493C17.4048 0.875506 16.4712 0.499348 15.5 0.500001H4.25C3.25544 0.500001 2.30161 0.895089 1.59835 1.59835C0.895088 2.30161 0.5 3.25544 0.5 4.25V11.75C0.5 12.7446 0.895088 13.6984 1.59835 14.4017C2.30161 15.1049 3.25544 15.5 4.25 15.5H15.5C16.4712 15.5007 17.4048 15.1245 18.1042 14.4507C18.8036 13.7769 19.2144 12.858 19.25 11.8875L23.7 14.1125C23.8704 14.1999 24.0586 14.2469 24.25 14.25C24.484 14.2508 24.7136 14.1858 24.9125 14.0625C25.0926 13.9499 25.2411 13.7933 25.3439 13.6074C25.4467 13.4215 25.5004 13.2124 25.5 13V3C25.5004 2.78757 25.4467 2.57854 25.3439 2.39263C25.2411 2.20673 25.0926 2.05009 24.9125 1.9375ZM16.75 11.75C16.75 12.0815 16.6183 12.3995 16.3839 12.6339C16.1495 12.8683 15.8315 13 15.5 13H4.25C3.91848 13 3.60054 12.8683 3.36612 12.6339C3.1317 12.3995 3 12.0815 3 11.75V4.25C3 3.91848 3.1317 3.60054 3.36612 3.36612C3.60054 3.1317 3.91848 3 4.25 3H15.5C15.8315 3 16.1495 3.1317 16.3839 3.36612C16.6183 3.60054 16.75 3.91848 16.75 4.25V11.75ZM23 10.975L19.25 9.1V6.9L23 5.025V10.975Z" fill="#8C8C8C"/>
</svg>
