<svg width="46" height="46" viewBox="0 0 46 46" fill="none" xmlns="http://www.w3.org/2000/svg">
<g filter="url(#filter0_d_4112_27286)">
<rect x="2.5" y="0.5" width="41" height="41" rx="4.5" fill="white" stroke="#FCFBFB"/>
<path d="M13.1577 28.8895C17.1117 25.2388 18.8549 21.5953 18.3376 18.0522C17.4022 11.7118 9.52958 7.86031 9.18945 7.69535L9.20363 7.67383C12.8175 9.36649 16.0275 11.3461 18.7486 13.5408C20.9311 15.2908 22.8018 17.1915 24.3111 19.1854C26.8834 22.5779 27.5211 25.1025 27.5282 25.1241V25.1456H27.5069C27.3581 25.1312 27.1952 25.1312 27.0251 25.1312C22.3412 25.1312 13.2498 28.8752 13.1647 28.9182L13.1577 28.8895Z" fill="#667EEA"/>
<path d="M13.1577 28.8895C17.1117 25.2388 18.8549 21.5953 18.3376 18.0522C17.4022 11.7118 9.52958 7.86031 9.18945 7.69535L9.20363 7.67383C12.8175 9.36649 16.0275 11.3461 18.7486 13.5408C20.9311 15.2908 22.8018 17.1915 24.3111 19.1854C26.8834 22.5779 27.5211 25.1025 27.5282 25.1241V25.1456H27.5069C27.3581 25.1312 27.1952 25.1312 27.0251 25.1312C22.3412 25.1312 13.2498 28.8752 13.1647 28.9182L13.1577 28.8895Z" fill="#667EEA"/>
<path d="M27.9963 34.3121C28.4233 32.3774 28.5097 30.3816 28.2514 28.4165C28.0034 26.4369 27.5073 25.1459 27.5073 25.1315L27.4932 25.1172H27.6065C27.9821 25.1172 29.8741 25.1889 30.5969 26.609C31.3976 28.1726 30.526 30.769 28.0246 34.3336L27.9963 34.3121Z" fill="#4F62B6"/>
<path d="M27.9963 34.3121C29.1088 29.3919 27.5215 25.1746 27.5073 25.1315L27.4932 25.1172H27.6065C27.9821 25.1172 29.8741 25.1889 30.5969 26.609C31.3976 28.1726 30.526 30.769 28.0246 34.3336L27.9963 34.3121Z" fill="#4F62B6"/>
<path d="M27.9961 34.305C30.4975 30.7547 31.362 28.1655 30.5755 26.6162C29.8598 25.2105 27.9749 25.1387 27.6064 25.1387H27.5072V25.1244C27.5072 25.1029 26.8624 22.5854 24.2901 19.2001C21.9163 16.0729 17.3741 11.54 9.1897 7.69568H9.18262V7.66699C16.2687 9.53897 21.7816 11.8771 25.5656 14.617C28.7118 16.8978 30.703 19.4726 31.4825 22.277C32.4178 25.6408 31.4258 28.7393 30.4267 30.7403C29.7876 32.0406 28.9771 33.247 28.0174 34.3265L27.9961 34.305Z" fill="#667EEA"/>
</g>
<defs>
<filter id="filter0_d_4112_27286" x="0" y="0" width="46" height="46" filterUnits="userSpaceOnUse" color-interpolation-filters="sRGB">
<feFlood flood-opacity="0" result="BackgroundImageFix"/>
<feColorMatrix in="SourceAlpha" type="matrix" values="0 0 0 0 0 0 0 0 0 0 0 0 0 0 0 0 0 0 127 0" result="hardAlpha"/>
<feOffset dy="2"/>
<feGaussianBlur stdDeviation="1"/>
<feComposite in2="hardAlpha" operator="out"/>
<feColorMatrix type="matrix" values="0 0 0 0 0.6625 0 0 0 0 0.723537 0 0 0 0 1 0 0 0 0.12 0"/>
<feBlend mode="normal" in2="BackgroundImageFix" result="effect1_dropShadow_4112_27286"/>
<feBlend mode="normal" in="SourceGraphic" in2="effect1_dropShadow_4112_27286" result="shape"/>
</filter>
</defs>
</svg>
