<svg width="30" height="30" viewBox="0 0 30 30" fill="none" xmlns="http://www.w3.org/2000/svg">
<rect width="30" height="30" rx="15" fill="#F0F2FD"/>
<path d="M12 13H13C13.2652 13 13.5196 12.8946 13.7071 12.7071C13.8946 12.5196 14 12.2652 14 12C14 11.7348 13.8946 11.4804 13.7071 11.2929C13.5196 11.1054 13.2652 11 13 11H12C11.7348 11 11.4804 11.1054 11.2929 11.2929C11.1054 11.4804 11 11.7348 11 12C11 12.2652 11.1054 12.5196 11.2929 12.7071C11.4804 12.8946 11.7348 13 12 13ZM18 15H12C11.7348 15 11.4804 15.1054 11.2929 15.2929C11.1054 15.4804 11 15.7348 11 16C11 16.2652 11.1054 16.5196 11.2929 16.7071C11.4804 16.8946 11.7348 17 12 17H18C18.2652 17 18.5196 16.8946 18.7071 16.7071C18.8946 16.5196 19 16.2652 19 16C19 15.7348 18.8946 15.4804 18.7071 15.2929C18.5196 15.1054 18.2652 15 18 15ZM18 19H12C11.7348 19 11.4804 19.1054 11.2929 19.2929C11.1054 19.4804 11 19.7348 11 20C11 20.2652 11.1054 20.5196 11.2929 20.7071C11.4804 20.8946 11.7348 21 12 21H18C18.2652 21 18.5196 20.8946 18.7071 20.7071C18.8946 20.5196 19 20.2652 19 20C19 19.7348 18.8946 19.4804 18.7071 19.2929C18.5196 19.1054 18.2652 19 18 19ZM22.71 23.29C22.6625 23.247 22.6124 23.2069 22.56 23.17C22.5043 23.1322 22.4437 23.1019 22.38 23.08L22.2 23C22.005 22.9619 21.8031 22.9828 21.62 23.06C21.4959 23.1049 21.3832 23.1766 21.2899 23.2699C21.1966 23.3632 21.1249 23.4759 21.08 23.6C21.0209 23.7247 20.9934 23.8621 21 24C20.9983 24.1488 21.0297 24.296 21.0921 24.4311C21.1545 24.5662 21.2462 24.6856 21.3606 24.7807C21.475 24.8758 21.6092 24.9442 21.7534 24.9809C21.8976 25.0176 22.0481 25.0216 22.1941 24.9927C22.34 24.9638 22.4777 24.9028 22.597 24.8139C22.7164 24.7251 22.8144 24.6107 22.8839 24.4792C22.9535 24.3477 22.9928 24.2023 22.9991 24.0537C23.0053 23.905 22.9783 23.7569 22.92 23.62C22.8694 23.4988 22.7983 23.3872 22.71 23.29ZM23 11.94C22.9896 11.8481 22.9695 11.7576 22.94 11.67V11.58C22.8919 11.4772 22.8278 11.3827 22.75 11.3L16.75 5.3C16.6673 5.22222 16.5728 5.15808 16.47 5.11C16.4402 5.10576 16.4099 5.10576 16.38 5.11C16.2784 5.05174 16.1662 5.01434 16.05 5H10C9.20435 5 8.44129 5.31607 7.87868 5.87868C7.31607 6.44129 7 7.20435 7 8V22C7 22.7956 7.31607 23.5587 7.87868 24.1213C8.44129 24.6839 9.20435 25 10 25H18C18.2652 25 18.5196 24.8946 18.7071 24.7071C18.8946 24.5196 19 24.2652 19 24C19 23.7348 18.8946 23.4804 18.7071 23.2929C18.5196 23.1054 18.2652 23 18 23H10C9.73478 23 9.48043 22.8946 9.29289 22.7071C9.10536 22.5196 9 22.2652 9 22V8C9 7.73478 9.10536 7.48043 9.29289 7.29289C9.48043 7.10536 9.73478 7 10 7H15V10C15 10.7956 15.3161 11.5587 15.8787 12.1213C16.4413 12.6839 17.2044 13 18 13H21V15C21 15.2652 21.1054 15.5196 21.2929 15.7071C21.4804 15.8946 21.7348 16 22 16C22.2652 16 22.5196 15.8946 22.7071 15.7071C22.8946 15.5196 23 15.2652 23 15V12C23 12 23 12 23 11.94ZM18 11C17.7348 11 17.4804 10.8946 17.2929 10.7071C17.1054 10.5196 17 10.2652 17 10V8.41L19.59 11H18ZM22 18C21.7348 18 21.4804 18.1054 21.2929 18.2929C21.1054 18.4804 21 18.7348 21 19V21C21 21.2652 21.1054 21.5196 21.2929 21.7071C21.4804 21.8946 21.7348 22 22 22C22.2652 22 22.5196 21.8946 22.7071 21.7071C22.8946 21.5196 23 21.2652 23 21V19C23 18.7348 22.8946 18.4804 22.7071 18.2929C22.5196 18.1054 22.2652 18 22 18Z" fill="#576BC7"/>
</svg>
