<svg width="20" height="20" viewBox="0 0 20 20" fill="none" xmlns="http://www.w3.org/2000/svg">
<path d="M13.5185 0H6.4815C5.99047 0 5.51932 0.206025 5.17215 0.572868C4.82483 0.939716 4.62961 1.43721 4.62961 1.95603V3.47187H4.16669C3.67566 3.47187 3.20452 3.6779 2.85734 4.04474C2.51002 4.41159 2.31481 4.90909 2.31481 5.4279V6.89498H1.85189V6.89481C1.36086 6.89481 0.889712 7.101 0.542533 7.46768C0.195217 7.83453 0 8.33202 0 8.85084V19.2665C0 19.4611 0.0733049 19.6476 0.203451 19.7853C0.333754 19.9227 0.510402 20 0.694479 20H19.3055C19.4896 20 19.6662 19.9227 19.7966 19.7853C19.9267 19.6476 20 19.4611 20 19.2665V8.85084C20 8.33202 19.8048 7.83456 19.4575 7.46768C19.1103 7.101 18.6391 6.89481 18.1481 6.89481H17.6852V5.42773V5.4279C17.6852 4.90909 17.49 4.41162 17.1427 4.04474C16.7955 3.67789 16.3243 3.47187 15.8333 3.47187H15.3704V1.95603C15.3704 1.43721 15.1752 0.939746 14.8279 0.572868C14.4807 0.20602 14.0095 0 13.5185 0H13.5185ZM6.04169 1.95603H6.04152C6.04152 1.68588 6.24885 1.4669 6.50461 1.4669H13.5185C13.6412 1.4669 13.7589 1.51841 13.8458 1.61016C13.9326 1.70192 13.9814 1.82624 13.9814 1.95603V3.47188H6.01847L6.04169 1.95603ZM18.6111 8.85088V18.533H1.38892V8.85088C1.38892 8.5809 1.59625 8.36193 1.85184 8.36193H18.1481C18.2708 8.36193 18.3885 8.41343 18.4754 8.50518C18.5623 8.59677 18.611 8.72127 18.611 8.85089L18.6111 8.85088ZM16.2963 5.42799V6.89507L3.70373 6.8949V5.42782V5.42799C3.70373 5.15784 3.91106 4.93886 4.16665 4.93886H15.8333C15.956 4.93886 16.0737 4.99054 16.1606 5.08212C16.2474 5.17388 16.2962 5.29821 16.2962 5.428L16.2963 5.42799Z" fill="#8C8C8C"/>
</svg>
