<svg width="20" height="18" viewBox="0 0 20 18" fill="none" xmlns="http://www.w3.org/2000/svg">
<path d="M19 3.75H6.25C6.05109 3.75 5.86032 3.67098 5.71967 3.53033C5.57902 3.38968 5.5 3.19891 5.5 3C5.5 2.80109 5.57902 2.61032 5.71967 2.46967C5.86032 2.32902 6.05109 2.25 6.25 2.25H19C19.1989 2.25 19.3897 2.32902 19.5303 2.46967C19.671 2.61032 19.75 2.80109 19.75 3C19.75 3.19891 19.671 3.38968 19.5303 3.53033C19.3897 3.67098 19.1989 3.75 19 3.75Z" fill="#86879C"/>
<path d="M3.25 3.75H1C0.801088 3.75 0.610322 3.67098 0.46967 3.53033C0.329018 3.38968 0.25 3.19891 0.25 3C0.25 2.80109 0.329018 2.61032 0.46967 2.46967C0.610322 2.32902 0.801088 2.25 1 2.25H3.25C3.44891 2.25 3.63968 2.32902 3.78033 2.46967C3.92098 2.61032 4 2.80109 4 3C4 3.19891 3.92098 3.38968 3.78033 3.53033C3.63968 3.67098 3.44891 3.75 3.25 3.75Z" fill="#86879C"/>
<path d="M13.75 9.75H1C0.801088 9.75 0.610322 9.67098 0.46967 9.53033C0.329018 9.38968 0.25 9.19891 0.25 9C0.25 8.80109 0.329018 8.61032 0.46967 8.46967C0.610322 8.32902 0.801088 8.25 1 8.25H13.75C13.9489 8.25 14.1397 8.32902 14.2803 8.46967C14.421 8.61032 14.5 8.80109 14.5 9C14.5 9.19891 14.421 9.38968 14.2803 9.53033C14.1397 9.67098 13.9489 9.75 13.75 9.75Z" fill="#86879C"/>
<path d="M6.25 15.75H1C0.801088 15.75 0.610322 15.671 0.46967 15.5303C0.329018 15.3897 0.25 15.1989 0.25 15C0.25 14.8011 0.329018 14.6103 0.46967 14.4697C0.610322 14.329 0.801088 14.25 1 14.25H6.25C6.44891 14.25 6.63968 14.329 6.78033 14.4697C6.92098 14.6103 7 14.8011 7 15C7 15.1989 6.92098 15.3897 6.78033 15.5303C6.63968 15.671 6.44891 15.75 6.25 15.75Z" fill="#86879C"/>
<path d="M4.75 5.25C4.30499 5.25 3.86998 5.11804 3.49997 4.87081C3.12996 4.62357 2.84157 4.27217 2.67127 3.86104C2.50097 3.4499 2.45642 2.99751 2.54323 2.56105C2.63005 2.12459 2.84434 1.72368 3.15901 1.40901C3.47368 1.09434 3.87459 0.880051 4.31105 0.793234C4.74751 0.706417 5.1999 0.750975 5.61104 0.921272C6.02217 1.09157 6.37357 1.37996 6.62081 1.74997C6.86804 2.11998 7 2.55499 7 3C7 3.59674 6.76295 4.16903 6.34099 4.59099C5.91903 5.01295 5.34674 5.25 4.75 5.25ZM4.75 2.25C4.60167 2.25 4.45666 2.29399 4.33332 2.3764C4.20999 2.45881 4.11386 2.57594 4.05709 2.71299C4.00033 2.85003 3.98547 3.00083 4.01441 3.14632C4.04335 3.2918 4.11478 3.42544 4.21967 3.53033C4.32456 3.63522 4.4582 3.70665 4.60368 3.73559C4.74917 3.76453 4.89997 3.74968 5.03701 3.69291C5.17406 3.63615 5.29119 3.54002 5.3736 3.41668C5.45601 3.29334 5.5 3.14834 5.5 3C5.5 2.80109 5.42098 2.61032 5.28033 2.46967C5.13968 2.32902 4.94891 2.25 4.75 2.25Z" fill="#86879C"/>
<path d="M15.25 11.25C14.805 11.25 14.37 11.118 14 10.8708C13.63 10.6236 13.3416 10.2722 13.1713 9.86104C13.001 9.44991 12.9564 8.99751 13.0432 8.56105C13.1301 8.12459 13.3443 7.72368 13.659 7.40901C13.9737 7.09434 14.3746 6.88005 14.811 6.79323C15.2475 6.70642 15.6999 6.75097 16.111 6.92127C16.5222 7.09157 16.8736 7.37996 17.1208 7.74997C17.368 8.11998 17.5 8.55499 17.5 9C17.5 9.59674 17.2629 10.169 16.841 10.591C16.419 11.0129 15.8467 11.25 15.25 11.25ZM15.25 8.25C15.1017 8.25 14.9567 8.29399 14.8333 8.3764C14.71 8.45881 14.6139 8.57594 14.5571 8.71299C14.5003 8.85003 14.4855 9.00083 14.5144 9.14632C14.5434 9.29181 14.6148 9.42544 14.7197 9.53033C14.8246 9.63522 14.9582 9.70665 15.1037 9.73559C15.2492 9.76453 15.4 9.74968 15.537 9.69291C15.6741 9.63615 15.7912 9.54002 15.8736 9.41668C15.956 9.29334 16 9.14834 16 9C16 8.80109 15.921 8.61032 15.7803 8.46967C15.6397 8.32902 15.4489 8.25 15.25 8.25Z" fill="#86879C"/>
<path d="M7.75 17.25C7.30499 17.25 6.86998 17.118 6.49997 16.8708C6.12996 16.6236 5.84157 16.2722 5.67127 15.861C5.50097 15.4499 5.45642 14.9975 5.54323 14.561C5.63005 14.1246 5.84434 13.7237 6.15901 13.409C6.47368 13.0943 6.87459 12.8801 7.31105 12.7932C7.74751 12.7064 8.19991 12.751 8.61104 12.9213C9.02217 13.0916 9.37357 13.38 9.62081 13.75C9.86804 14.12 10 14.555 10 15C10 15.5967 9.76295 16.169 9.34099 16.591C8.91903 17.0129 8.34674 17.25 7.75 17.25ZM7.75 14.25C7.60167 14.25 7.45666 14.294 7.33332 14.3764C7.20999 14.4588 7.11386 14.5759 7.05709 14.713C7.00033 14.85 6.98547 15.0008 7.01441 15.1463C7.04335 15.2918 7.11478 15.4254 7.21967 15.5303C7.32456 15.6352 7.4582 15.7067 7.60368 15.7356C7.74917 15.7645 7.89997 15.7497 8.03701 15.6929C8.17406 15.6361 8.29119 15.54 8.3736 15.4167C8.45601 15.2933 8.5 15.1483 8.5 15C8.5 14.8011 8.42098 14.6103 8.28033 14.4697C8.13968 14.329 7.94891 14.25 7.75 14.25Z" fill="#86879C"/>
<path d="M19 9.75H16.75C16.5511 9.75 16.3603 9.67098 16.2197 9.53033C16.079 9.38968 16 9.19891 16 9C16 8.80109 16.079 8.61032 16.2197 8.46967C16.3603 8.32902 16.5511 8.25 16.75 8.25H19C19.1989 8.25 19.3897 8.32902 19.5303 8.46967C19.671 8.61032 19.75 8.80109 19.75 9C19.75 9.19891 19.671 9.38968 19.5303 9.53033C19.3897 9.67098 19.1989 9.75 19 9.75Z" fill="#86879C"/>
<path d="M19 15.75H9.25C9.05109 15.75 8.86032 15.671 8.71967 15.5303C8.57902 15.3897 8.5 15.1989 8.5 15C8.5 14.8011 8.57902 14.6103 8.71967 14.4697C8.86032 14.329 9.05109 14.25 9.25 14.25H19C19.1989 14.25 19.3897 14.329 19.5303 14.4697C19.671 14.6103 19.75 14.8011 19.75 15C19.75 15.1989 19.671 15.3897 19.5303 15.5303C19.3897 15.671 19.1989 15.75 19 15.75Z" fill="#86879C"/>
</svg>
