<svg width="21" height="20" viewBox="0 0 21 20" fill="none" xmlns="http://www.w3.org/2000/svg">
<path d="M20.0005 7.67161C19.9373 7.4887 19.8224 7.32804 19.6698 7.20911C19.5171 7.09019 19.3333 7.01811 19.1405 7.00161L13.4505 6.17161L10.9005 1.00161C10.8186 0.832539 10.6907 0.689952 10.5316 0.590183C10.3724 0.490415 10.1883 0.4375 10.0005 0.4375C9.81261 0.4375 9.62855 0.490415 9.46938 0.590183C9.3102 0.689952 9.18235 0.832539 9.10047 1.00161L6.55047 6.16161L0.860466 7.00161C0.675388 7.02792 0.50139 7.10557 0.358216 7.22577C0.215042 7.34596 0.108426 7.50388 0.0504657 7.68161C-0.00258931 7.85528 -0.00735037 8.04013 0.0366935 8.2163C0.0807373 8.39248 0.171923 8.55334 0.300466 8.68161L4.43047 12.6816L3.43047 18.3616C3.39477 18.5491 3.41346 18.7429 3.48434 18.9201C3.55522 19.0973 3.67532 19.2505 3.83047 19.3616C3.98168 19.4697 4.16004 19.5335 4.34551 19.5459C4.53099 19.5583 4.71624 19.5187 4.88047 19.4316L10.0005 16.7616L15.1005 19.4416C15.2408 19.5208 15.3993 19.5621 15.5605 19.5616C15.7723 19.5624 15.9789 19.4958 16.1505 19.3716C16.3056 19.2605 16.4257 19.1073 16.4966 18.9301C16.5675 18.7529 16.5862 18.5591 16.5505 18.3716L15.5505 12.6916L19.6805 8.69161C19.8248 8.56929 19.9316 8.40851 19.9882 8.22796C20.0448 8.0474 20.0491 7.85448 20.0005 7.67161ZM13.8505 11.6716C13.7332 11.785 13.6454 11.9255 13.5949 12.0806C13.5444 12.2357 13.5325 12.4009 13.5605 12.5616L14.2805 16.7516L10.5205 14.7516C10.3758 14.6746 10.2144 14.6343 10.0505 14.6343C9.88655 14.6343 9.72515 14.6746 9.58047 14.7516L5.82047 16.7516L6.54047 12.5616C6.5684 12.4009 6.55658 12.2357 6.50603 12.0806C6.45548 11.9255 6.36774 11.785 6.25047 11.6716L3.25047 8.67161L7.46047 8.06161C7.62246 8.03908 7.77646 7.97715 7.90896 7.88126C8.04147 7.78537 8.14842 7.65845 8.22047 7.51161L10.0005 3.70161L11.8805 7.52161C11.9525 7.66845 12.0595 7.79537 12.192 7.89126C12.3245 7.98715 12.4785 8.04908 12.6405 8.07161L16.8505 8.68161L13.8505 11.6716Z" fill="#667EEA"/>
</svg>
